M48
; DRILL file {KiCad (5.1.5)-3} date 27/06/2020 8:49:20 PM
; FORMAT={-:-/ absolute / inch / decimal}
; #@! TF.CreationDate,2020-06-27T20:49:20+10:00
; #@! TF.GenerationSoftware,Kicad,Pcbnew,(5.1.5)-3
; #@! TF.FileFunction,Plated,1,4,PTH
FMAT,2
INCH
T1C0.0079
T2C0.0118
T3C0.0157
T4C0.0197
T5C0.0276
T6C0.0300
T7C0.0315
T8C0.0394
T9C0.0472
T10C0.0591
T11C0.0591
T12C0.1260
%
G90
G05
T1
X4.9744Y-3.0492
X4.9744Y-3.0925
X5.0256Y-3.0492
X5.0256Y-3.0925
X3.2559Y-5.5551
X3.2559Y-5.6063
X3.2992Y-5.5551
X3.2992Y-5.6063
X3.7539Y-2.7244
X3.7539Y-2.7677
X3.8051Y-2.7244
X3.8051Y-2.7677
X3.2461Y-4.9055
X3.2461Y-4.9567
X3.2894Y-4.9055
X3.2894Y-4.9567
X4.4921Y-2.7244
X4.4921Y-2.7677
X4.5433Y-2.7244
X4.5433Y-2.7677
T2
X2.6969Y-5.4134
X2.6969Y-5.4921
X2.7559Y-4.685
X2.7559Y-4.7441
X2.7559Y-5.4921
X2.813Y-3.2795
X2.815Y-4.685
X2.815Y-4.7441
X2.8346Y-5.2362
X2.8346Y-5.2756
X2.8346Y-5.315
X2.8636Y-2.8746
X2.874Y-5.2362
X2.874Y-5.2756
X2.874Y-5.315
X2.8839Y-3.8091
X2.9134Y-5.2756
X2.9134Y-5.315
X2.9331Y-3.8189
X3.0217Y-5.0492
X3.0315Y-5.689
X3.0413Y-4.8327
X3.0512Y-5.4823
X3.061Y-5.0886
X3.0709Y-5.748
X3.0797Y-2.9439
X3.0807Y-2.8346
X3.1004Y-5.0886
X3.1102Y-5.748
X3.1201Y-4.8327
X3.1299Y-5.4823
X3.1398Y-5.0492
X3.1496Y-5.689
X3.1988Y-5.0492
X3.1988Y-5.0886
X3.2087Y-4.8228
X3.2087Y-5.689
X3.2087Y-5.748
X3.2283Y-4.7835
X3.2283Y-5.4331
X3.2283Y-5.4724
X3.2283Y-5.5118
X3.248Y-4.8228
X3.248Y-4.8622
X3.2579Y-5.0098
X3.2579Y-5.1476
X3.2677Y-4.7835
X3.2677Y-5.4331
X3.2677Y-5.4724
X3.2677Y-5.5118
X3.2677Y-5.6496
X3.2677Y-5.7874
X3.2874Y-4.8228
X3.2972Y-4.8622
X3.3071Y-4.7835
X3.3071Y-5.4331
X3.3071Y-5.4724
X3.3071Y-5.5118
X3.3268Y-4.8228
X3.3465Y-4.7835
X3.3465Y-4.8622
X3.3465Y-5.1575
X3.3465Y-5.1969
X3.3465Y-5.2362
X3.3465Y-5.4331
X3.3465Y-5.4724
X3.3465Y-5.5118
X3.3465Y-5.7874
X3.3465Y-5.8268
X3.3465Y-5.8661
X3.3661Y-4.8228
X3.3858Y-5.1575
X3.3858Y-5.1969
X3.3858Y-5.2362
X3.3858Y-5.7874
X3.3858Y-5.8268
X3.3858Y-5.8661
X3.4252Y-5.0394
X3.4252Y-5.0787
X3.4252Y-5.1181
X3.4252Y-5.1575
X3.4252Y-5.1969
X3.4252Y-5.2362
X3.4252Y-5.6693
X3.4252Y-5.7087
X3.4252Y-5.748
X3.4252Y-5.7874
X3.4252Y-5.8268
X3.4252Y-5.8661
X3.4646Y-3.6811
X3.4646Y-5.0394
X3.4646Y-5.0787
X3.4646Y-5.1181
X3.4646Y-5.1575
X3.4646Y-5.1969
X3.4646Y-5.2362
X3.4646Y-5.6693
X3.4646Y-5.7087
X3.4646Y-5.748
X3.4646Y-5.7874
X3.4646Y-5.8268
X3.4646Y-5.8661
X3.4941Y-2.8445
X3.4941Y-2.8839
X3.4941Y-2.9232
X3.5236Y-3.6417
X3.5236Y-3.7205
X3.5335Y-2.8445
X3.5335Y-2.8839
X3.5335Y-2.9232
X3.5433Y-3.4843
X3.563Y-3.7205
X3.563Y-4.9016
X3.5728Y-2.7264
X3.5728Y-2.8445
X3.5728Y-2.8839
X3.5728Y-2.9232
X3.5827Y-3.6417
X3.5827Y-5.561
X3.6122Y-2.6673
X3.622Y-2.4803
X3.622Y-2.5197
X3.622Y-2.5591
X3.622Y-3.6417
X3.6614Y-2.4803
X3.6614Y-3.4843
X3.6713Y-2.6673
X3.7106Y-2.7264
X3.8386Y-3.9567
X3.8484Y-2.7657
X3.8583Y-2.7165
X3.8583Y-4.0354
X3.8583Y-4.1142
X3.878Y-2.5098
X3.878Y-2.5886
X3.878Y-2.6772
X3.8976Y-2.7165
X3.8976Y-2.7559
X3.8976Y-4.1142
X3.9173Y-2.5492
X3.9173Y-2.6772
X3.9173Y-2.7953
X3.9173Y-3.4843
X3.9173Y-3.563
X3.9173Y-3.6417
X3.9173Y-3.8583
X3.9173Y-3.9567
X3.937Y-2.7165
X3.937Y-2.7559
X3.9764Y-3.5827
X3.9764Y-3.8583
X3.9764Y-3.937
X4.0157Y-3.8976
X4.0157Y-4.1142
X4.0315Y-4.0
X4.0748Y-3.7992
X4.0945Y-3.3071
X4.1339Y-3.0709
X4.1339Y-3.7402
X4.1535Y-3.2283
X4.1535Y-3.8583
X4.1535Y-3.8976
X4.1929Y-3.1693
X4.1929Y-3.2874
X4.1929Y-3.937
X4.2323Y-3.8583
X4.252Y-3.2677
X4.252Y-3.937
X4.2717Y-3.189
X4.2913Y-3.8583
X4.311Y-2.6772
X4.311Y-2.7264
X4.311Y-3.2087
X4.3307Y-2.9921
X4.3307Y-3.0315
X4.3307Y-3.0709
X4.3602Y-2.5295
X4.3602Y-2.5689
X4.3602Y-2.6673
X4.3701Y-2.9921
X4.3701Y-3.0315
X4.3701Y-3.0709
X4.3701Y-4.311
X4.3701Y-4.4094
X4.3898Y-3.6614
X4.3898Y-4.252
X4.3996Y-2.4902
X4.3996Y-2.6083
X4.3996Y-2.6673
X4.4094Y-2.9921
X4.4094Y-3.0315
X4.4094Y-3.0709
X4.4094Y-3.4646
X4.4094Y-4.3504
X4.4291Y-3.6614
X4.4291Y-3.7795
X4.4291Y-4.4685
X4.439Y-2.7264
X4.4488Y-4.3504
X4.4685Y-3.7205
X4.4882Y-3.3071
X4.4882Y-4.3504
X4.5037Y-3.6656
X4.5079Y-3.5827
X4.5276Y-3.622
X4.5276Y-4.311
X4.5472Y-3.3268
X4.5472Y-4.0157
X4.5768Y-3.1201
X4.5866Y-2.7165
X4.5866Y-2.7657
X4.5866Y-2.815
X4.5965Y-2.8937
X4.5965Y-2.9331
X4.6063Y-5.1476
X4.6161Y-2.5098
X4.6161Y-2.5886
X4.626Y-2.7165
X4.626Y-2.7559
X4.626Y-2.7953
X4.626Y-2.8346
X4.6358Y-2.8937
X4.6358Y-2.9331
X4.6358Y-2.9724
X4.6457Y-3.3858
X4.6555Y-2.5492
X4.6654Y-2.7165
X4.6654Y-2.7559
X4.6654Y-2.7953
X4.6654Y-2.8346
X4.6654Y-3.3465
X4.6654Y-5.0886
X4.6752Y-2.8937
X4.6752Y-2.9331
X4.6752Y-2.9724
X4.7047Y-3.2283
X4.7047Y-3.2677
X4.7047Y-3.3071
X4.7047Y-3.3465
X4.7047Y-3.8583
X4.7146Y-5.1476
X4.7244Y-3.0118
X4.7244Y-3.0512
X4.7244Y-3.0906
X4.7244Y-3.8976
X4.7539Y-3.3071
X4.7638Y-3.0906
X4.7638Y-3.8976
X4.8228Y-3.8583
X4.8425Y-3.8976
X4.8819Y-3.8976
X4.8976Y-3.5591
X4.9016Y-4.0551
X4.9114Y-2.8642
X4.9114Y-5.6791
X4.9213Y-4.1142
X4.9311Y-3.061
X4.9311Y-3.1004
X4.937Y-3.5591
X4.9508Y-2.8445
X4.9606Y-3.4055
X4.9606Y-3.4449
X4.9606Y-4.1142
X4.9606Y-5.3543
X4.9606Y-5.4134
X4.9606Y-5.4528
X4.9665Y-3.498
X4.9705Y-3.5335
X4.9705Y-5.7283
X5.0138Y-4.1004
X5.0197Y-3.3858
X5.0197Y-5.315
X5.0197Y-5.6791
X5.0591Y-4.0551
X5.0591Y-4.1004
X5.0591Y-5.315
X5.0787Y-2.9528
X5.0787Y-2.9921
X5.0787Y-3.0315
X5.0787Y-3.0709
X5.0787Y-3.1102
X5.0787Y-3.1496
X5.0787Y-3.189
X5.0787Y-5.3543
X5.1181Y-2.9528
X5.1181Y-2.9921
X5.1181Y-3.0315
X5.1181Y-3.2283
X5.1575Y-2.9528
X5.1575Y-2.9921
X5.1575Y-3.0315
X5.1575Y-3.5827
X5.1575Y-3.622
X5.1575Y-3.6614
X5.1575Y-3.7008
X5.1575Y-3.7402
X5.1575Y-3.7795
X5.1575Y-3.8189
X5.1575Y-3.8583
X5.1575Y-3.8976
X5.1575Y-3.937
X5.1575Y-3.9764
X5.2067Y-5.7283
X5.2067Y-5.7677
X5.2067Y-5.8071
X5.2067Y-5.8563
X5.2067Y-5.8957
X5.2067Y-6.063
X5.2067Y-6.1024
X5.2165Y-4.872
X5.2165Y-4.9114
X5.2165Y-4.9508
X5.2165Y-5.0
X5.2165Y-5.0394
X5.2165Y-5.0787
X5.2165Y-5.1181
X5.2461Y-5.935
X5.2559Y-4.872
X5.2559Y-5.1181
X5.2559Y-6.063
X5.2559Y-6.1024
X5.2559Y-6.1713
X5.2559Y-6.2106
X5.2559Y-6.2598
X5.2953Y-4.872
X5.2953Y-5.1181
X5.2953Y-5.935
X5.3051Y-6.2598
X5.315Y-1.6732
X5.315Y-1.5748
X5.315Y-1.7717
X5.315Y-2.9823
X5.315Y-3.0217
X5.315Y-3.563
X5.315Y-5.5118
X5.3346Y-4.9114
X5.3346Y-5.0394
X5.3346Y-5.0787
X5.3346Y-5.1181
X5.3445Y-5.7283
X5.3445Y-5.7677
X5.3445Y-5.8071
X5.3445Y-5.8563
X5.3445Y-5.8957
X5.3445Y-6.2598
X5.3543Y-1.6142
X5.3543Y-1.7323
X5.3543Y-2.9626
X5.3543Y-5.5118
X5.3642Y-3.9075
X5.3642Y-4.9409
X5.374Y-5.0984
X5.3839Y-5.7677
X5.3937Y-1.5748
X5.3937Y-1.6732
X5.3937Y-1.7717
X5.3937Y-2.9626
X5.3937Y-5.5315
X5.3937Y-5.5709
X5.3937Y-5.6299
X5.3937Y-5.6693
X5.3937Y-5.9252
X5.3937Y-6.063
X5.3937Y-6.1024
X5.3937Y-6.1811
X5.3937Y-6.2205
X5.4035Y-4.9409
X5.4134Y-3.622
X5.4134Y-6.0236
X5.4232Y-3.1988
X5.4232Y-5.7677
X5.4331Y-5.9252
X5.4429Y-4.9803
X5.4429Y-6.1909
X5.4528Y-6.0236
X5.4626Y-3.1988
X5.4724Y-3.622
X5.4724Y-3.6614
X5.4724Y-3.7205
X5.4724Y-3.7598
X5.4921Y-6.1417
X5.4921Y-6.1909
X5.502Y-3.1988
X5.5118Y-3.3268
X5.5118Y-5.2756
X5.5118Y-5.315
X5.5118Y-5.374
X5.5118Y-5.4134
X5.5413Y-3.1988
X5.5413Y-3.6811
X5.561Y-5.4134
X5.5807Y-3.4252
X5.5807Y-3.5039
X5.5807Y-3.5433
X5.6102Y-5.2854
X5.6102Y-5.3248
X5.6102Y-5.4134
X5.6201Y-3.5728
X5.6398Y-5.3543
X5.6496Y-2.4409
X5.6496Y-3.3563
X5.6496Y-3.3957
X5.6496Y-4.685
X5.6496Y-4.7638
X5.6496Y-6.1811
X5.6496Y-6.2598
X5.6594Y-3.2382
X5.6594Y-3.6909
X5.689Y-2.4409
X5.689Y-3.7205
X5.689Y-3.7598
X5.689Y-4.7244
X5.689Y-6.2205
X5.6988Y-3.2382
X5.7087Y-2.4803
X5.7087Y-2.5197
X5.7087Y-3.563
X5.7185Y-5.3543
X5.7283Y-4.685
X5.7283Y-4.7638
X5.7283Y-6.1811
X5.7283Y-6.2598
X5.7382Y-3.1496
X5.7382Y-3.1791
X5.7382Y-3.2087
X5.748Y-3.563
X5.748Y-5.2854
X5.748Y-5.3248
X5.748Y-5.4035
X5.748Y-5.4429
X5.7579Y-3.6909
X5.7874Y-3.563
X5.7874Y-4.8819
X5.7874Y-4.9606
X5.7874Y-5.0394
X5.7874Y-5.1181
X5.7874Y-5.1969
X5.7874Y-5.7283
X5.7874Y-5.8071
X5.7874Y-5.8858
X5.7874Y-5.9646
X5.7874Y-6.0433
X5.8071Y-3.6909
X5.8268Y-3.5138
X5.8661Y-4.8819
X5.8661Y-4.9606
X5.8661Y-5.0394
X5.8661Y-5.1181
X5.8661Y-5.1969
X5.8661Y-5.7283
X5.8661Y-5.8071
X5.8661Y-5.8858
X5.8661Y-5.9646
X5.8661Y-6.0433
X5.8957Y-2.8346
X5.8957Y-2.874
X5.9154Y-2.7953
X5.9154Y-2.9134
X5.9252Y-3.3858
X5.9252Y-3.4252
X5.9252Y-3.4843
X5.935Y-3.7894
X5.9449Y-4.0354
X5.9449Y-4.8819
X5.9449Y-4.9606
X5.9449Y-5.0394
X5.9449Y-5.1181
X5.9449Y-5.1969
X5.9449Y-5.7283
X5.9449Y-5.8071
X5.9449Y-5.8858
X5.9449Y-5.9646
X5.9449Y-6.0433
X5.9547Y-2.7953
X5.9547Y-2.9134
X5.9547Y-3.7205
X5.9646Y-3.3661
X5.9744Y-3.7894
X5.9941Y-2.7953
X5.9941Y-2.9134
X6.0039Y-3.3661
X6.0236Y-3.4646
X6.0236Y-3.5039
X6.0236Y-4.8819
X6.0236Y-4.9606
X6.0236Y-5.0394
X6.0236Y-5.1181
X6.0236Y-5.1969
X6.0236Y-5.7283
X6.0236Y-5.8071
X6.0236Y-5.8858
X6.0236Y-5.9646
X6.0236Y-6.0433
X6.0335Y-2.7953
X6.0335Y-2.8346
X6.0335Y-2.874
X6.0335Y-2.9134
X6.0335Y-3.8189
X6.0531Y-4.065
X6.0531Y-4.1043
X6.063Y-3.622
X6.063Y-3.7697
X6.0728Y-3.7106
X6.0925Y-3.8386
X6.1024Y-4.1043
X6.1024Y-4.8819
X6.1024Y-4.9606
X6.1024Y-5.0394
X6.1024Y-5.1181
X6.1024Y-5.1969
X6.1024Y-5.7283
X6.1024Y-5.8071
X6.1024Y-5.8858
X6.1024Y-5.9646
X6.1024Y-6.0433
X6.122Y-3.7303
X6.122Y-3.8583
X6.1516Y-3.8386
X6.1713Y-3.6516
X6.1713Y-3.6909
X6.1713Y-4.1732
X6.2106Y-3.8878
X6.2205Y-4.1732
X6.2402Y-3.5925
X6.2402Y-3.9173
X6.2697Y-4.1043
X6.3091Y-3.878
X6.3091Y-4.1043
X6.3189Y-2.6181
X6.3386Y-3.9961
X6.3386Y-4.0354
X6.3484Y-3.878
X6.4075Y-2.2539
X6.4272Y-2.1457
X6.4272Y-2.185
X6.4272Y-3.5728
X6.4272Y-3.878
X6.4469Y-3.8386
X6.4665Y-2.1358
X6.4665Y-3.5827
X6.4665Y-3.75
X6.5059Y-3.5827
X6.5059Y-3.75
X6.5157Y-2.0965
X6.5157Y-2.1358
X6.5453Y-3.5827
X6.5453Y-3.622
X6.5453Y-3.6909
X6.5453Y-3.7303
X6.5551Y-2.0965
X6.5551Y-2.1358
X6.5551Y-2.6772
X6.5669Y-2.3386
X6.5669Y-2.378
X6.5945Y-2.0571
X6.5945Y-3.5827
X6.5945Y-3.75
X6.6063Y-2.3386
X6.6063Y-2.378
X6.6339Y-2.0571
X6.6339Y-3.5827
X6.6339Y-3.75
X6.6634Y-2.372
X6.6732Y-3.5925
X6.6732Y-3.6319
X6.7028Y-2.372
X6.7224Y-2.4311
X6.752Y-2.5591
X6.7618Y-3.7894
X6.7717Y-2.1063
X6.7717Y-5.0984
X6.7815Y-3.6614
X6.8012Y-2.185
X6.811Y-3.7894
X6.8209Y-5.0394
X6.8602Y-3.7894
X6.8898Y-5.4134
X6.8898Y-5.7677
X6.9882Y-5.2067
X7.2126Y-5.4154
T3
X5.3551Y-3.6628
X5.3572Y-3.6235
X6.2774Y-3.7106
X6.2795Y-3.6516
X6.4173Y-2.6969
X6.4764Y-2.6969
T4
X7.9173Y-4.9016
X7.945Y-4.8348
X7.945Y-4.9684
X8.0118Y-4.8071
X8.0118Y-4.9961
X8.0786Y-4.8348
X8.0786Y-4.9684
X8.1063Y-4.9016
X2.5236Y-1.437
X2.5513Y-1.3702
X2.5513Y-1.5038
X2.6181Y-1.3425
X2.6181Y-1.5315
X2.6849Y-1.3702
X2.6849Y-1.5038
X2.7126Y-1.437
X2.5236Y-6.0433
X2.5513Y-5.9765
X2.5513Y-6.1101
X2.6181Y-5.9488
X2.6181Y-6.1378
X2.6849Y-5.9765
X2.6849Y-6.1101
X2.7126Y-6.0433
X7.9173Y-1.437
X7.945Y-1.3702
X7.945Y-1.5038
X8.0118Y-1.3425
X8.0118Y-1.5315
X8.0786Y-1.3702
X8.0786Y-1.5038
X8.1063Y-1.437
X7.9173Y-6.0433
X7.945Y-5.9765
X7.945Y-6.1101
X8.0118Y-5.9488
X8.0118Y-6.1378
X8.0786Y-5.9765
X8.0786Y-6.1101
X8.1063Y-6.0433
T5
X7.8709Y-4.1339
X8.0709Y-4.1339
X7.8709Y-3.6614
X8.0709Y-3.6614
X7.8709Y-4.2913
X8.0709Y-4.2913
X7.8709Y-3.8189
X8.0709Y-3.8189
X7.8709Y-3.3858
X8.0709Y-3.3858
X7.8709Y-3.9764
X8.0709Y-3.9764
T6
X6.2992Y-4.1815
X6.2992Y-4.2815
X6.3992Y-4.1815
X6.3992Y-4.2815
X6.4992Y-4.1815
X6.4992Y-4.2815
X6.5992Y-4.1815
X6.5992Y-4.2815
X6.6992Y-4.1815
X6.6992Y-4.2815
X6.7992Y-4.1815
X6.7992Y-4.2815
X6.8992Y-4.1815
X6.8992Y-4.2815
X6.9992Y-4.1815
X6.9992Y-4.2815
X7.0992Y-4.1815
X7.0992Y-4.2815
X7.1992Y-4.1815
X7.1992Y-4.2815
T7
X5.5512Y-2.2638
X5.689Y-2.2638
X3.248Y-5.3051
X3.3858Y-5.3051
X2.8543Y-5.0
X2.8543Y-5.1378
X3.4055Y-2.7067
X3.4055Y-2.8445
X4.626Y-3.878
X4.626Y-3.9567
X4.9346Y-5.9843
X5.3346Y-5.9843
X6.4846Y-5.2382
X6.4846Y-5.4382
X6.4846Y-5.5382
X6.4846Y-5.6382
X6.6846Y-5.2382
X6.6846Y-5.4382
X6.6846Y-5.5382
X6.6846Y-5.6382
X4.7047Y-3.4055
X4.7835Y-3.4055
X4.8031Y-5.1575
X4.8031Y-5.5575
X2.774Y-3.8996
X2.774Y-4.0996
X2.774Y-4.1996
X2.774Y-4.2996
X2.974Y-3.8996
X2.974Y-4.0996
X2.974Y-4.1996
X2.974Y-4.2996
X4.6752Y-3.6516
X4.6752Y-3.7303
X4.1437Y-2.6969
X4.1437Y-2.8346
X5.4906Y-1.3799
X5.4906Y-1.5799
X5.4906Y-1.6799
X5.4906Y-1.7799
X5.6906Y-1.3799
X5.6906Y-1.5799
X5.6906Y-1.6799
X5.6906Y-1.7799
X3.7795Y-2.2638
X3.9173Y-2.2638
X3.248Y-5.9547
X3.3858Y-5.9547
X4.9346Y-5.2362
X5.3346Y-5.2362
X5.9646Y-2.7165
X5.9646Y-2.8543
X4.3307Y-2.2638
X4.4685Y-2.2638
X4.152Y-1.3799
X4.152Y-1.5799
X4.152Y-1.6799
X4.152Y-1.7799
X4.352Y-1.3799
X4.352Y-1.5799
X4.352Y-1.6799
X4.352Y-1.7799
X4.8031Y-5.663
X4.8031Y-6.063
X2.8543Y-5.5906
X2.8543Y-5.7283
T8
X7.5937Y-3.1102
X7.6937Y-3.1102
X7.7937Y-3.1102
X7.8937Y-3.1102
X2.6772Y-2.2638
X2.6772Y-2.3638
X7.5937Y-2.7756
X7.6937Y-2.7756
X7.7937Y-2.7756
X7.8937Y-2.7756
X7.5984Y-4.1339
X7.6984Y-4.1339
X7.5984Y-4.2913
X7.6984Y-4.2913
X7.5984Y-3.3858
X7.6984Y-3.3858
X7.8248Y-2.2244
X7.8248Y-2.4213
X8.0709Y-2.2244
X8.0709Y-2.3228
X8.0709Y-2.4213
X7.5984Y-3.6614
X7.6984Y-3.6614
X5.689Y-4.0748
X5.789Y-4.0748
X5.889Y-4.0748
X7.5984Y-3.8189
X7.6984Y-3.8189
X2.5098Y-2.2638
X2.5098Y-2.3638
X7.5984Y-3.9764
X7.6984Y-3.9764
T9
X3.878Y-5.5118
X3.878Y-6.1024
X4.3504Y-5.5118
X4.3504Y-6.1024
X4.3504Y-4.7244
X4.3504Y-5.315
X3.878Y-4.7244
X3.878Y-5.315
T10
X5.9449Y-2.4803
X4.8228Y-4.7835
X7.5807Y-5.2293
X7.5807Y-5.6793
X7.8307Y-5.2293
X7.8307Y-5.6793
X8.0807Y-5.2283
X8.0807Y-5.6783
X4.7638Y-4.2126
X5.9646Y-5.5118
X6.6929Y-6.1811
X5.0787Y-4.3307
X6.6535Y-4.7441
X5.0197Y-4.7835
X3.6811Y-3.2874
T11
X3.8976Y-1.6732
X3.3071Y-3.4811
X3.3071Y-3.6811
X5.0Y-1.6732
X5.9449Y-1.6732
X4.6063Y-1.6732
X3.3071Y-3.9567
X3.3071Y-4.1567
T12
X8.0118Y-4.9016
X2.6181Y-1.437
X2.6181Y-6.0433
X8.0118Y-1.437
X8.0118Y-6.0433
T0
M30
