G04 #@! TF.GenerationSoftware,KiCad,Pcbnew,(5.1.5)-3*
G04 #@! TF.CreationDate,2020-06-27T20:49:00+10:00*
G04 #@! TF.ProjectId,mainboard,6d61696e-626f-4617-9264-2e6b69636164,1.0.0*
G04 #@! TF.SameCoordinates,Original*
G04 #@! TF.FileFunction,Legend,Bot*
G04 #@! TF.FilePolarity,Positive*
%FSLAX46Y46*%
G04 Gerber Fmt 4.6, Leading zero omitted, Abs format (unit mm)*
G04 Created by KiCad (PCBNEW (5.1.5)-3) date 2020-06-27 20:49:00*
%MOMM*%
%LPD*%
G04 APERTURE LIST*
%ADD10C,0.120000*%
%ADD11C,0.150000*%
G04 APERTURE END LIST*
D10*
X63000000Y-65200000D02*
X63000000Y-68000000D01*
X63000000Y-68000000D02*
X65000000Y-68000000D01*
X65000000Y-68000000D02*
X65000000Y-65200000D01*
X65000000Y-65200000D02*
X63000000Y-65200000D01*
D11*
X68309523Y-65952380D02*
X68309523Y-66666666D01*
X68357142Y-66809523D01*
X68452380Y-66904761D01*
X68595238Y-66952380D01*
X68690476Y-66952380D01*
X67833333Y-66952380D02*
X67833333Y-65952380D01*
X67452380Y-65952380D01*
X67357142Y-66000000D01*
X67309523Y-66047619D01*
X67261904Y-66142857D01*
X67261904Y-66285714D01*
X67309523Y-66380952D01*
X67357142Y-66428571D01*
X67452380Y-66476190D01*
X67833333Y-66476190D01*
X66309523Y-66952380D02*
X66880952Y-66952380D01*
X66595238Y-66952380D02*
X66595238Y-65952380D01*
X66690476Y-66095238D01*
X66785714Y-66190476D01*
X66880952Y-66238095D01*
X65690476Y-65952380D02*
X65595238Y-65952380D01*
X65500000Y-66000000D01*
X65452380Y-66047619D01*
X65404761Y-66142857D01*
X65357142Y-66333333D01*
X65357142Y-66571428D01*
X65404761Y-66761904D01*
X65452380Y-66857142D01*
X65500000Y-66904761D01*
X65595238Y-66952380D01*
X65690476Y-66952380D01*
X65785714Y-66904761D01*
X65833333Y-66857142D01*
X65880952Y-66761904D01*
X65928571Y-66571428D01*
X65928571Y-66333333D01*
X65880952Y-66142857D01*
X65833333Y-66047619D01*
X65785714Y-66000000D01*
X65690476Y-65952380D01*
M02*
