M48
; DRILL file {KiCad (5.1.5)-3} date 27/06/2020 10:19:03 PM
; FORMAT={-:-/ absolute / inch / decimal}
; #@! TF.CreationDate,2020-06-27T22:19:03+10:00
; #@! TF.GenerationSoftware,Kicad,Pcbnew,(5.1.5)-3
; #@! TF.FileFunction,Plated,1,2,PTH
FMAT,2
INCH
T1C0.0315
T2C0.0512
T3C0.0984
%
G90
G05
T1
X6.5748Y-2.6181
X6.5748Y-2.6969
X7.3425Y-3.2087
X7.3425Y-3.2874
X7.3425Y-4.4685
X7.3425Y-4.5472
X7.3425Y-2.6181
X7.3425Y-2.6969
X6.5748Y-4.4685
X6.5748Y-4.5472
X5.3193Y-3.9807
X5.3193Y-4.6807
X6.2193Y-3.9807
X6.2193Y-4.5807
X6.5748Y-3.2087
X6.5748Y-3.2874
T2
X4.415Y-2.5512
X4.415Y-3.3512
X6.215Y-2.5512
X6.215Y-2.9512
X6.215Y-3.3512
T3
X6.5748Y-2.2638
X6.7717Y-2.9331
X6.5748Y-3.622
X6.5748Y-4.0354
X3.8583Y-2.5394
X3.8583Y-3.3465
T0
M30
