G04 #@! TF.GenerationSoftware,KiCad,Pcbnew,(5.1.5)-3*
G04 #@! TF.CreationDate,2020-06-27T22:24:07+10:00*
G04 #@! TF.ProjectId,external_psu,65787465-726e-4616-9c5f-7073752e6b69,1.0.0*
G04 #@! TF.SameCoordinates,Original*
G04 #@! TF.FileFunction,Copper,L1,Top*
G04 #@! TF.FilePolarity,Positive*
%FSLAX46Y46*%
G04 Gerber Fmt 4.6, Leading zero omitted, Abs format (unit mm)*
G04 Created by KiCad (PCBNEW (5.1.5)-3) date 2020-06-27 22:24:07*
%MOMM*%
%LPD*%
G04 APERTURE LIST*
%ADD10C,0.381000*%
%ADD11C,0.152400*%
%ADD12C,1.600000*%
%ADD13R,1.600000X1.600000*%
%ADD14C,0.100000*%
%ADD15C,5.999480*%
%ADD16R,3.180000X3.180000*%
%ADD17R,2.590000X3.180000*%
%ADD18R,1.498600X3.987800*%
%ADD19C,1.950000*%
%ADD20R,1.950000X1.950000*%
%ADD21C,1.200000*%
%ADD22R,1.200000X1.200000*%
%ADD23C,1.000000*%
%ADD24C,0.254000*%
G04 APERTURE END LIST*
D10*
X109301000Y-125294000D02*
X114000000Y-118309000D01*
X118699000Y-125294000D02*
X109301000Y-125294000D01*
X114000000Y-118309000D02*
X118699000Y-125294000D01*
X113502160Y-124699640D02*
X113400560Y-123800480D01*
X114299720Y-121900560D02*
X113502160Y-124699640D01*
X113100840Y-122700660D02*
X114299720Y-121900560D01*
X113900940Y-119700920D02*
X113100840Y-122700660D01*
X113502160Y-124699640D02*
X114101600Y-124001140D01*
X113100840Y-122700660D02*
X114401320Y-119899040D01*
X114701040Y-121600840D02*
X114101600Y-121999620D01*
X113502160Y-124699640D02*
X114701040Y-121600840D01*
X107167000Y-124032000D02*
X107167000Y-124413000D01*
X107167000Y-124413000D02*
X107294000Y-124413000D01*
X106278000Y-123143000D02*
X107167000Y-124032000D01*
X107167000Y-124032000D02*
X107421000Y-124032000D01*
X101579000Y-119968000D02*
X101198000Y-120095000D01*
X101579000Y-119968000D02*
X101579000Y-119587000D01*
X102087000Y-120349000D02*
X101579000Y-119968000D01*
X101833000Y-124032000D02*
X101833000Y-124540000D01*
X101833000Y-124032000D02*
X101452000Y-124032000D01*
X102849000Y-123143000D02*
X101833000Y-124032000D01*
X107421000Y-119841000D02*
X107929000Y-119714000D01*
X107421000Y-119841000D02*
X107421000Y-119333000D01*
X106786000Y-120349000D02*
X107421000Y-119841000D01*
X104627000Y-123270000D02*
X104627000Y-123524000D01*
X103992000Y-123143000D02*
X105135000Y-123143000D01*
X105135000Y-123143000D02*
X105135000Y-123651000D01*
X105135000Y-123651000D02*
X103992000Y-123651000D01*
X103992000Y-123651000D02*
X103992000Y-123143000D01*
X103767981Y-121619000D02*
G75*
G03X103767981Y-121619000I-283981J0D01*
G01*
X105799981Y-121619000D02*
G75*
G03X105799981Y-121619000I-283981J0D01*
G01*
X104500000Y-121619000D02*
X104754000Y-122381000D01*
X104754000Y-122381000D02*
X104246000Y-122381000D01*
X104246000Y-122381000D02*
X104500000Y-121619000D01*
X103484000Y-123905000D02*
X103611000Y-124159000D01*
X103611000Y-124159000D02*
X103865000Y-124413000D01*
X103865000Y-124413000D02*
X104246000Y-124540000D01*
X105643000Y-122762000D02*
X105643000Y-123524000D01*
X105643000Y-123524000D02*
X105643000Y-123905000D01*
X105643000Y-123905000D02*
X105516000Y-124286000D01*
X105516000Y-124286000D02*
X105135000Y-124413000D01*
X105135000Y-124413000D02*
X104627000Y-124540000D01*
X104627000Y-124540000D02*
X104246000Y-124540000D01*
X103484000Y-123905000D02*
X103484000Y-123524000D01*
X103484000Y-123524000D02*
X103484000Y-122762000D01*
X101960000Y-122000000D02*
X102087000Y-122254000D01*
X102087000Y-122254000D02*
X102214000Y-122508000D01*
X102214000Y-122508000D02*
X102722000Y-122635000D01*
X102722000Y-122635000D02*
X103357000Y-122762000D01*
X103357000Y-122762000D02*
X103738000Y-122762000D01*
X101960000Y-122000000D02*
X101960000Y-121746000D01*
X101960000Y-121746000D02*
X102087000Y-121238000D01*
X102087000Y-121238000D02*
X102341000Y-120603000D01*
X102341000Y-120603000D02*
X102849000Y-120095000D01*
X102849000Y-120095000D02*
X103484000Y-119714000D01*
X103484000Y-119714000D02*
X104119000Y-119460000D01*
X104119000Y-119460000D02*
X104627000Y-119460000D01*
X104627000Y-119460000D02*
X105262000Y-119587000D01*
X105262000Y-119587000D02*
X105897000Y-119841000D01*
X105897000Y-119841000D02*
X106405000Y-120349000D01*
X106405000Y-120349000D02*
X106659000Y-120730000D01*
X106659000Y-120730000D02*
X106913000Y-121238000D01*
X106913000Y-121238000D02*
X107040000Y-121619000D01*
X107040000Y-121619000D02*
X107040000Y-122000000D01*
X107040000Y-122000000D02*
X106913000Y-122381000D01*
X106913000Y-122381000D02*
X106659000Y-122508000D01*
X106659000Y-122508000D02*
X106151000Y-122762000D01*
X106151000Y-122762000D02*
X105770000Y-122762000D01*
X105770000Y-122762000D02*
X105389000Y-122762000D01*
D11*
X175996700Y-70001900D02*
X175996700Y-64998100D01*
X178003300Y-70001900D02*
X175996700Y-70001900D01*
X178003300Y-64998100D02*
X178003300Y-70001900D01*
X175996700Y-64998100D02*
X178003300Y-64998100D01*
X175996700Y-85001900D02*
X175996700Y-79998100D01*
X178003300Y-85001900D02*
X175996700Y-85001900D01*
X178003300Y-79998100D02*
X178003300Y-85001900D01*
X175996700Y-79998100D02*
X178003300Y-79998100D01*
X175996700Y-111998100D02*
X178003300Y-111998100D01*
X178003300Y-111998100D02*
X178003300Y-117001900D01*
X178003300Y-117001900D02*
X175996700Y-117001900D01*
X175996700Y-117001900D02*
X175996700Y-111998100D01*
D12*
X167000000Y-68500000D03*
D13*
X167000000Y-66500000D03*
D12*
X167000000Y-83500000D03*
D13*
X167000000Y-81500000D03*
X167000000Y-113500000D03*
D12*
X167000000Y-115500000D03*
G04 #@! TA.AperFunction,SMDPad,CuDef*
D14*
G36*
X172649504Y-68276204D02*
G01*
X172673773Y-68279804D01*
X172697571Y-68285765D01*
X172720671Y-68294030D01*
X172742849Y-68304520D01*
X172763893Y-68317133D01*
X172783598Y-68331747D01*
X172801777Y-68348223D01*
X172818253Y-68366402D01*
X172832867Y-68386107D01*
X172845480Y-68407151D01*
X172855970Y-68429329D01*
X172864235Y-68452429D01*
X172870196Y-68476227D01*
X172873796Y-68500496D01*
X172875000Y-68525000D01*
X172875000Y-69275000D01*
X172873796Y-69299504D01*
X172870196Y-69323773D01*
X172864235Y-69347571D01*
X172855970Y-69370671D01*
X172845480Y-69392849D01*
X172832867Y-69413893D01*
X172818253Y-69433598D01*
X172801777Y-69451777D01*
X172783598Y-69468253D01*
X172763893Y-69482867D01*
X172742849Y-69495480D01*
X172720671Y-69505970D01*
X172697571Y-69514235D01*
X172673773Y-69520196D01*
X172649504Y-69523796D01*
X172625000Y-69525000D01*
X171375000Y-69525000D01*
X171350496Y-69523796D01*
X171326227Y-69520196D01*
X171302429Y-69514235D01*
X171279329Y-69505970D01*
X171257151Y-69495480D01*
X171236107Y-69482867D01*
X171216402Y-69468253D01*
X171198223Y-69451777D01*
X171181747Y-69433598D01*
X171167133Y-69413893D01*
X171154520Y-69392849D01*
X171144030Y-69370671D01*
X171135765Y-69347571D01*
X171129804Y-69323773D01*
X171126204Y-69299504D01*
X171125000Y-69275000D01*
X171125000Y-68525000D01*
X171126204Y-68500496D01*
X171129804Y-68476227D01*
X171135765Y-68452429D01*
X171144030Y-68429329D01*
X171154520Y-68407151D01*
X171167133Y-68386107D01*
X171181747Y-68366402D01*
X171198223Y-68348223D01*
X171216402Y-68331747D01*
X171236107Y-68317133D01*
X171257151Y-68304520D01*
X171279329Y-68294030D01*
X171302429Y-68285765D01*
X171326227Y-68279804D01*
X171350496Y-68276204D01*
X171375000Y-68275000D01*
X172625000Y-68275000D01*
X172649504Y-68276204D01*
G37*
G04 #@! TD.AperFunction*
G04 #@! TA.AperFunction,SMDPad,CuDef*
G36*
X172649504Y-65476204D02*
G01*
X172673773Y-65479804D01*
X172697571Y-65485765D01*
X172720671Y-65494030D01*
X172742849Y-65504520D01*
X172763893Y-65517133D01*
X172783598Y-65531747D01*
X172801777Y-65548223D01*
X172818253Y-65566402D01*
X172832867Y-65586107D01*
X172845480Y-65607151D01*
X172855970Y-65629329D01*
X172864235Y-65652429D01*
X172870196Y-65676227D01*
X172873796Y-65700496D01*
X172875000Y-65725000D01*
X172875000Y-66475000D01*
X172873796Y-66499504D01*
X172870196Y-66523773D01*
X172864235Y-66547571D01*
X172855970Y-66570671D01*
X172845480Y-66592849D01*
X172832867Y-66613893D01*
X172818253Y-66633598D01*
X172801777Y-66651777D01*
X172783598Y-66668253D01*
X172763893Y-66682867D01*
X172742849Y-66695480D01*
X172720671Y-66705970D01*
X172697571Y-66714235D01*
X172673773Y-66720196D01*
X172649504Y-66723796D01*
X172625000Y-66725000D01*
X171375000Y-66725000D01*
X171350496Y-66723796D01*
X171326227Y-66720196D01*
X171302429Y-66714235D01*
X171279329Y-66705970D01*
X171257151Y-66695480D01*
X171236107Y-66682867D01*
X171216402Y-66668253D01*
X171198223Y-66651777D01*
X171181747Y-66633598D01*
X171167133Y-66613893D01*
X171154520Y-66592849D01*
X171144030Y-66570671D01*
X171135765Y-66547571D01*
X171129804Y-66523773D01*
X171126204Y-66499504D01*
X171125000Y-66475000D01*
X171125000Y-65725000D01*
X171126204Y-65700496D01*
X171129804Y-65676227D01*
X171135765Y-65652429D01*
X171144030Y-65629329D01*
X171154520Y-65607151D01*
X171167133Y-65586107D01*
X171181747Y-65566402D01*
X171198223Y-65548223D01*
X171216402Y-65531747D01*
X171236107Y-65517133D01*
X171257151Y-65504520D01*
X171279329Y-65494030D01*
X171302429Y-65485765D01*
X171326227Y-65479804D01*
X171350496Y-65476204D01*
X171375000Y-65475000D01*
X172625000Y-65475000D01*
X172649504Y-65476204D01*
G37*
G04 #@! TD.AperFunction*
G04 #@! TA.AperFunction,SMDPad,CuDef*
G36*
X172649504Y-83276204D02*
G01*
X172673773Y-83279804D01*
X172697571Y-83285765D01*
X172720671Y-83294030D01*
X172742849Y-83304520D01*
X172763893Y-83317133D01*
X172783598Y-83331747D01*
X172801777Y-83348223D01*
X172818253Y-83366402D01*
X172832867Y-83386107D01*
X172845480Y-83407151D01*
X172855970Y-83429329D01*
X172864235Y-83452429D01*
X172870196Y-83476227D01*
X172873796Y-83500496D01*
X172875000Y-83525000D01*
X172875000Y-84275000D01*
X172873796Y-84299504D01*
X172870196Y-84323773D01*
X172864235Y-84347571D01*
X172855970Y-84370671D01*
X172845480Y-84392849D01*
X172832867Y-84413893D01*
X172818253Y-84433598D01*
X172801777Y-84451777D01*
X172783598Y-84468253D01*
X172763893Y-84482867D01*
X172742849Y-84495480D01*
X172720671Y-84505970D01*
X172697571Y-84514235D01*
X172673773Y-84520196D01*
X172649504Y-84523796D01*
X172625000Y-84525000D01*
X171375000Y-84525000D01*
X171350496Y-84523796D01*
X171326227Y-84520196D01*
X171302429Y-84514235D01*
X171279329Y-84505970D01*
X171257151Y-84495480D01*
X171236107Y-84482867D01*
X171216402Y-84468253D01*
X171198223Y-84451777D01*
X171181747Y-84433598D01*
X171167133Y-84413893D01*
X171154520Y-84392849D01*
X171144030Y-84370671D01*
X171135765Y-84347571D01*
X171129804Y-84323773D01*
X171126204Y-84299504D01*
X171125000Y-84275000D01*
X171125000Y-83525000D01*
X171126204Y-83500496D01*
X171129804Y-83476227D01*
X171135765Y-83452429D01*
X171144030Y-83429329D01*
X171154520Y-83407151D01*
X171167133Y-83386107D01*
X171181747Y-83366402D01*
X171198223Y-83348223D01*
X171216402Y-83331747D01*
X171236107Y-83317133D01*
X171257151Y-83304520D01*
X171279329Y-83294030D01*
X171302429Y-83285765D01*
X171326227Y-83279804D01*
X171350496Y-83276204D01*
X171375000Y-83275000D01*
X172625000Y-83275000D01*
X172649504Y-83276204D01*
G37*
G04 #@! TD.AperFunction*
G04 #@! TA.AperFunction,SMDPad,CuDef*
G36*
X172649504Y-80476204D02*
G01*
X172673773Y-80479804D01*
X172697571Y-80485765D01*
X172720671Y-80494030D01*
X172742849Y-80504520D01*
X172763893Y-80517133D01*
X172783598Y-80531747D01*
X172801777Y-80548223D01*
X172818253Y-80566402D01*
X172832867Y-80586107D01*
X172845480Y-80607151D01*
X172855970Y-80629329D01*
X172864235Y-80652429D01*
X172870196Y-80676227D01*
X172873796Y-80700496D01*
X172875000Y-80725000D01*
X172875000Y-81475000D01*
X172873796Y-81499504D01*
X172870196Y-81523773D01*
X172864235Y-81547571D01*
X172855970Y-81570671D01*
X172845480Y-81592849D01*
X172832867Y-81613893D01*
X172818253Y-81633598D01*
X172801777Y-81651777D01*
X172783598Y-81668253D01*
X172763893Y-81682867D01*
X172742849Y-81695480D01*
X172720671Y-81705970D01*
X172697571Y-81714235D01*
X172673773Y-81720196D01*
X172649504Y-81723796D01*
X172625000Y-81725000D01*
X171375000Y-81725000D01*
X171350496Y-81723796D01*
X171326227Y-81720196D01*
X171302429Y-81714235D01*
X171279329Y-81705970D01*
X171257151Y-81695480D01*
X171236107Y-81682867D01*
X171216402Y-81668253D01*
X171198223Y-81651777D01*
X171181747Y-81633598D01*
X171167133Y-81613893D01*
X171154520Y-81592849D01*
X171144030Y-81570671D01*
X171135765Y-81547571D01*
X171129804Y-81523773D01*
X171126204Y-81499504D01*
X171125000Y-81475000D01*
X171125000Y-80725000D01*
X171126204Y-80700496D01*
X171129804Y-80676227D01*
X171135765Y-80652429D01*
X171144030Y-80629329D01*
X171154520Y-80607151D01*
X171167133Y-80586107D01*
X171181747Y-80566402D01*
X171198223Y-80548223D01*
X171216402Y-80531747D01*
X171236107Y-80517133D01*
X171257151Y-80504520D01*
X171279329Y-80494030D01*
X171302429Y-80485765D01*
X171326227Y-80479804D01*
X171350496Y-80476204D01*
X171375000Y-80475000D01*
X172625000Y-80475000D01*
X172649504Y-80476204D01*
G37*
G04 #@! TD.AperFunction*
G04 #@! TA.AperFunction,SMDPad,CuDef*
G36*
X172649504Y-115276204D02*
G01*
X172673773Y-115279804D01*
X172697571Y-115285765D01*
X172720671Y-115294030D01*
X172742849Y-115304520D01*
X172763893Y-115317133D01*
X172783598Y-115331747D01*
X172801777Y-115348223D01*
X172818253Y-115366402D01*
X172832867Y-115386107D01*
X172845480Y-115407151D01*
X172855970Y-115429329D01*
X172864235Y-115452429D01*
X172870196Y-115476227D01*
X172873796Y-115500496D01*
X172875000Y-115525000D01*
X172875000Y-116275000D01*
X172873796Y-116299504D01*
X172870196Y-116323773D01*
X172864235Y-116347571D01*
X172855970Y-116370671D01*
X172845480Y-116392849D01*
X172832867Y-116413893D01*
X172818253Y-116433598D01*
X172801777Y-116451777D01*
X172783598Y-116468253D01*
X172763893Y-116482867D01*
X172742849Y-116495480D01*
X172720671Y-116505970D01*
X172697571Y-116514235D01*
X172673773Y-116520196D01*
X172649504Y-116523796D01*
X172625000Y-116525000D01*
X171375000Y-116525000D01*
X171350496Y-116523796D01*
X171326227Y-116520196D01*
X171302429Y-116514235D01*
X171279329Y-116505970D01*
X171257151Y-116495480D01*
X171236107Y-116482867D01*
X171216402Y-116468253D01*
X171198223Y-116451777D01*
X171181747Y-116433598D01*
X171167133Y-116413893D01*
X171154520Y-116392849D01*
X171144030Y-116370671D01*
X171135765Y-116347571D01*
X171129804Y-116323773D01*
X171126204Y-116299504D01*
X171125000Y-116275000D01*
X171125000Y-115525000D01*
X171126204Y-115500496D01*
X171129804Y-115476227D01*
X171135765Y-115452429D01*
X171144030Y-115429329D01*
X171154520Y-115407151D01*
X171167133Y-115386107D01*
X171181747Y-115366402D01*
X171198223Y-115348223D01*
X171216402Y-115331747D01*
X171236107Y-115317133D01*
X171257151Y-115304520D01*
X171279329Y-115294030D01*
X171302429Y-115285765D01*
X171326227Y-115279804D01*
X171350496Y-115276204D01*
X171375000Y-115275000D01*
X172625000Y-115275000D01*
X172649504Y-115276204D01*
G37*
G04 #@! TD.AperFunction*
G04 #@! TA.AperFunction,SMDPad,CuDef*
G36*
X172649504Y-112476204D02*
G01*
X172673773Y-112479804D01*
X172697571Y-112485765D01*
X172720671Y-112494030D01*
X172742849Y-112504520D01*
X172763893Y-112517133D01*
X172783598Y-112531747D01*
X172801777Y-112548223D01*
X172818253Y-112566402D01*
X172832867Y-112586107D01*
X172845480Y-112607151D01*
X172855970Y-112629329D01*
X172864235Y-112652429D01*
X172870196Y-112676227D01*
X172873796Y-112700496D01*
X172875000Y-112725000D01*
X172875000Y-113475000D01*
X172873796Y-113499504D01*
X172870196Y-113523773D01*
X172864235Y-113547571D01*
X172855970Y-113570671D01*
X172845480Y-113592849D01*
X172832867Y-113613893D01*
X172818253Y-113633598D01*
X172801777Y-113651777D01*
X172783598Y-113668253D01*
X172763893Y-113682867D01*
X172742849Y-113695480D01*
X172720671Y-113705970D01*
X172697571Y-113714235D01*
X172673773Y-113720196D01*
X172649504Y-113723796D01*
X172625000Y-113725000D01*
X171375000Y-113725000D01*
X171350496Y-113723796D01*
X171326227Y-113720196D01*
X171302429Y-113714235D01*
X171279329Y-113705970D01*
X171257151Y-113695480D01*
X171236107Y-113682867D01*
X171216402Y-113668253D01*
X171198223Y-113651777D01*
X171181747Y-113633598D01*
X171167133Y-113613893D01*
X171154520Y-113592849D01*
X171144030Y-113570671D01*
X171135765Y-113547571D01*
X171129804Y-113523773D01*
X171126204Y-113499504D01*
X171125000Y-113475000D01*
X171125000Y-112725000D01*
X171126204Y-112700496D01*
X171129804Y-112676227D01*
X171135765Y-112652429D01*
X171144030Y-112629329D01*
X171154520Y-112607151D01*
X171167133Y-112586107D01*
X171181747Y-112566402D01*
X171198223Y-112548223D01*
X171216402Y-112531747D01*
X171236107Y-112517133D01*
X171257151Y-112504520D01*
X171279329Y-112494030D01*
X171302429Y-112485765D01*
X171326227Y-112479804D01*
X171350496Y-112476204D01*
X171375000Y-112475000D01*
X172625000Y-112475000D01*
X172649504Y-112476204D01*
G37*
G04 #@! TD.AperFunction*
G04 #@! TA.AperFunction,SMDPad,CuDef*
G36*
X178374505Y-61801204D02*
G01*
X178398773Y-61804804D01*
X178422572Y-61810765D01*
X178445671Y-61819030D01*
X178467850Y-61829520D01*
X178488893Y-61842132D01*
X178508599Y-61856747D01*
X178526777Y-61873223D01*
X178543253Y-61891401D01*
X178557868Y-61911107D01*
X178570480Y-61932150D01*
X178580970Y-61954329D01*
X178589235Y-61977428D01*
X178595196Y-62001227D01*
X178598796Y-62025495D01*
X178600000Y-62049999D01*
X178600000Y-62950001D01*
X178598796Y-62974505D01*
X178595196Y-62998773D01*
X178589235Y-63022572D01*
X178580970Y-63045671D01*
X178570480Y-63067850D01*
X178557868Y-63088893D01*
X178543253Y-63108599D01*
X178526777Y-63126777D01*
X178508599Y-63143253D01*
X178488893Y-63157868D01*
X178467850Y-63170480D01*
X178445671Y-63180970D01*
X178422572Y-63189235D01*
X178398773Y-63195196D01*
X178374505Y-63198796D01*
X178350001Y-63200000D01*
X177699999Y-63200000D01*
X177675495Y-63198796D01*
X177651227Y-63195196D01*
X177627428Y-63189235D01*
X177604329Y-63180970D01*
X177582150Y-63170480D01*
X177561107Y-63157868D01*
X177541401Y-63143253D01*
X177523223Y-63126777D01*
X177506747Y-63108599D01*
X177492132Y-63088893D01*
X177479520Y-63067850D01*
X177469030Y-63045671D01*
X177460765Y-63022572D01*
X177454804Y-62998773D01*
X177451204Y-62974505D01*
X177450000Y-62950001D01*
X177450000Y-62049999D01*
X177451204Y-62025495D01*
X177454804Y-62001227D01*
X177460765Y-61977428D01*
X177469030Y-61954329D01*
X177479520Y-61932150D01*
X177492132Y-61911107D01*
X177506747Y-61891401D01*
X177523223Y-61873223D01*
X177541401Y-61856747D01*
X177561107Y-61842132D01*
X177582150Y-61829520D01*
X177604329Y-61819030D01*
X177627428Y-61810765D01*
X177651227Y-61804804D01*
X177675495Y-61801204D01*
X177699999Y-61800000D01*
X178350001Y-61800000D01*
X178374505Y-61801204D01*
G37*
G04 #@! TD.AperFunction*
G04 #@! TA.AperFunction,SMDPad,CuDef*
G36*
X176324505Y-61801204D02*
G01*
X176348773Y-61804804D01*
X176372572Y-61810765D01*
X176395671Y-61819030D01*
X176417850Y-61829520D01*
X176438893Y-61842132D01*
X176458599Y-61856747D01*
X176476777Y-61873223D01*
X176493253Y-61891401D01*
X176507868Y-61911107D01*
X176520480Y-61932150D01*
X176530970Y-61954329D01*
X176539235Y-61977428D01*
X176545196Y-62001227D01*
X176548796Y-62025495D01*
X176550000Y-62049999D01*
X176550000Y-62950001D01*
X176548796Y-62974505D01*
X176545196Y-62998773D01*
X176539235Y-63022572D01*
X176530970Y-63045671D01*
X176520480Y-63067850D01*
X176507868Y-63088893D01*
X176493253Y-63108599D01*
X176476777Y-63126777D01*
X176458599Y-63143253D01*
X176438893Y-63157868D01*
X176417850Y-63170480D01*
X176395671Y-63180970D01*
X176372572Y-63189235D01*
X176348773Y-63195196D01*
X176324505Y-63198796D01*
X176300001Y-63200000D01*
X175649999Y-63200000D01*
X175625495Y-63198796D01*
X175601227Y-63195196D01*
X175577428Y-63189235D01*
X175554329Y-63180970D01*
X175532150Y-63170480D01*
X175511107Y-63157868D01*
X175491401Y-63143253D01*
X175473223Y-63126777D01*
X175456747Y-63108599D01*
X175442132Y-63088893D01*
X175429520Y-63067850D01*
X175419030Y-63045671D01*
X175410765Y-63022572D01*
X175404804Y-62998773D01*
X175401204Y-62974505D01*
X175400000Y-62950001D01*
X175400000Y-62049999D01*
X175401204Y-62025495D01*
X175404804Y-62001227D01*
X175410765Y-61977428D01*
X175419030Y-61954329D01*
X175429520Y-61932150D01*
X175442132Y-61911107D01*
X175456747Y-61891401D01*
X175473223Y-61873223D01*
X175491401Y-61856747D01*
X175511107Y-61842132D01*
X175532150Y-61829520D01*
X175554329Y-61819030D01*
X175577428Y-61810765D01*
X175601227Y-61804804D01*
X175625495Y-61801204D01*
X175649999Y-61800000D01*
X176300001Y-61800000D01*
X176324505Y-61801204D01*
G37*
G04 #@! TD.AperFunction*
G04 #@! TA.AperFunction,SMDPad,CuDef*
G36*
X176324505Y-86801204D02*
G01*
X176348773Y-86804804D01*
X176372572Y-86810765D01*
X176395671Y-86819030D01*
X176417850Y-86829520D01*
X176438893Y-86842132D01*
X176458599Y-86856747D01*
X176476777Y-86873223D01*
X176493253Y-86891401D01*
X176507868Y-86911107D01*
X176520480Y-86932150D01*
X176530970Y-86954329D01*
X176539235Y-86977428D01*
X176545196Y-87001227D01*
X176548796Y-87025495D01*
X176550000Y-87049999D01*
X176550000Y-87950001D01*
X176548796Y-87974505D01*
X176545196Y-87998773D01*
X176539235Y-88022572D01*
X176530970Y-88045671D01*
X176520480Y-88067850D01*
X176507868Y-88088893D01*
X176493253Y-88108599D01*
X176476777Y-88126777D01*
X176458599Y-88143253D01*
X176438893Y-88157868D01*
X176417850Y-88170480D01*
X176395671Y-88180970D01*
X176372572Y-88189235D01*
X176348773Y-88195196D01*
X176324505Y-88198796D01*
X176300001Y-88200000D01*
X175649999Y-88200000D01*
X175625495Y-88198796D01*
X175601227Y-88195196D01*
X175577428Y-88189235D01*
X175554329Y-88180970D01*
X175532150Y-88170480D01*
X175511107Y-88157868D01*
X175491401Y-88143253D01*
X175473223Y-88126777D01*
X175456747Y-88108599D01*
X175442132Y-88088893D01*
X175429520Y-88067850D01*
X175419030Y-88045671D01*
X175410765Y-88022572D01*
X175404804Y-87998773D01*
X175401204Y-87974505D01*
X175400000Y-87950001D01*
X175400000Y-87049999D01*
X175401204Y-87025495D01*
X175404804Y-87001227D01*
X175410765Y-86977428D01*
X175419030Y-86954329D01*
X175429520Y-86932150D01*
X175442132Y-86911107D01*
X175456747Y-86891401D01*
X175473223Y-86873223D01*
X175491401Y-86856747D01*
X175511107Y-86842132D01*
X175532150Y-86829520D01*
X175554329Y-86819030D01*
X175577428Y-86810765D01*
X175601227Y-86804804D01*
X175625495Y-86801204D01*
X175649999Y-86800000D01*
X176300001Y-86800000D01*
X176324505Y-86801204D01*
G37*
G04 #@! TD.AperFunction*
G04 #@! TA.AperFunction,SMDPad,CuDef*
G36*
X178374505Y-86801204D02*
G01*
X178398773Y-86804804D01*
X178422572Y-86810765D01*
X178445671Y-86819030D01*
X178467850Y-86829520D01*
X178488893Y-86842132D01*
X178508599Y-86856747D01*
X178526777Y-86873223D01*
X178543253Y-86891401D01*
X178557868Y-86911107D01*
X178570480Y-86932150D01*
X178580970Y-86954329D01*
X178589235Y-86977428D01*
X178595196Y-87001227D01*
X178598796Y-87025495D01*
X178600000Y-87049999D01*
X178600000Y-87950001D01*
X178598796Y-87974505D01*
X178595196Y-87998773D01*
X178589235Y-88022572D01*
X178580970Y-88045671D01*
X178570480Y-88067850D01*
X178557868Y-88088893D01*
X178543253Y-88108599D01*
X178526777Y-88126777D01*
X178508599Y-88143253D01*
X178488893Y-88157868D01*
X178467850Y-88170480D01*
X178445671Y-88180970D01*
X178422572Y-88189235D01*
X178398773Y-88195196D01*
X178374505Y-88198796D01*
X178350001Y-88200000D01*
X177699999Y-88200000D01*
X177675495Y-88198796D01*
X177651227Y-88195196D01*
X177627428Y-88189235D01*
X177604329Y-88180970D01*
X177582150Y-88170480D01*
X177561107Y-88157868D01*
X177541401Y-88143253D01*
X177523223Y-88126777D01*
X177506747Y-88108599D01*
X177492132Y-88088893D01*
X177479520Y-88067850D01*
X177469030Y-88045671D01*
X177460765Y-88022572D01*
X177454804Y-87998773D01*
X177451204Y-87974505D01*
X177450000Y-87950001D01*
X177450000Y-87049999D01*
X177451204Y-87025495D01*
X177454804Y-87001227D01*
X177460765Y-86977428D01*
X177469030Y-86954329D01*
X177479520Y-86932150D01*
X177492132Y-86911107D01*
X177506747Y-86891401D01*
X177523223Y-86873223D01*
X177541401Y-86856747D01*
X177561107Y-86842132D01*
X177582150Y-86829520D01*
X177604329Y-86819030D01*
X177627428Y-86810765D01*
X177651227Y-86804804D01*
X177675495Y-86801204D01*
X177699999Y-86800000D01*
X178350001Y-86800000D01*
X178374505Y-86801204D01*
G37*
G04 #@! TD.AperFunction*
G04 #@! TA.AperFunction,SMDPad,CuDef*
G36*
X176299505Y-108801204D02*
G01*
X176323773Y-108804804D01*
X176347572Y-108810765D01*
X176370671Y-108819030D01*
X176392850Y-108829520D01*
X176413893Y-108842132D01*
X176433599Y-108856747D01*
X176451777Y-108873223D01*
X176468253Y-108891401D01*
X176482868Y-108911107D01*
X176495480Y-108932150D01*
X176505970Y-108954329D01*
X176514235Y-108977428D01*
X176520196Y-109001227D01*
X176523796Y-109025495D01*
X176525000Y-109049999D01*
X176525000Y-109950001D01*
X176523796Y-109974505D01*
X176520196Y-109998773D01*
X176514235Y-110022572D01*
X176505970Y-110045671D01*
X176495480Y-110067850D01*
X176482868Y-110088893D01*
X176468253Y-110108599D01*
X176451777Y-110126777D01*
X176433599Y-110143253D01*
X176413893Y-110157868D01*
X176392850Y-110170480D01*
X176370671Y-110180970D01*
X176347572Y-110189235D01*
X176323773Y-110195196D01*
X176299505Y-110198796D01*
X176275001Y-110200000D01*
X175624999Y-110200000D01*
X175600495Y-110198796D01*
X175576227Y-110195196D01*
X175552428Y-110189235D01*
X175529329Y-110180970D01*
X175507150Y-110170480D01*
X175486107Y-110157868D01*
X175466401Y-110143253D01*
X175448223Y-110126777D01*
X175431747Y-110108599D01*
X175417132Y-110088893D01*
X175404520Y-110067850D01*
X175394030Y-110045671D01*
X175385765Y-110022572D01*
X175379804Y-109998773D01*
X175376204Y-109974505D01*
X175375000Y-109950001D01*
X175375000Y-109049999D01*
X175376204Y-109025495D01*
X175379804Y-109001227D01*
X175385765Y-108977428D01*
X175394030Y-108954329D01*
X175404520Y-108932150D01*
X175417132Y-108911107D01*
X175431747Y-108891401D01*
X175448223Y-108873223D01*
X175466401Y-108856747D01*
X175486107Y-108842132D01*
X175507150Y-108829520D01*
X175529329Y-108819030D01*
X175552428Y-108810765D01*
X175576227Y-108804804D01*
X175600495Y-108801204D01*
X175624999Y-108800000D01*
X176275001Y-108800000D01*
X176299505Y-108801204D01*
G37*
G04 #@! TD.AperFunction*
G04 #@! TA.AperFunction,SMDPad,CuDef*
G36*
X178349505Y-108801204D02*
G01*
X178373773Y-108804804D01*
X178397572Y-108810765D01*
X178420671Y-108819030D01*
X178442850Y-108829520D01*
X178463893Y-108842132D01*
X178483599Y-108856747D01*
X178501777Y-108873223D01*
X178518253Y-108891401D01*
X178532868Y-108911107D01*
X178545480Y-108932150D01*
X178555970Y-108954329D01*
X178564235Y-108977428D01*
X178570196Y-109001227D01*
X178573796Y-109025495D01*
X178575000Y-109049999D01*
X178575000Y-109950001D01*
X178573796Y-109974505D01*
X178570196Y-109998773D01*
X178564235Y-110022572D01*
X178555970Y-110045671D01*
X178545480Y-110067850D01*
X178532868Y-110088893D01*
X178518253Y-110108599D01*
X178501777Y-110126777D01*
X178483599Y-110143253D01*
X178463893Y-110157868D01*
X178442850Y-110170480D01*
X178420671Y-110180970D01*
X178397572Y-110189235D01*
X178373773Y-110195196D01*
X178349505Y-110198796D01*
X178325001Y-110200000D01*
X177674999Y-110200000D01*
X177650495Y-110198796D01*
X177626227Y-110195196D01*
X177602428Y-110189235D01*
X177579329Y-110180970D01*
X177557150Y-110170480D01*
X177536107Y-110157868D01*
X177516401Y-110143253D01*
X177498223Y-110126777D01*
X177481747Y-110108599D01*
X177467132Y-110088893D01*
X177454520Y-110067850D01*
X177444030Y-110045671D01*
X177435765Y-110022572D01*
X177429804Y-109998773D01*
X177426204Y-109974505D01*
X177425000Y-109950001D01*
X177425000Y-109049999D01*
X177426204Y-109025495D01*
X177429804Y-109001227D01*
X177435765Y-108977428D01*
X177444030Y-108954329D01*
X177454520Y-108932150D01*
X177467132Y-108911107D01*
X177481747Y-108891401D01*
X177498223Y-108873223D01*
X177516401Y-108856747D01*
X177536107Y-108842132D01*
X177557150Y-108829520D01*
X177579329Y-108819030D01*
X177602428Y-108810765D01*
X177626227Y-108804804D01*
X177650495Y-108801204D01*
X177674999Y-108800000D01*
X178325001Y-108800000D01*
X178349505Y-108801204D01*
G37*
G04 #@! TD.AperFunction*
G04 #@! TA.AperFunction,SMDPad,CuDef*
G36*
X182649504Y-68276204D02*
G01*
X182673773Y-68279804D01*
X182697571Y-68285765D01*
X182720671Y-68294030D01*
X182742849Y-68304520D01*
X182763893Y-68317133D01*
X182783598Y-68331747D01*
X182801777Y-68348223D01*
X182818253Y-68366402D01*
X182832867Y-68386107D01*
X182845480Y-68407151D01*
X182855970Y-68429329D01*
X182864235Y-68452429D01*
X182870196Y-68476227D01*
X182873796Y-68500496D01*
X182875000Y-68525000D01*
X182875000Y-69275000D01*
X182873796Y-69299504D01*
X182870196Y-69323773D01*
X182864235Y-69347571D01*
X182855970Y-69370671D01*
X182845480Y-69392849D01*
X182832867Y-69413893D01*
X182818253Y-69433598D01*
X182801777Y-69451777D01*
X182783598Y-69468253D01*
X182763893Y-69482867D01*
X182742849Y-69495480D01*
X182720671Y-69505970D01*
X182697571Y-69514235D01*
X182673773Y-69520196D01*
X182649504Y-69523796D01*
X182625000Y-69525000D01*
X181375000Y-69525000D01*
X181350496Y-69523796D01*
X181326227Y-69520196D01*
X181302429Y-69514235D01*
X181279329Y-69505970D01*
X181257151Y-69495480D01*
X181236107Y-69482867D01*
X181216402Y-69468253D01*
X181198223Y-69451777D01*
X181181747Y-69433598D01*
X181167133Y-69413893D01*
X181154520Y-69392849D01*
X181144030Y-69370671D01*
X181135765Y-69347571D01*
X181129804Y-69323773D01*
X181126204Y-69299504D01*
X181125000Y-69275000D01*
X181125000Y-68525000D01*
X181126204Y-68500496D01*
X181129804Y-68476227D01*
X181135765Y-68452429D01*
X181144030Y-68429329D01*
X181154520Y-68407151D01*
X181167133Y-68386107D01*
X181181747Y-68366402D01*
X181198223Y-68348223D01*
X181216402Y-68331747D01*
X181236107Y-68317133D01*
X181257151Y-68304520D01*
X181279329Y-68294030D01*
X181302429Y-68285765D01*
X181326227Y-68279804D01*
X181350496Y-68276204D01*
X181375000Y-68275000D01*
X182625000Y-68275000D01*
X182649504Y-68276204D01*
G37*
G04 #@! TD.AperFunction*
G04 #@! TA.AperFunction,SMDPad,CuDef*
G36*
X182649504Y-65476204D02*
G01*
X182673773Y-65479804D01*
X182697571Y-65485765D01*
X182720671Y-65494030D01*
X182742849Y-65504520D01*
X182763893Y-65517133D01*
X182783598Y-65531747D01*
X182801777Y-65548223D01*
X182818253Y-65566402D01*
X182832867Y-65586107D01*
X182845480Y-65607151D01*
X182855970Y-65629329D01*
X182864235Y-65652429D01*
X182870196Y-65676227D01*
X182873796Y-65700496D01*
X182875000Y-65725000D01*
X182875000Y-66475000D01*
X182873796Y-66499504D01*
X182870196Y-66523773D01*
X182864235Y-66547571D01*
X182855970Y-66570671D01*
X182845480Y-66592849D01*
X182832867Y-66613893D01*
X182818253Y-66633598D01*
X182801777Y-66651777D01*
X182783598Y-66668253D01*
X182763893Y-66682867D01*
X182742849Y-66695480D01*
X182720671Y-66705970D01*
X182697571Y-66714235D01*
X182673773Y-66720196D01*
X182649504Y-66723796D01*
X182625000Y-66725000D01*
X181375000Y-66725000D01*
X181350496Y-66723796D01*
X181326227Y-66720196D01*
X181302429Y-66714235D01*
X181279329Y-66705970D01*
X181257151Y-66695480D01*
X181236107Y-66682867D01*
X181216402Y-66668253D01*
X181198223Y-66651777D01*
X181181747Y-66633598D01*
X181167133Y-66613893D01*
X181154520Y-66592849D01*
X181144030Y-66570671D01*
X181135765Y-66547571D01*
X181129804Y-66523773D01*
X181126204Y-66499504D01*
X181125000Y-66475000D01*
X181125000Y-65725000D01*
X181126204Y-65700496D01*
X181129804Y-65676227D01*
X181135765Y-65652429D01*
X181144030Y-65629329D01*
X181154520Y-65607151D01*
X181167133Y-65586107D01*
X181181747Y-65566402D01*
X181198223Y-65548223D01*
X181216402Y-65531747D01*
X181236107Y-65517133D01*
X181257151Y-65504520D01*
X181279329Y-65494030D01*
X181302429Y-65485765D01*
X181326227Y-65479804D01*
X181350496Y-65476204D01*
X181375000Y-65475000D01*
X182625000Y-65475000D01*
X182649504Y-65476204D01*
G37*
G04 #@! TD.AperFunction*
G04 #@! TA.AperFunction,SMDPad,CuDef*
G36*
X182649504Y-83276204D02*
G01*
X182673773Y-83279804D01*
X182697571Y-83285765D01*
X182720671Y-83294030D01*
X182742849Y-83304520D01*
X182763893Y-83317133D01*
X182783598Y-83331747D01*
X182801777Y-83348223D01*
X182818253Y-83366402D01*
X182832867Y-83386107D01*
X182845480Y-83407151D01*
X182855970Y-83429329D01*
X182864235Y-83452429D01*
X182870196Y-83476227D01*
X182873796Y-83500496D01*
X182875000Y-83525000D01*
X182875000Y-84275000D01*
X182873796Y-84299504D01*
X182870196Y-84323773D01*
X182864235Y-84347571D01*
X182855970Y-84370671D01*
X182845480Y-84392849D01*
X182832867Y-84413893D01*
X182818253Y-84433598D01*
X182801777Y-84451777D01*
X182783598Y-84468253D01*
X182763893Y-84482867D01*
X182742849Y-84495480D01*
X182720671Y-84505970D01*
X182697571Y-84514235D01*
X182673773Y-84520196D01*
X182649504Y-84523796D01*
X182625000Y-84525000D01*
X181375000Y-84525000D01*
X181350496Y-84523796D01*
X181326227Y-84520196D01*
X181302429Y-84514235D01*
X181279329Y-84505970D01*
X181257151Y-84495480D01*
X181236107Y-84482867D01*
X181216402Y-84468253D01*
X181198223Y-84451777D01*
X181181747Y-84433598D01*
X181167133Y-84413893D01*
X181154520Y-84392849D01*
X181144030Y-84370671D01*
X181135765Y-84347571D01*
X181129804Y-84323773D01*
X181126204Y-84299504D01*
X181125000Y-84275000D01*
X181125000Y-83525000D01*
X181126204Y-83500496D01*
X181129804Y-83476227D01*
X181135765Y-83452429D01*
X181144030Y-83429329D01*
X181154520Y-83407151D01*
X181167133Y-83386107D01*
X181181747Y-83366402D01*
X181198223Y-83348223D01*
X181216402Y-83331747D01*
X181236107Y-83317133D01*
X181257151Y-83304520D01*
X181279329Y-83294030D01*
X181302429Y-83285765D01*
X181326227Y-83279804D01*
X181350496Y-83276204D01*
X181375000Y-83275000D01*
X182625000Y-83275000D01*
X182649504Y-83276204D01*
G37*
G04 #@! TD.AperFunction*
G04 #@! TA.AperFunction,SMDPad,CuDef*
G36*
X182649504Y-80476204D02*
G01*
X182673773Y-80479804D01*
X182697571Y-80485765D01*
X182720671Y-80494030D01*
X182742849Y-80504520D01*
X182763893Y-80517133D01*
X182783598Y-80531747D01*
X182801777Y-80548223D01*
X182818253Y-80566402D01*
X182832867Y-80586107D01*
X182845480Y-80607151D01*
X182855970Y-80629329D01*
X182864235Y-80652429D01*
X182870196Y-80676227D01*
X182873796Y-80700496D01*
X182875000Y-80725000D01*
X182875000Y-81475000D01*
X182873796Y-81499504D01*
X182870196Y-81523773D01*
X182864235Y-81547571D01*
X182855970Y-81570671D01*
X182845480Y-81592849D01*
X182832867Y-81613893D01*
X182818253Y-81633598D01*
X182801777Y-81651777D01*
X182783598Y-81668253D01*
X182763893Y-81682867D01*
X182742849Y-81695480D01*
X182720671Y-81705970D01*
X182697571Y-81714235D01*
X182673773Y-81720196D01*
X182649504Y-81723796D01*
X182625000Y-81725000D01*
X181375000Y-81725000D01*
X181350496Y-81723796D01*
X181326227Y-81720196D01*
X181302429Y-81714235D01*
X181279329Y-81705970D01*
X181257151Y-81695480D01*
X181236107Y-81682867D01*
X181216402Y-81668253D01*
X181198223Y-81651777D01*
X181181747Y-81633598D01*
X181167133Y-81613893D01*
X181154520Y-81592849D01*
X181144030Y-81570671D01*
X181135765Y-81547571D01*
X181129804Y-81523773D01*
X181126204Y-81499504D01*
X181125000Y-81475000D01*
X181125000Y-80725000D01*
X181126204Y-80700496D01*
X181129804Y-80676227D01*
X181135765Y-80652429D01*
X181144030Y-80629329D01*
X181154520Y-80607151D01*
X181167133Y-80586107D01*
X181181747Y-80566402D01*
X181198223Y-80548223D01*
X181216402Y-80531747D01*
X181236107Y-80517133D01*
X181257151Y-80504520D01*
X181279329Y-80494030D01*
X181302429Y-80485765D01*
X181326227Y-80479804D01*
X181350496Y-80476204D01*
X181375000Y-80475000D01*
X182625000Y-80475000D01*
X182649504Y-80476204D01*
G37*
G04 #@! TD.AperFunction*
G04 #@! TA.AperFunction,SMDPad,CuDef*
G36*
X182649504Y-112476204D02*
G01*
X182673773Y-112479804D01*
X182697571Y-112485765D01*
X182720671Y-112494030D01*
X182742849Y-112504520D01*
X182763893Y-112517133D01*
X182783598Y-112531747D01*
X182801777Y-112548223D01*
X182818253Y-112566402D01*
X182832867Y-112586107D01*
X182845480Y-112607151D01*
X182855970Y-112629329D01*
X182864235Y-112652429D01*
X182870196Y-112676227D01*
X182873796Y-112700496D01*
X182875000Y-112725000D01*
X182875000Y-113475000D01*
X182873796Y-113499504D01*
X182870196Y-113523773D01*
X182864235Y-113547571D01*
X182855970Y-113570671D01*
X182845480Y-113592849D01*
X182832867Y-113613893D01*
X182818253Y-113633598D01*
X182801777Y-113651777D01*
X182783598Y-113668253D01*
X182763893Y-113682867D01*
X182742849Y-113695480D01*
X182720671Y-113705970D01*
X182697571Y-113714235D01*
X182673773Y-113720196D01*
X182649504Y-113723796D01*
X182625000Y-113725000D01*
X181375000Y-113725000D01*
X181350496Y-113723796D01*
X181326227Y-113720196D01*
X181302429Y-113714235D01*
X181279329Y-113705970D01*
X181257151Y-113695480D01*
X181236107Y-113682867D01*
X181216402Y-113668253D01*
X181198223Y-113651777D01*
X181181747Y-113633598D01*
X181167133Y-113613893D01*
X181154520Y-113592849D01*
X181144030Y-113570671D01*
X181135765Y-113547571D01*
X181129804Y-113523773D01*
X181126204Y-113499504D01*
X181125000Y-113475000D01*
X181125000Y-112725000D01*
X181126204Y-112700496D01*
X181129804Y-112676227D01*
X181135765Y-112652429D01*
X181144030Y-112629329D01*
X181154520Y-112607151D01*
X181167133Y-112586107D01*
X181181747Y-112566402D01*
X181198223Y-112548223D01*
X181216402Y-112531747D01*
X181236107Y-112517133D01*
X181257151Y-112504520D01*
X181279329Y-112494030D01*
X181302429Y-112485765D01*
X181326227Y-112479804D01*
X181350496Y-112476204D01*
X181375000Y-112475000D01*
X182625000Y-112475000D01*
X182649504Y-112476204D01*
G37*
G04 #@! TD.AperFunction*
G04 #@! TA.AperFunction,SMDPad,CuDef*
G36*
X182649504Y-115276204D02*
G01*
X182673773Y-115279804D01*
X182697571Y-115285765D01*
X182720671Y-115294030D01*
X182742849Y-115304520D01*
X182763893Y-115317133D01*
X182783598Y-115331747D01*
X182801777Y-115348223D01*
X182818253Y-115366402D01*
X182832867Y-115386107D01*
X182845480Y-115407151D01*
X182855970Y-115429329D01*
X182864235Y-115452429D01*
X182870196Y-115476227D01*
X182873796Y-115500496D01*
X182875000Y-115525000D01*
X182875000Y-116275000D01*
X182873796Y-116299504D01*
X182870196Y-116323773D01*
X182864235Y-116347571D01*
X182855970Y-116370671D01*
X182845480Y-116392849D01*
X182832867Y-116413893D01*
X182818253Y-116433598D01*
X182801777Y-116451777D01*
X182783598Y-116468253D01*
X182763893Y-116482867D01*
X182742849Y-116495480D01*
X182720671Y-116505970D01*
X182697571Y-116514235D01*
X182673773Y-116520196D01*
X182649504Y-116523796D01*
X182625000Y-116525000D01*
X181375000Y-116525000D01*
X181350496Y-116523796D01*
X181326227Y-116520196D01*
X181302429Y-116514235D01*
X181279329Y-116505970D01*
X181257151Y-116495480D01*
X181236107Y-116482867D01*
X181216402Y-116468253D01*
X181198223Y-116451777D01*
X181181747Y-116433598D01*
X181167133Y-116413893D01*
X181154520Y-116392849D01*
X181144030Y-116370671D01*
X181135765Y-116347571D01*
X181129804Y-116323773D01*
X181126204Y-116299504D01*
X181125000Y-116275000D01*
X181125000Y-115525000D01*
X181126204Y-115500496D01*
X181129804Y-115476227D01*
X181135765Y-115452429D01*
X181144030Y-115429329D01*
X181154520Y-115407151D01*
X181167133Y-115386107D01*
X181181747Y-115366402D01*
X181198223Y-115348223D01*
X181216402Y-115331747D01*
X181236107Y-115317133D01*
X181257151Y-115304520D01*
X181279329Y-115294030D01*
X181302429Y-115285765D01*
X181326227Y-115279804D01*
X181350496Y-115276204D01*
X181375000Y-115275000D01*
X182625000Y-115275000D01*
X182649504Y-115276204D01*
G37*
G04 #@! TD.AperFunction*
D13*
X186500000Y-66500000D03*
D12*
X186500000Y-68500000D03*
D13*
X186500000Y-81500000D03*
D12*
X186500000Y-83500000D03*
X186500000Y-115500000D03*
D13*
X186500000Y-113500000D03*
D15*
X98000000Y-85000000D03*
X98000000Y-64500000D03*
X167000000Y-57500000D03*
X172000000Y-74500000D03*
X167000000Y-92000000D03*
X167000000Y-102500000D03*
D16*
X176525000Y-57500000D03*
D17*
X180500000Y-57500000D03*
D16*
X184475000Y-57500000D03*
X183475000Y-92000000D03*
D17*
X179500000Y-92000000D03*
D16*
X175525000Y-92000000D03*
X183475000Y-102500000D03*
D17*
X179500000Y-102500000D03*
D16*
X175525000Y-102500000D03*
D18*
X178803400Y-67500000D03*
X175196600Y-67500000D03*
X178803400Y-82500000D03*
X175196600Y-82500000D03*
X175196600Y-114500000D03*
X178803400Y-114500000D03*
D19*
X157860000Y-85120000D03*
X157860000Y-64800000D03*
X157860000Y-74960000D03*
X112140000Y-85120000D03*
D20*
X112140000Y-64800000D03*
D21*
X157970000Y-116350000D03*
X157970000Y-101110000D03*
X135110000Y-101110000D03*
D22*
X135110000Y-118890000D03*
D23*
X180600000Y-67500000D02*
X182000000Y-66100000D01*
X178803400Y-67500000D02*
X180600000Y-67500000D01*
X186600000Y-66100000D02*
X187000000Y-66500000D01*
X186500000Y-66500000D02*
X186500000Y-66000000D01*
X186500000Y-66000000D02*
X186435000Y-66000000D01*
X182400000Y-113500000D02*
X182000000Y-113100000D01*
X167000000Y-57500000D02*
X176525000Y-57500000D01*
X167000000Y-92000000D02*
X175525000Y-92000000D01*
X175525000Y-102500000D02*
X167000000Y-102500000D01*
D24*
G36*
X185873000Y-64500000D02*
G01*
X185875440Y-64524776D01*
X185882667Y-64548601D01*
X185894403Y-64570557D01*
X185910197Y-64589803D01*
X185929553Y-64605670D01*
X186873000Y-65234635D01*
X186873000Y-66127000D01*
X186893000Y-66127000D01*
X186893000Y-66873000D01*
X181500000Y-66873000D01*
X181475224Y-66875440D01*
X181451399Y-66882667D01*
X181429443Y-66894403D01*
X181410197Y-66910197D01*
X180447394Y-67873000D01*
X179500000Y-67873000D01*
X179475224Y-67875440D01*
X179451399Y-67882667D01*
X179429443Y-67894403D01*
X179410197Y-67910197D01*
X179394403Y-67929443D01*
X179382667Y-67951399D01*
X179375440Y-67975224D01*
X179373000Y-68000000D01*
X179373000Y-69373000D01*
X178714500Y-69373000D01*
X178714500Y-65700000D01*
X185061928Y-65700000D01*
X185065000Y-65968250D01*
X185223750Y-66127000D01*
X186127000Y-66127000D01*
X186127000Y-65223750D01*
X185968250Y-65065000D01*
X185700000Y-65061928D01*
X185575518Y-65074188D01*
X185455820Y-65110498D01*
X185345506Y-65169463D01*
X185248815Y-65248815D01*
X185169463Y-65345506D01*
X185110498Y-65455820D01*
X185074188Y-65575518D01*
X185061928Y-65700000D01*
X178714500Y-65700000D01*
X178714500Y-65033036D01*
X178717941Y-64998100D01*
X178704209Y-64858680D01*
X178663542Y-64724619D01*
X178597502Y-64601067D01*
X178508627Y-64492773D01*
X178400333Y-64403898D01*
X178276781Y-64337858D01*
X178142720Y-64297191D01*
X178038236Y-64286900D01*
X178003300Y-64283459D01*
X177968364Y-64286900D01*
X177627000Y-64286900D01*
X177627000Y-61627000D01*
X181000000Y-61627000D01*
X181024776Y-61624560D01*
X181048601Y-61617333D01*
X181070557Y-61605597D01*
X181089803Y-61589803D01*
X183089803Y-59589803D01*
X183105597Y-59570557D01*
X183117333Y-59548601D01*
X183124560Y-59524776D01*
X183127000Y-59500000D01*
X183127000Y-56127000D01*
X185873000Y-56127000D01*
X185873000Y-64500000D01*
G37*
X185873000Y-64500000D02*
X185875440Y-64524776D01*
X185882667Y-64548601D01*
X185894403Y-64570557D01*
X185910197Y-64589803D01*
X185929553Y-64605670D01*
X186873000Y-65234635D01*
X186873000Y-66127000D01*
X186893000Y-66127000D01*
X186893000Y-66873000D01*
X181500000Y-66873000D01*
X181475224Y-66875440D01*
X181451399Y-66882667D01*
X181429443Y-66894403D01*
X181410197Y-66910197D01*
X180447394Y-67873000D01*
X179500000Y-67873000D01*
X179475224Y-67875440D01*
X179451399Y-67882667D01*
X179429443Y-67894403D01*
X179410197Y-67910197D01*
X179394403Y-67929443D01*
X179382667Y-67951399D01*
X179375440Y-67975224D01*
X179373000Y-68000000D01*
X179373000Y-69373000D01*
X178714500Y-69373000D01*
X178714500Y-65700000D01*
X185061928Y-65700000D01*
X185065000Y-65968250D01*
X185223750Y-66127000D01*
X186127000Y-66127000D01*
X186127000Y-65223750D01*
X185968250Y-65065000D01*
X185700000Y-65061928D01*
X185575518Y-65074188D01*
X185455820Y-65110498D01*
X185345506Y-65169463D01*
X185248815Y-65248815D01*
X185169463Y-65345506D01*
X185110498Y-65455820D01*
X185074188Y-65575518D01*
X185061928Y-65700000D01*
X178714500Y-65700000D01*
X178714500Y-65033036D01*
X178717941Y-64998100D01*
X178704209Y-64858680D01*
X178663542Y-64724619D01*
X178597502Y-64601067D01*
X178508627Y-64492773D01*
X178400333Y-64403898D01*
X178276781Y-64337858D01*
X178142720Y-64297191D01*
X178038236Y-64286900D01*
X178003300Y-64283459D01*
X177968364Y-64286900D01*
X177627000Y-64286900D01*
X177627000Y-61627000D01*
X181000000Y-61627000D01*
X181024776Y-61624560D01*
X181048601Y-61617333D01*
X181070557Y-61605597D01*
X181089803Y-61589803D01*
X183089803Y-59589803D01*
X183105597Y-59570557D01*
X183117333Y-59548601D01*
X183124560Y-59524776D01*
X183127000Y-59500000D01*
X183127000Y-56127000D01*
X185873000Y-56127000D01*
X185873000Y-64500000D01*
G36*
X175285500Y-84966964D02*
G01*
X175282059Y-85001900D01*
X175295791Y-85141320D01*
X175336458Y-85275381D01*
X175402498Y-85398933D01*
X175491373Y-85507227D01*
X175599667Y-85596102D01*
X175723219Y-85662142D01*
X175857280Y-85702809D01*
X175996700Y-85716541D01*
X176031636Y-85713100D01*
X176595332Y-85713100D01*
X176595332Y-87873000D01*
X155627000Y-87873000D01*
X155627000Y-86381165D01*
X157126337Y-86381165D01*
X157236470Y-86612801D01*
X157539682Y-86705762D01*
X157855204Y-86737783D01*
X158170910Y-86707634D01*
X158474667Y-86616472D01*
X158483530Y-86612801D01*
X158593663Y-86381165D01*
X157860000Y-85647502D01*
X157126337Y-86381165D01*
X155627000Y-86381165D01*
X155627000Y-85115204D01*
X156242217Y-85115204D01*
X156272366Y-85430910D01*
X156363528Y-85734667D01*
X156367199Y-85743530D01*
X156598835Y-85853663D01*
X157332498Y-85120000D01*
X158387502Y-85120000D01*
X159121165Y-85853663D01*
X159352801Y-85743530D01*
X159445762Y-85440318D01*
X159477783Y-85124796D01*
X159447634Y-84809090D01*
X159394465Y-84631926D01*
X166395576Y-84631926D01*
X166483059Y-84846094D01*
X166755602Y-84921080D01*
X167037537Y-84941454D01*
X167318030Y-84906434D01*
X167516941Y-84846094D01*
X167604424Y-84631926D01*
X167000000Y-84027502D01*
X166395576Y-84631926D01*
X159394465Y-84631926D01*
X159356472Y-84505333D01*
X159352801Y-84496470D01*
X159121165Y-84386337D01*
X158387502Y-85120000D01*
X157332498Y-85120000D01*
X156598835Y-84386337D01*
X156367199Y-84496470D01*
X156274238Y-84799682D01*
X156242217Y-85115204D01*
X155627000Y-85115204D01*
X155627000Y-83858835D01*
X157126337Y-83858835D01*
X157860000Y-84592498D01*
X158593663Y-83858835D01*
X158483530Y-83627199D01*
X158180318Y-83534238D01*
X157864796Y-83502217D01*
X157549090Y-83532366D01*
X157245333Y-83623528D01*
X157236470Y-83627199D01*
X157126337Y-83858835D01*
X155627000Y-83858835D01*
X155627000Y-82627000D01*
X165654767Y-82627000D01*
X165669463Y-82654494D01*
X165731530Y-82730123D01*
X165717074Y-82744579D01*
X165868072Y-82895577D01*
X165653906Y-82983059D01*
X165578920Y-83255602D01*
X165558546Y-83537537D01*
X165593566Y-83818030D01*
X165653906Y-84016941D01*
X165868074Y-84104424D01*
X166472498Y-83500000D01*
X166458356Y-83485858D01*
X166985858Y-82958356D01*
X167000000Y-82972498D01*
X167014142Y-82958356D01*
X167541644Y-83485858D01*
X167527502Y-83500000D01*
X168131926Y-84104424D01*
X168346094Y-84016941D01*
X168421080Y-83744398D01*
X168441454Y-83462463D01*
X168406434Y-83181970D01*
X168346094Y-82983059D01*
X168131928Y-82895577D01*
X168282926Y-82744579D01*
X168268470Y-82730123D01*
X168330537Y-82654494D01*
X168345233Y-82627000D01*
X173000942Y-82627000D01*
X173025718Y-82624560D01*
X173057781Y-82613571D01*
X174056839Y-82113571D01*
X174077903Y-82100300D01*
X174095974Y-82083174D01*
X174110356Y-82062853D01*
X174120498Y-82040115D01*
X174126009Y-82015837D01*
X174127000Y-82000000D01*
X174127000Y-80127000D01*
X175285501Y-80127000D01*
X175285500Y-84966964D01*
G37*
X175285500Y-84966964D02*
X175282059Y-85001900D01*
X175295791Y-85141320D01*
X175336458Y-85275381D01*
X175402498Y-85398933D01*
X175491373Y-85507227D01*
X175599667Y-85596102D01*
X175723219Y-85662142D01*
X175857280Y-85702809D01*
X175996700Y-85716541D01*
X176031636Y-85713100D01*
X176595332Y-85713100D01*
X176595332Y-87873000D01*
X155627000Y-87873000D01*
X155627000Y-86381165D01*
X157126337Y-86381165D01*
X157236470Y-86612801D01*
X157539682Y-86705762D01*
X157855204Y-86737783D01*
X158170910Y-86707634D01*
X158474667Y-86616472D01*
X158483530Y-86612801D01*
X158593663Y-86381165D01*
X157860000Y-85647502D01*
X157126337Y-86381165D01*
X155627000Y-86381165D01*
X155627000Y-85115204D01*
X156242217Y-85115204D01*
X156272366Y-85430910D01*
X156363528Y-85734667D01*
X156367199Y-85743530D01*
X156598835Y-85853663D01*
X157332498Y-85120000D01*
X158387502Y-85120000D01*
X159121165Y-85853663D01*
X159352801Y-85743530D01*
X159445762Y-85440318D01*
X159477783Y-85124796D01*
X159447634Y-84809090D01*
X159394465Y-84631926D01*
X166395576Y-84631926D01*
X166483059Y-84846094D01*
X166755602Y-84921080D01*
X167037537Y-84941454D01*
X167318030Y-84906434D01*
X167516941Y-84846094D01*
X167604424Y-84631926D01*
X167000000Y-84027502D01*
X166395576Y-84631926D01*
X159394465Y-84631926D01*
X159356472Y-84505333D01*
X159352801Y-84496470D01*
X159121165Y-84386337D01*
X158387502Y-85120000D01*
X157332498Y-85120000D01*
X156598835Y-84386337D01*
X156367199Y-84496470D01*
X156274238Y-84799682D01*
X156242217Y-85115204D01*
X155627000Y-85115204D01*
X155627000Y-83858835D01*
X157126337Y-83858835D01*
X157860000Y-84592498D01*
X158593663Y-83858835D01*
X158483530Y-83627199D01*
X158180318Y-83534238D01*
X157864796Y-83502217D01*
X157549090Y-83532366D01*
X157245333Y-83623528D01*
X157236470Y-83627199D01*
X157126337Y-83858835D01*
X155627000Y-83858835D01*
X155627000Y-82627000D01*
X165654767Y-82627000D01*
X165669463Y-82654494D01*
X165731530Y-82730123D01*
X165717074Y-82744579D01*
X165868072Y-82895577D01*
X165653906Y-82983059D01*
X165578920Y-83255602D01*
X165558546Y-83537537D01*
X165593566Y-83818030D01*
X165653906Y-84016941D01*
X165868074Y-84104424D01*
X166472498Y-83500000D01*
X166458356Y-83485858D01*
X166985858Y-82958356D01*
X167000000Y-82972498D01*
X167014142Y-82958356D01*
X167541644Y-83485858D01*
X167527502Y-83500000D01*
X168131926Y-84104424D01*
X168346094Y-84016941D01*
X168421080Y-83744398D01*
X168441454Y-83462463D01*
X168406434Y-83181970D01*
X168346094Y-82983059D01*
X168131928Y-82895577D01*
X168282926Y-82744579D01*
X168268470Y-82730123D01*
X168330537Y-82654494D01*
X168345233Y-82627000D01*
X173000942Y-82627000D01*
X173025718Y-82624560D01*
X173057781Y-82613571D01*
X174056839Y-82113571D01*
X174077903Y-82100300D01*
X174095974Y-82083174D01*
X174110356Y-82062853D01*
X174120498Y-82040115D01*
X174126009Y-82015837D01*
X174127000Y-82000000D01*
X174127000Y-80127000D01*
X175285501Y-80127000D01*
X175285500Y-84966964D01*
G36*
X180373000Y-82000000D02*
G01*
X180375440Y-82024776D01*
X180382667Y-82048601D01*
X180394403Y-82070557D01*
X180410197Y-82089803D01*
X181410197Y-83089803D01*
X181429443Y-83105597D01*
X181451399Y-83117333D01*
X181475224Y-83124560D01*
X181500000Y-83127000D01*
X185114303Y-83127000D01*
X185078920Y-83255602D01*
X185058546Y-83537537D01*
X185093566Y-83818030D01*
X185153906Y-84016941D01*
X185368074Y-84104424D01*
X185972498Y-83500000D01*
X185958356Y-83485858D01*
X186317214Y-83127000D01*
X186682786Y-83127000D01*
X187041644Y-83485858D01*
X187027502Y-83500000D01*
X187041644Y-83514142D01*
X186514142Y-84041644D01*
X186500000Y-84027502D01*
X185895576Y-84631926D01*
X185983059Y-84846094D01*
X186255602Y-84921080D01*
X186537537Y-84941454D01*
X186818030Y-84906434D01*
X187016941Y-84846094D01*
X187104423Y-84631928D01*
X187255421Y-84782926D01*
X187373000Y-84665347D01*
X187373000Y-84947394D01*
X185410197Y-86910197D01*
X185394403Y-86929443D01*
X185382667Y-86951399D01*
X185375440Y-86975224D01*
X185373000Y-87000000D01*
X185373000Y-92873000D01*
X182127000Y-92873000D01*
X182127000Y-90000000D01*
X182124560Y-89975224D01*
X182117333Y-89951399D01*
X182105597Y-89929443D01*
X182089803Y-89910197D01*
X180089803Y-87910197D01*
X180070557Y-87894403D01*
X180048601Y-87882667D01*
X180024776Y-87875440D01*
X180000000Y-87873000D01*
X177627000Y-87873000D01*
X177627000Y-85713100D01*
X177968364Y-85713100D01*
X178003300Y-85716541D01*
X178038236Y-85713100D01*
X178142720Y-85702809D01*
X178276781Y-85662142D01*
X178400333Y-85596102D01*
X178508627Y-85507227D01*
X178597502Y-85398933D01*
X178663542Y-85275381D01*
X178704209Y-85141320D01*
X178717941Y-85001900D01*
X178714500Y-84966964D01*
X178714500Y-80127000D01*
X180373000Y-80127000D01*
X180373000Y-82000000D01*
G37*
X180373000Y-82000000D02*
X180375440Y-82024776D01*
X180382667Y-82048601D01*
X180394403Y-82070557D01*
X180410197Y-82089803D01*
X181410197Y-83089803D01*
X181429443Y-83105597D01*
X181451399Y-83117333D01*
X181475224Y-83124560D01*
X181500000Y-83127000D01*
X185114303Y-83127000D01*
X185078920Y-83255602D01*
X185058546Y-83537537D01*
X185093566Y-83818030D01*
X185153906Y-84016941D01*
X185368074Y-84104424D01*
X185972498Y-83500000D01*
X185958356Y-83485858D01*
X186317214Y-83127000D01*
X186682786Y-83127000D01*
X187041644Y-83485858D01*
X187027502Y-83500000D01*
X187041644Y-83514142D01*
X186514142Y-84041644D01*
X186500000Y-84027502D01*
X185895576Y-84631926D01*
X185983059Y-84846094D01*
X186255602Y-84921080D01*
X186537537Y-84941454D01*
X186818030Y-84906434D01*
X187016941Y-84846094D01*
X187104423Y-84631928D01*
X187255421Y-84782926D01*
X187373000Y-84665347D01*
X187373000Y-84947394D01*
X185410197Y-86910197D01*
X185394403Y-86929443D01*
X185382667Y-86951399D01*
X185375440Y-86975224D01*
X185373000Y-87000000D01*
X185373000Y-92873000D01*
X182127000Y-92873000D01*
X182127000Y-90000000D01*
X182124560Y-89975224D01*
X182117333Y-89951399D01*
X182105597Y-89929443D01*
X182089803Y-89910197D01*
X180089803Y-87910197D01*
X180070557Y-87894403D01*
X180048601Y-87882667D01*
X180024776Y-87875440D01*
X180000000Y-87873000D01*
X177627000Y-87873000D01*
X177627000Y-85713100D01*
X177968364Y-85713100D01*
X178003300Y-85716541D01*
X178038236Y-85713100D01*
X178142720Y-85702809D01*
X178276781Y-85662142D01*
X178400333Y-85596102D01*
X178508627Y-85507227D01*
X178597502Y-85398933D01*
X178663542Y-85275381D01*
X178704209Y-85141320D01*
X178717941Y-85001900D01*
X178714500Y-84966964D01*
X178714500Y-80127000D01*
X180373000Y-80127000D01*
X180373000Y-82000000D01*
G36*
X165410197Y-106589803D02*
G01*
X165429443Y-106605597D01*
X165451399Y-106617333D01*
X165475224Y-106624560D01*
X165500000Y-106627000D01*
X176373000Y-106627000D01*
X176373000Y-111286900D01*
X176031636Y-111286900D01*
X175996700Y-111283459D01*
X175961764Y-111286900D01*
X175857280Y-111297191D01*
X175723219Y-111337858D01*
X175599667Y-111403898D01*
X175491373Y-111492773D01*
X175402498Y-111601067D01*
X175336458Y-111724619D01*
X175295791Y-111858680D01*
X175282059Y-111998100D01*
X175285501Y-112033046D01*
X175285500Y-116373000D01*
X174127000Y-116373000D01*
X174127000Y-114500000D01*
X174124560Y-114475224D01*
X174117333Y-114451399D01*
X174105597Y-114429443D01*
X174089803Y-114410197D01*
X174070557Y-114394403D01*
X174048601Y-114382667D01*
X174024776Y-114375440D01*
X174000000Y-114373000D01*
X168430882Y-114373000D01*
X168438072Y-114300000D01*
X168435000Y-114031750D01*
X168276250Y-113873000D01*
X167373000Y-113873000D01*
X167373000Y-113893000D01*
X166627000Y-113893000D01*
X166627000Y-113873000D01*
X165723750Y-113873000D01*
X165565000Y-114031750D01*
X165561928Y-114300000D01*
X165569118Y-114373000D01*
X165052606Y-114373000D01*
X163379606Y-112700000D01*
X165561928Y-112700000D01*
X165565000Y-112968250D01*
X165723750Y-113127000D01*
X166627000Y-113127000D01*
X166627000Y-112223750D01*
X167373000Y-112223750D01*
X167373000Y-113127000D01*
X168276250Y-113127000D01*
X168435000Y-112968250D01*
X168438072Y-112700000D01*
X168425812Y-112575518D01*
X168389502Y-112455820D01*
X168330537Y-112345506D01*
X168251185Y-112248815D01*
X168154494Y-112169463D01*
X168044180Y-112110498D01*
X167924482Y-112074188D01*
X167800000Y-112061928D01*
X167531750Y-112065000D01*
X167373000Y-112223750D01*
X166627000Y-112223750D01*
X166468250Y-112065000D01*
X166200000Y-112061928D01*
X166075518Y-112074188D01*
X165955820Y-112110498D01*
X165845506Y-112169463D01*
X165748815Y-112248815D01*
X165669463Y-112345506D01*
X165610498Y-112455820D01*
X165574188Y-112575518D01*
X165561928Y-112700000D01*
X163379606Y-112700000D01*
X155627000Y-104947394D01*
X155627000Y-102092111D01*
X157515390Y-102092111D01*
X157576064Y-102286790D01*
X157813215Y-102341032D01*
X158056389Y-102347965D01*
X158296245Y-102307324D01*
X158363936Y-102286790D01*
X158424610Y-102092111D01*
X157970000Y-101637502D01*
X157515390Y-102092111D01*
X155627000Y-102092111D01*
X155627000Y-101196389D01*
X156732035Y-101196389D01*
X156772676Y-101436245D01*
X156793210Y-101503936D01*
X156987889Y-101564610D01*
X157442498Y-101110000D01*
X158497502Y-101110000D01*
X158952111Y-101564610D01*
X159146790Y-101503936D01*
X159201032Y-101266785D01*
X159207965Y-101023611D01*
X159167324Y-100783755D01*
X159146790Y-100716064D01*
X158952111Y-100655390D01*
X158497502Y-101110000D01*
X157442498Y-101110000D01*
X156987889Y-100655390D01*
X156793210Y-100716064D01*
X156738968Y-100953215D01*
X156732035Y-101196389D01*
X155627000Y-101196389D01*
X155627000Y-100127889D01*
X157515390Y-100127889D01*
X157970000Y-100582498D01*
X158424610Y-100127889D01*
X158363936Y-99933210D01*
X158126785Y-99878968D01*
X157883611Y-99872035D01*
X157643755Y-99912676D01*
X157576064Y-99933210D01*
X157515390Y-100127889D01*
X155627000Y-100127889D01*
X155627000Y-99627000D01*
X158447394Y-99627000D01*
X165410197Y-106589803D01*
G37*
X165410197Y-106589803D02*
X165429443Y-106605597D01*
X165451399Y-106617333D01*
X165475224Y-106624560D01*
X165500000Y-106627000D01*
X176373000Y-106627000D01*
X176373000Y-111286900D01*
X176031636Y-111286900D01*
X175996700Y-111283459D01*
X175961764Y-111286900D01*
X175857280Y-111297191D01*
X175723219Y-111337858D01*
X175599667Y-111403898D01*
X175491373Y-111492773D01*
X175402498Y-111601067D01*
X175336458Y-111724619D01*
X175295791Y-111858680D01*
X175282059Y-111998100D01*
X175285501Y-112033046D01*
X175285500Y-116373000D01*
X174127000Y-116373000D01*
X174127000Y-114500000D01*
X174124560Y-114475224D01*
X174117333Y-114451399D01*
X174105597Y-114429443D01*
X174089803Y-114410197D01*
X174070557Y-114394403D01*
X174048601Y-114382667D01*
X174024776Y-114375440D01*
X174000000Y-114373000D01*
X168430882Y-114373000D01*
X168438072Y-114300000D01*
X168435000Y-114031750D01*
X168276250Y-113873000D01*
X167373000Y-113873000D01*
X167373000Y-113893000D01*
X166627000Y-113893000D01*
X166627000Y-113873000D01*
X165723750Y-113873000D01*
X165565000Y-114031750D01*
X165561928Y-114300000D01*
X165569118Y-114373000D01*
X165052606Y-114373000D01*
X163379606Y-112700000D01*
X165561928Y-112700000D01*
X165565000Y-112968250D01*
X165723750Y-113127000D01*
X166627000Y-113127000D01*
X166627000Y-112223750D01*
X167373000Y-112223750D01*
X167373000Y-113127000D01*
X168276250Y-113127000D01*
X168435000Y-112968250D01*
X168438072Y-112700000D01*
X168425812Y-112575518D01*
X168389502Y-112455820D01*
X168330537Y-112345506D01*
X168251185Y-112248815D01*
X168154494Y-112169463D01*
X168044180Y-112110498D01*
X167924482Y-112074188D01*
X167800000Y-112061928D01*
X167531750Y-112065000D01*
X167373000Y-112223750D01*
X166627000Y-112223750D01*
X166468250Y-112065000D01*
X166200000Y-112061928D01*
X166075518Y-112074188D01*
X165955820Y-112110498D01*
X165845506Y-112169463D01*
X165748815Y-112248815D01*
X165669463Y-112345506D01*
X165610498Y-112455820D01*
X165574188Y-112575518D01*
X165561928Y-112700000D01*
X163379606Y-112700000D01*
X155627000Y-104947394D01*
X155627000Y-102092111D01*
X157515390Y-102092111D01*
X157576064Y-102286790D01*
X157813215Y-102341032D01*
X158056389Y-102347965D01*
X158296245Y-102307324D01*
X158363936Y-102286790D01*
X158424610Y-102092111D01*
X157970000Y-101637502D01*
X157515390Y-102092111D01*
X155627000Y-102092111D01*
X155627000Y-101196389D01*
X156732035Y-101196389D01*
X156772676Y-101436245D01*
X156793210Y-101503936D01*
X156987889Y-101564610D01*
X157442498Y-101110000D01*
X158497502Y-101110000D01*
X158952111Y-101564610D01*
X159146790Y-101503936D01*
X159201032Y-101266785D01*
X159207965Y-101023611D01*
X159167324Y-100783755D01*
X159146790Y-100716064D01*
X158952111Y-100655390D01*
X158497502Y-101110000D01*
X157442498Y-101110000D01*
X156987889Y-100655390D01*
X156793210Y-100716064D01*
X156738968Y-100953215D01*
X156732035Y-101196389D01*
X155627000Y-101196389D01*
X155627000Y-100127889D01*
X157515390Y-100127889D01*
X157970000Y-100582498D01*
X158424610Y-100127889D01*
X158363936Y-99933210D01*
X158126785Y-99878968D01*
X157883611Y-99872035D01*
X157643755Y-99912676D01*
X157576064Y-99933210D01*
X157515390Y-100127889D01*
X155627000Y-100127889D01*
X155627000Y-99627000D01*
X158447394Y-99627000D01*
X165410197Y-106589803D01*
G36*
X185373000Y-111000000D02*
G01*
X185375440Y-111024776D01*
X185382667Y-111048601D01*
X185394403Y-111070557D01*
X185410197Y-111089803D01*
X186385394Y-112065000D01*
X186126998Y-112065000D01*
X186126998Y-112223748D01*
X185968250Y-112065000D01*
X185700000Y-112061928D01*
X185575518Y-112074188D01*
X185455820Y-112110498D01*
X185345506Y-112169463D01*
X185248815Y-112248815D01*
X185169463Y-112345506D01*
X185110498Y-112455820D01*
X185074188Y-112575518D01*
X185061928Y-112700000D01*
X185065000Y-112968250D01*
X185223750Y-113127000D01*
X186127000Y-113127000D01*
X186127000Y-113107000D01*
X186873000Y-113107000D01*
X186873000Y-113127000D01*
X186893000Y-113127000D01*
X186893000Y-113873000D01*
X186873000Y-113873000D01*
X186873000Y-113893000D01*
X186127000Y-113893000D01*
X186127000Y-113873000D01*
X185223750Y-113873000D01*
X185065000Y-114031750D01*
X185061928Y-114300000D01*
X185069118Y-114373000D01*
X181500000Y-114373000D01*
X181475224Y-114375440D01*
X181451399Y-114382667D01*
X181429443Y-114394403D01*
X181410197Y-114410197D01*
X181151012Y-114669382D01*
X181035150Y-114704528D01*
X180881614Y-114786595D01*
X180747038Y-114897038D01*
X180636595Y-115031614D01*
X180554528Y-115185150D01*
X180519382Y-115301012D01*
X180447394Y-115373000D01*
X179500000Y-115373000D01*
X179475224Y-115375440D01*
X179451399Y-115382667D01*
X179429443Y-115394403D01*
X179410197Y-115410197D01*
X179394403Y-115429443D01*
X179382667Y-115451399D01*
X179375440Y-115475224D01*
X179373000Y-115500000D01*
X179373000Y-116873000D01*
X178714500Y-116873000D01*
X178714500Y-112033036D01*
X178717941Y-111998100D01*
X178704209Y-111858680D01*
X178663542Y-111724619D01*
X178597502Y-111601067D01*
X178508627Y-111492773D01*
X178400333Y-111403898D01*
X178276781Y-111337858D01*
X178142720Y-111297191D01*
X178038236Y-111286900D01*
X178003300Y-111283459D01*
X177968364Y-111286900D01*
X177627000Y-111286900D01*
X177627000Y-108552606D01*
X182089803Y-104089803D01*
X182105597Y-104070557D01*
X182117333Y-104048601D01*
X182124560Y-104024776D01*
X182127000Y-104000000D01*
X182127000Y-100627000D01*
X185373000Y-100627000D01*
X185373000Y-111000000D01*
G37*
X185373000Y-111000000D02*
X185375440Y-111024776D01*
X185382667Y-111048601D01*
X185394403Y-111070557D01*
X185410197Y-111089803D01*
X186385394Y-112065000D01*
X186126998Y-112065000D01*
X186126998Y-112223748D01*
X185968250Y-112065000D01*
X185700000Y-112061928D01*
X185575518Y-112074188D01*
X185455820Y-112110498D01*
X185345506Y-112169463D01*
X185248815Y-112248815D01*
X185169463Y-112345506D01*
X185110498Y-112455820D01*
X185074188Y-112575518D01*
X185061928Y-112700000D01*
X185065000Y-112968250D01*
X185223750Y-113127000D01*
X186127000Y-113127000D01*
X186127000Y-113107000D01*
X186873000Y-113107000D01*
X186873000Y-113127000D01*
X186893000Y-113127000D01*
X186893000Y-113873000D01*
X186873000Y-113873000D01*
X186873000Y-113893000D01*
X186127000Y-113893000D01*
X186127000Y-113873000D01*
X185223750Y-113873000D01*
X185065000Y-114031750D01*
X185061928Y-114300000D01*
X185069118Y-114373000D01*
X181500000Y-114373000D01*
X181475224Y-114375440D01*
X181451399Y-114382667D01*
X181429443Y-114394403D01*
X181410197Y-114410197D01*
X181151012Y-114669382D01*
X181035150Y-114704528D01*
X180881614Y-114786595D01*
X180747038Y-114897038D01*
X180636595Y-115031614D01*
X180554528Y-115185150D01*
X180519382Y-115301012D01*
X180447394Y-115373000D01*
X179500000Y-115373000D01*
X179475224Y-115375440D01*
X179451399Y-115382667D01*
X179429443Y-115394403D01*
X179410197Y-115410197D01*
X179394403Y-115429443D01*
X179382667Y-115451399D01*
X179375440Y-115475224D01*
X179373000Y-115500000D01*
X179373000Y-116873000D01*
X178714500Y-116873000D01*
X178714500Y-112033036D01*
X178717941Y-111998100D01*
X178704209Y-111858680D01*
X178663542Y-111724619D01*
X178597502Y-111601067D01*
X178508627Y-111492773D01*
X178400333Y-111403898D01*
X178276781Y-111337858D01*
X178142720Y-111297191D01*
X178038236Y-111286900D01*
X178003300Y-111283459D01*
X177968364Y-111286900D01*
X177627000Y-111286900D01*
X177627000Y-108552606D01*
X182089803Y-104089803D01*
X182105597Y-104070557D01*
X182117333Y-104048601D01*
X182124560Y-104024776D01*
X182127000Y-104000000D01*
X182127000Y-100627000D01*
X185373000Y-100627000D01*
X185373000Y-111000000D01*
G36*
X189170189Y-52644376D02*
G01*
X189315000Y-52688304D01*
X189315001Y-127311696D01*
X189170189Y-127355624D01*
X188993766Y-127373000D01*
X153506234Y-127373000D01*
X153329811Y-127355624D01*
X153166150Y-127305978D01*
X153015328Y-127225362D01*
X152883130Y-127116870D01*
X152774638Y-126984672D01*
X152694022Y-126833850D01*
X152644376Y-126670189D01*
X152627000Y-126493766D01*
X152627000Y-117332111D01*
X157515390Y-117332111D01*
X157576064Y-117526790D01*
X157813215Y-117581032D01*
X158056389Y-117587965D01*
X158296245Y-117547324D01*
X158363936Y-117526790D01*
X158424610Y-117332111D01*
X157970000Y-116877502D01*
X157515390Y-117332111D01*
X152627000Y-117332111D01*
X152627000Y-116436389D01*
X156732035Y-116436389D01*
X156772676Y-116676245D01*
X156793210Y-116743936D01*
X156987889Y-116804610D01*
X157442498Y-116350000D01*
X158497502Y-116350000D01*
X158952111Y-116804610D01*
X159146790Y-116743936D01*
X159172409Y-116631926D01*
X166395576Y-116631926D01*
X166483059Y-116846094D01*
X166755602Y-116921080D01*
X167037537Y-116941454D01*
X167318030Y-116906434D01*
X167516941Y-116846094D01*
X167604424Y-116631926D01*
X167000000Y-116027502D01*
X166395576Y-116631926D01*
X159172409Y-116631926D01*
X159201032Y-116506785D01*
X159207965Y-116263611D01*
X159167324Y-116023755D01*
X159146790Y-115956064D01*
X158952111Y-115895390D01*
X158497502Y-116350000D01*
X157442498Y-116350000D01*
X156987889Y-115895390D01*
X156793210Y-115956064D01*
X156738968Y-116193215D01*
X156732035Y-116436389D01*
X152627000Y-116436389D01*
X152627000Y-115367889D01*
X157515390Y-115367889D01*
X157970000Y-115822498D01*
X158424610Y-115367889D01*
X158363936Y-115173210D01*
X158126785Y-115118968D01*
X157883611Y-115112035D01*
X157643755Y-115152676D01*
X157576064Y-115173210D01*
X157515390Y-115367889D01*
X152627000Y-115367889D01*
X152627000Y-99500000D01*
X154865000Y-99500000D01*
X154865000Y-105000000D01*
X154877201Y-105123882D01*
X154913336Y-105243004D01*
X154972017Y-105352787D01*
X155050987Y-105449013D01*
X164550987Y-114949013D01*
X164647213Y-115027983D01*
X164756996Y-115086664D01*
X164876118Y-115122799D01*
X165000000Y-115135000D01*
X165612102Y-115135000D01*
X165578920Y-115255602D01*
X165558546Y-115537537D01*
X165593566Y-115818030D01*
X165653906Y-116016941D01*
X165868074Y-116104424D01*
X166472498Y-115500000D01*
X166458356Y-115485858D01*
X166809214Y-115135000D01*
X167190786Y-115135000D01*
X167541644Y-115485858D01*
X167527502Y-115500000D01*
X168131926Y-116104424D01*
X168346094Y-116016941D01*
X168421080Y-115744398D01*
X168441454Y-115462463D01*
X168406434Y-115181970D01*
X168392186Y-115135000D01*
X173365000Y-115135000D01*
X173365000Y-116500000D01*
X173377201Y-116623882D01*
X173413336Y-116743004D01*
X173472017Y-116852787D01*
X173550987Y-116949013D01*
X173647213Y-117027983D01*
X173756996Y-117086664D01*
X173876118Y-117122799D01*
X174000000Y-117135000D01*
X175295169Y-117135000D01*
X175295791Y-117141320D01*
X175336458Y-117275381D01*
X175402498Y-117398933D01*
X175491373Y-117507227D01*
X175581304Y-117581032D01*
X175599667Y-117596102D01*
X175723219Y-117662142D01*
X175857280Y-117702809D01*
X175996700Y-117716541D01*
X176031636Y-117713100D01*
X177968364Y-117713100D01*
X178003300Y-117716541D01*
X178038236Y-117713100D01*
X178142720Y-117702809D01*
X178276781Y-117662142D01*
X178327560Y-117635000D01*
X179500000Y-117635000D01*
X179623882Y-117622799D01*
X179743004Y-117586664D01*
X179852787Y-117527983D01*
X179949013Y-117449013D01*
X180027983Y-117352787D01*
X180086664Y-117243004D01*
X180122799Y-117123882D01*
X180135000Y-117000000D01*
X180135000Y-116751554D01*
X180142202Y-116738080D01*
X180174403Y-116631926D01*
X185895576Y-116631926D01*
X185983059Y-116846094D01*
X186255602Y-116921080D01*
X186537537Y-116941454D01*
X186818030Y-116906434D01*
X187016941Y-116846094D01*
X187104424Y-116631926D01*
X186500000Y-116027502D01*
X185895576Y-116631926D01*
X180174403Y-116631926D01*
X180178512Y-116618382D01*
X180190772Y-116493900D01*
X180190772Y-116135000D01*
X180500000Y-116135000D01*
X180623882Y-116122799D01*
X180743004Y-116086664D01*
X180852787Y-116027983D01*
X180949013Y-115949013D01*
X181763026Y-115135000D01*
X185112102Y-115135000D01*
X185078920Y-115255602D01*
X185058546Y-115537537D01*
X185093566Y-115818030D01*
X185153906Y-116016941D01*
X185368074Y-116104424D01*
X185972498Y-115500000D01*
X185958356Y-115485858D01*
X186309214Y-115135000D01*
X186690786Y-115135000D01*
X187041644Y-115485858D01*
X187027502Y-115500000D01*
X187631926Y-116104424D01*
X187846094Y-116016941D01*
X187921080Y-115744398D01*
X187941454Y-115462463D01*
X187906434Y-115181970D01*
X187858339Y-115023426D01*
X187949013Y-114949013D01*
X188027983Y-114852787D01*
X188086664Y-114743004D01*
X188122799Y-114623882D01*
X188135000Y-114500000D01*
X188135000Y-113000000D01*
X188122799Y-112876118D01*
X188086664Y-112756996D01*
X188027983Y-112647213D01*
X187949013Y-112550987D01*
X187905028Y-112507002D01*
X187889502Y-112455820D01*
X187830537Y-112345506D01*
X187751185Y-112248815D01*
X187654494Y-112169463D01*
X187544180Y-112110498D01*
X187492998Y-112094972D01*
X186135000Y-110736974D01*
X186135000Y-100500000D01*
X186122799Y-100376118D01*
X186086664Y-100256996D01*
X186027983Y-100147213D01*
X185949013Y-100050987D01*
X185852787Y-99972017D01*
X185743004Y-99913336D01*
X185623882Y-99877201D01*
X185500000Y-99865000D01*
X182000000Y-99865000D01*
X181876118Y-99877201D01*
X181756996Y-99913336D01*
X181647213Y-99972017D01*
X181550987Y-100050987D01*
X181472017Y-100147213D01*
X181413336Y-100256996D01*
X181377201Y-100376118D01*
X181365000Y-100500000D01*
X181365000Y-100542667D01*
X181354463Y-100555506D01*
X181295498Y-100665820D01*
X181259188Y-100785518D01*
X181246928Y-100910000D01*
X181246928Y-103855046D01*
X177135000Y-107966974D01*
X177135000Y-106500000D01*
X177122799Y-106376118D01*
X177086664Y-106256996D01*
X177027983Y-106147213D01*
X176949013Y-106050987D01*
X176852787Y-105972017D01*
X176743004Y-105913336D01*
X176623882Y-105877201D01*
X176500000Y-105865000D01*
X168374205Y-105865000D01*
X168721695Y-105721065D01*
X169317012Y-105323287D01*
X169823287Y-104817012D01*
X169944903Y-104635000D01*
X173607564Y-104635000D01*
X173690820Y-104679502D01*
X173810518Y-104715812D01*
X173935000Y-104728072D01*
X177115000Y-104728072D01*
X177239482Y-104715812D01*
X177359180Y-104679502D01*
X177469494Y-104620537D01*
X177566185Y-104541185D01*
X177645537Y-104444494D01*
X177704502Y-104334180D01*
X177740812Y-104214482D01*
X177753072Y-104090000D01*
X177753072Y-100910000D01*
X177740812Y-100785518D01*
X177704502Y-100665820D01*
X177645537Y-100555506D01*
X177566185Y-100458815D01*
X177469494Y-100379463D01*
X177359180Y-100320498D01*
X177239482Y-100284188D01*
X177115000Y-100271928D01*
X173935000Y-100271928D01*
X173810518Y-100284188D01*
X173690820Y-100320498D01*
X173607564Y-100365000D01*
X169944903Y-100365000D01*
X169823287Y-100182988D01*
X169317012Y-99676713D01*
X168721695Y-99278935D01*
X168060215Y-99004941D01*
X167357991Y-98865260D01*
X166642009Y-98865260D01*
X165939785Y-99004941D01*
X165278305Y-99278935D01*
X164682988Y-99676713D01*
X164176713Y-100182988D01*
X163778935Y-100778305D01*
X163504941Y-101439785D01*
X163365260Y-102142009D01*
X163365260Y-102857991D01*
X163504941Y-103560215D01*
X163537963Y-103639937D01*
X158949013Y-99050987D01*
X158852787Y-98972017D01*
X158743004Y-98913336D01*
X158623882Y-98877201D01*
X158500000Y-98865000D01*
X155500000Y-98865000D01*
X155376118Y-98877201D01*
X155256996Y-98913336D01*
X155147213Y-98972017D01*
X155050987Y-99050987D01*
X154972017Y-99147213D01*
X154913336Y-99256996D01*
X154877201Y-99376118D01*
X154865000Y-99500000D01*
X152627000Y-99500000D01*
X152627000Y-82500000D01*
X154865000Y-82500000D01*
X154865000Y-88000000D01*
X154877201Y-88123882D01*
X154913336Y-88243004D01*
X154972017Y-88352787D01*
X155050987Y-88449013D01*
X155147213Y-88527983D01*
X155256996Y-88586664D01*
X155376118Y-88622799D01*
X155500000Y-88635000D01*
X165625795Y-88635000D01*
X165278305Y-88778935D01*
X164682988Y-89176713D01*
X164176713Y-89682988D01*
X163778935Y-90278305D01*
X163504941Y-90939785D01*
X163365260Y-91642009D01*
X163365260Y-92357991D01*
X163504941Y-93060215D01*
X163778935Y-93721695D01*
X164176713Y-94317012D01*
X164682988Y-94823287D01*
X165278305Y-95221065D01*
X165939785Y-95495059D01*
X166642009Y-95634740D01*
X167357991Y-95634740D01*
X168060215Y-95495059D01*
X168721695Y-95221065D01*
X169317012Y-94823287D01*
X169823287Y-94317012D01*
X169944903Y-94135000D01*
X173607564Y-94135000D01*
X173690820Y-94179502D01*
X173810518Y-94215812D01*
X173935000Y-94228072D01*
X177115000Y-94228072D01*
X177239482Y-94215812D01*
X177359180Y-94179502D01*
X177469494Y-94120537D01*
X177566185Y-94041185D01*
X177645537Y-93944494D01*
X177704502Y-93834180D01*
X177740812Y-93714482D01*
X177753072Y-93590000D01*
X177753072Y-90410000D01*
X177740812Y-90285518D01*
X177704502Y-90165820D01*
X177645537Y-90055506D01*
X177566185Y-89958815D01*
X177469494Y-89879463D01*
X177359180Y-89820498D01*
X177239482Y-89784188D01*
X177115000Y-89771928D01*
X173935000Y-89771928D01*
X173810518Y-89784188D01*
X173690820Y-89820498D01*
X173607564Y-89865000D01*
X169944903Y-89865000D01*
X169823287Y-89682988D01*
X169317012Y-89176713D01*
X168721695Y-88778935D01*
X168374205Y-88635000D01*
X175091539Y-88635000D01*
X175156613Y-88688405D01*
X175310149Y-88770472D01*
X175476745Y-88821008D01*
X175649999Y-88838072D01*
X176300001Y-88838072D01*
X176473255Y-88821008D01*
X176639851Y-88770472D01*
X176793387Y-88688405D01*
X176889227Y-88609751D01*
X176965336Y-88586664D01*
X177044467Y-88544367D01*
X177072038Y-88577962D01*
X177206613Y-88688405D01*
X177360149Y-88770472D01*
X177526745Y-88821008D01*
X177699999Y-88838072D01*
X178350001Y-88838072D01*
X178523255Y-88821008D01*
X178689851Y-88770472D01*
X178843387Y-88688405D01*
X178908461Y-88635000D01*
X179736974Y-88635000D01*
X181289050Y-90187076D01*
X181259188Y-90285518D01*
X181246928Y-90410000D01*
X181246928Y-93590000D01*
X181259188Y-93714482D01*
X181295498Y-93834180D01*
X181354463Y-93944494D01*
X181433815Y-94041185D01*
X181530506Y-94120537D01*
X181640820Y-94179502D01*
X181760518Y-94215812D01*
X181885000Y-94228072D01*
X185065000Y-94228072D01*
X185189482Y-94215812D01*
X185309180Y-94179502D01*
X185419494Y-94120537D01*
X185516185Y-94041185D01*
X185595537Y-93944494D01*
X185654502Y-93834180D01*
X185690812Y-93714482D01*
X185702181Y-93599047D01*
X185743004Y-93586664D01*
X185852787Y-93527983D01*
X185949013Y-93449013D01*
X186027983Y-93352787D01*
X186086664Y-93243004D01*
X186122799Y-93123882D01*
X186135000Y-93000000D01*
X186135000Y-87263026D01*
X187949013Y-85449013D01*
X188027983Y-85352787D01*
X188086664Y-85243004D01*
X188122799Y-85123882D01*
X188135000Y-85000000D01*
X188135000Y-83000000D01*
X188122799Y-82876118D01*
X188086664Y-82756996D01*
X188027983Y-82647213D01*
X187949013Y-82550987D01*
X187899711Y-82510526D01*
X187925812Y-82424482D01*
X187938072Y-82300000D01*
X187935000Y-82031750D01*
X187776250Y-81873000D01*
X186873000Y-81873000D01*
X186873000Y-81893000D01*
X186127000Y-81893000D01*
X186127000Y-81873000D01*
X185223750Y-81873000D01*
X185065000Y-82031750D01*
X185061928Y-82300000D01*
X185068330Y-82365000D01*
X181763026Y-82365000D01*
X181135000Y-81736974D01*
X181135000Y-80700000D01*
X185061928Y-80700000D01*
X185065000Y-80968250D01*
X185223750Y-81127000D01*
X186127000Y-81127000D01*
X186127000Y-80223750D01*
X186873000Y-80223750D01*
X186873000Y-81127000D01*
X187776250Y-81127000D01*
X187935000Y-80968250D01*
X187938072Y-80700000D01*
X187925812Y-80575518D01*
X187889502Y-80455820D01*
X187830537Y-80345506D01*
X187751185Y-80248815D01*
X187654494Y-80169463D01*
X187544180Y-80110498D01*
X187424482Y-80074188D01*
X187300000Y-80061928D01*
X187031750Y-80065000D01*
X186873000Y-80223750D01*
X186127000Y-80223750D01*
X185968250Y-80065000D01*
X185700000Y-80061928D01*
X185575518Y-80074188D01*
X185455820Y-80110498D01*
X185345506Y-80169463D01*
X185248815Y-80248815D01*
X185169463Y-80345506D01*
X185110498Y-80455820D01*
X185074188Y-80575518D01*
X185061928Y-80700000D01*
X181135000Y-80700000D01*
X181135000Y-80000000D01*
X181122799Y-79876118D01*
X181086664Y-79756996D01*
X181027983Y-79647213D01*
X180949013Y-79550987D01*
X180852787Y-79472017D01*
X180743004Y-79413336D01*
X180623882Y-79377201D01*
X180500000Y-79365000D01*
X178327560Y-79365000D01*
X178276781Y-79337858D01*
X178142720Y-79297191D01*
X178038236Y-79286900D01*
X178003300Y-79283459D01*
X177968364Y-79286900D01*
X176031636Y-79286900D01*
X175996700Y-79283459D01*
X175961764Y-79286900D01*
X175857280Y-79297191D01*
X175723219Y-79337858D01*
X175672440Y-79365000D01*
X174000000Y-79365000D01*
X173876118Y-79377201D01*
X173756996Y-79413336D01*
X173647213Y-79472017D01*
X173550987Y-79550987D01*
X173472017Y-79647213D01*
X173413336Y-79756996D01*
X173377201Y-79876118D01*
X173365000Y-80000000D01*
X173365000Y-81607714D01*
X172850912Y-81865000D01*
X155500000Y-81865000D01*
X155376118Y-81877201D01*
X155256996Y-81913336D01*
X155147213Y-81972017D01*
X155050987Y-82050987D01*
X154972017Y-82147213D01*
X154913336Y-82256996D01*
X154877201Y-82376118D01*
X154865000Y-82500000D01*
X152627000Y-82500000D01*
X152627000Y-80700000D01*
X165561928Y-80700000D01*
X165565000Y-80968250D01*
X165723750Y-81127000D01*
X166627000Y-81127000D01*
X166627000Y-80223750D01*
X167373000Y-80223750D01*
X167373000Y-81127000D01*
X168276250Y-81127000D01*
X168435000Y-80968250D01*
X168438072Y-80700000D01*
X168425812Y-80575518D01*
X168389502Y-80455820D01*
X168330537Y-80345506D01*
X168251185Y-80248815D01*
X168154494Y-80169463D01*
X168044180Y-80110498D01*
X167924482Y-80074188D01*
X167800000Y-80061928D01*
X167531750Y-80065000D01*
X167373000Y-80223750D01*
X166627000Y-80223750D01*
X166468250Y-80065000D01*
X166200000Y-80061928D01*
X166075518Y-80074188D01*
X165955820Y-80110498D01*
X165845506Y-80169463D01*
X165748815Y-80248815D01*
X165669463Y-80345506D01*
X165610498Y-80455820D01*
X165574188Y-80575518D01*
X165561928Y-80700000D01*
X152627000Y-80700000D01*
X152627000Y-77219963D01*
X169807539Y-77219963D01*
X170166204Y-77658589D01*
X170817650Y-77955653D01*
X171514533Y-78119919D01*
X172230072Y-78145073D01*
X172936769Y-78030149D01*
X173607467Y-77779563D01*
X173833796Y-77658589D01*
X174192461Y-77219963D01*
X172000000Y-75027502D01*
X169807539Y-77219963D01*
X152627000Y-77219963D01*
X152627000Y-76221165D01*
X157126337Y-76221165D01*
X157236470Y-76452801D01*
X157539682Y-76545762D01*
X157855204Y-76577783D01*
X158170910Y-76547634D01*
X158474667Y-76456472D01*
X158483530Y-76452801D01*
X158593663Y-76221165D01*
X157860000Y-75487502D01*
X157126337Y-76221165D01*
X152627000Y-76221165D01*
X152627000Y-74955204D01*
X156242217Y-74955204D01*
X156272366Y-75270910D01*
X156363528Y-75574667D01*
X156367199Y-75583530D01*
X156598835Y-75693663D01*
X157332498Y-74960000D01*
X158387502Y-74960000D01*
X159121165Y-75693663D01*
X159352801Y-75583530D01*
X159445762Y-75280318D01*
X159477783Y-74964796D01*
X159455368Y-74730072D01*
X168354927Y-74730072D01*
X168469851Y-75436769D01*
X168720437Y-76107467D01*
X168841411Y-76333796D01*
X169280037Y-76692461D01*
X171472498Y-74500000D01*
X172527502Y-74500000D01*
X174719963Y-76692461D01*
X175158589Y-76333796D01*
X175455653Y-75682350D01*
X175619919Y-74985467D01*
X175645073Y-74269928D01*
X175530149Y-73563231D01*
X175279563Y-72892533D01*
X175158589Y-72666204D01*
X174719963Y-72307539D01*
X172527502Y-74500000D01*
X171472498Y-74500000D01*
X169280037Y-72307539D01*
X168841411Y-72666204D01*
X168544347Y-73317650D01*
X168380081Y-74014533D01*
X168354927Y-74730072D01*
X159455368Y-74730072D01*
X159447634Y-74649090D01*
X159356472Y-74345333D01*
X159352801Y-74336470D01*
X159121165Y-74226337D01*
X158387502Y-74960000D01*
X157332498Y-74960000D01*
X156598835Y-74226337D01*
X156367199Y-74336470D01*
X156274238Y-74639682D01*
X156242217Y-74955204D01*
X152627000Y-74955204D01*
X152627000Y-73698835D01*
X157126337Y-73698835D01*
X157860000Y-74432498D01*
X158593663Y-73698835D01*
X158483530Y-73467199D01*
X158180318Y-73374238D01*
X157864796Y-73342217D01*
X157549090Y-73372366D01*
X157245333Y-73463528D01*
X157236470Y-73467199D01*
X157126337Y-73698835D01*
X152627000Y-73698835D01*
X152627000Y-71780037D01*
X169807539Y-71780037D01*
X172000000Y-73972498D01*
X174192461Y-71780037D01*
X173833796Y-71341411D01*
X173182350Y-71044347D01*
X172485467Y-70880081D01*
X171769928Y-70854927D01*
X171063231Y-70969851D01*
X170392533Y-71220437D01*
X170166204Y-71341411D01*
X169807539Y-71780037D01*
X152627000Y-71780037D01*
X152627000Y-69631926D01*
X166395576Y-69631926D01*
X166483059Y-69846094D01*
X166755602Y-69921080D01*
X167037537Y-69941454D01*
X167318030Y-69906434D01*
X167516941Y-69846094D01*
X167604424Y-69631926D01*
X167000000Y-69027502D01*
X166395576Y-69631926D01*
X152627000Y-69631926D01*
X152627000Y-61500000D01*
X154865000Y-61500000D01*
X154865000Y-67000000D01*
X154877201Y-67123882D01*
X154913336Y-67243004D01*
X154972017Y-67352787D01*
X155050987Y-67449013D01*
X155147213Y-67527983D01*
X155256996Y-67586664D01*
X155376118Y-67622799D01*
X155500000Y-67635000D01*
X165659043Y-67635000D01*
X165669463Y-67654494D01*
X165731530Y-67730123D01*
X165717074Y-67744579D01*
X165868072Y-67895577D01*
X165653906Y-67983059D01*
X165578920Y-68255602D01*
X165558546Y-68537537D01*
X165593566Y-68818030D01*
X165653906Y-69016941D01*
X165868074Y-69104424D01*
X166472498Y-68500000D01*
X166458356Y-68485858D01*
X166985858Y-67958356D01*
X167000000Y-67972498D01*
X167014142Y-67958356D01*
X167541644Y-68485858D01*
X167527502Y-68500000D01*
X168131926Y-69104424D01*
X168346094Y-69016941D01*
X168421080Y-68744398D01*
X168441454Y-68462463D01*
X168406434Y-68181970D01*
X168346094Y-67983059D01*
X168131928Y-67895577D01*
X168282926Y-67744579D01*
X168268470Y-67730123D01*
X168330537Y-67654494D01*
X168340957Y-67635000D01*
X173809228Y-67635000D01*
X173809228Y-69493900D01*
X173821488Y-69618382D01*
X173857798Y-69738080D01*
X173916763Y-69848394D01*
X173996115Y-69945085D01*
X174092806Y-70024437D01*
X174203120Y-70083402D01*
X174322818Y-70119712D01*
X174447300Y-70131972D01*
X174469255Y-70131972D01*
X174500000Y-70135000D01*
X175295169Y-70135000D01*
X175295791Y-70141320D01*
X175336458Y-70275381D01*
X175402498Y-70398933D01*
X175491373Y-70507227D01*
X175599667Y-70596102D01*
X175723219Y-70662142D01*
X175857280Y-70702809D01*
X175996700Y-70716541D01*
X176031636Y-70713100D01*
X177968364Y-70713100D01*
X178003300Y-70716541D01*
X178038236Y-70713100D01*
X178142720Y-70702809D01*
X178276781Y-70662142D01*
X178400333Y-70596102D01*
X178508627Y-70507227D01*
X178597502Y-70398933D01*
X178663542Y-70275381D01*
X178704209Y-70141320D01*
X178704831Y-70135000D01*
X179500000Y-70135000D01*
X179530745Y-70131972D01*
X179552700Y-70131972D01*
X179677182Y-70119712D01*
X179796880Y-70083402D01*
X179907194Y-70024437D01*
X180003885Y-69945085D01*
X180083237Y-69848394D01*
X180142202Y-69738080D01*
X180174403Y-69631926D01*
X185895576Y-69631926D01*
X185983059Y-69846094D01*
X186255602Y-69921080D01*
X186537537Y-69941454D01*
X186818030Y-69906434D01*
X187016941Y-69846094D01*
X187104424Y-69631926D01*
X186500000Y-69027502D01*
X185895576Y-69631926D01*
X180174403Y-69631926D01*
X180178512Y-69618382D01*
X180190772Y-69493900D01*
X180190772Y-68635000D01*
X180544249Y-68635000D01*
X180600000Y-68640491D01*
X180655751Y-68635000D01*
X180655752Y-68635000D01*
X180822499Y-68618577D01*
X181036447Y-68553676D01*
X181233623Y-68448284D01*
X181406449Y-68306449D01*
X181441996Y-68263135D01*
X182070131Y-67635000D01*
X185159043Y-67635000D01*
X185169463Y-67654494D01*
X185231530Y-67730123D01*
X185217074Y-67744579D01*
X185368072Y-67895577D01*
X185153906Y-67983059D01*
X185078920Y-68255602D01*
X185058546Y-68537537D01*
X185093566Y-68818030D01*
X185153906Y-69016941D01*
X185368074Y-69104424D01*
X185972498Y-68500000D01*
X185958356Y-68485858D01*
X186485858Y-67958356D01*
X186500000Y-67972498D01*
X186514142Y-67958356D01*
X187041644Y-68485858D01*
X187027502Y-68500000D01*
X187631926Y-69104424D01*
X187846094Y-69016941D01*
X187921080Y-68744398D01*
X187941454Y-68462463D01*
X187906434Y-68181970D01*
X187846094Y-67983059D01*
X187631928Y-67895577D01*
X187782926Y-67744579D01*
X187768470Y-67730123D01*
X187830537Y-67654494D01*
X187889502Y-67544180D01*
X187908214Y-67482496D01*
X187949013Y-67449013D01*
X188027983Y-67352787D01*
X188086664Y-67243004D01*
X188122799Y-67123882D01*
X188135000Y-67000000D01*
X188135000Y-66555741D01*
X188140490Y-66499999D01*
X188135000Y-66444257D01*
X188135000Y-65500000D01*
X188122669Y-65375466D01*
X188086409Y-65256382D01*
X188027614Y-65146661D01*
X187948543Y-65050518D01*
X187852235Y-64971648D01*
X186635000Y-64160158D01*
X186635000Y-59370665D01*
X186654502Y-59334180D01*
X186690812Y-59214482D01*
X186703072Y-59090000D01*
X186703072Y-55910000D01*
X186690812Y-55785518D01*
X186654502Y-55665820D01*
X186595537Y-55555506D01*
X186516185Y-55458815D01*
X186419494Y-55379463D01*
X186309180Y-55320498D01*
X186189482Y-55284188D01*
X186065000Y-55271928D01*
X182885000Y-55271928D01*
X182760518Y-55284188D01*
X182640820Y-55320498D01*
X182530506Y-55379463D01*
X182433815Y-55458815D01*
X182354463Y-55555506D01*
X182295498Y-55665820D01*
X182259188Y-55785518D01*
X182246928Y-55910000D01*
X182246928Y-59090000D01*
X182259188Y-59214482D01*
X182289050Y-59312924D01*
X180736974Y-60865000D01*
X177500000Y-60865000D01*
X177376118Y-60877201D01*
X177256996Y-60913336D01*
X177147213Y-60972017D01*
X177050987Y-61050987D01*
X177000000Y-61113115D01*
X176949013Y-61050987D01*
X176852787Y-60972017D01*
X176743004Y-60913336D01*
X176623882Y-60877201D01*
X176500000Y-60865000D01*
X168374205Y-60865000D01*
X168721695Y-60721065D01*
X169317012Y-60323287D01*
X169823287Y-59817012D01*
X169944903Y-59635000D01*
X174607564Y-59635000D01*
X174690820Y-59679502D01*
X174810518Y-59715812D01*
X174935000Y-59728072D01*
X178115000Y-59728072D01*
X178239482Y-59715812D01*
X178359180Y-59679502D01*
X178469494Y-59620537D01*
X178566185Y-59541185D01*
X178645537Y-59444494D01*
X178704502Y-59334180D01*
X178740812Y-59214482D01*
X178753072Y-59090000D01*
X178753072Y-55910000D01*
X178740812Y-55785518D01*
X178704502Y-55665820D01*
X178645537Y-55555506D01*
X178566185Y-55458815D01*
X178469494Y-55379463D01*
X178359180Y-55320498D01*
X178239482Y-55284188D01*
X178115000Y-55271928D01*
X174935000Y-55271928D01*
X174810518Y-55284188D01*
X174690820Y-55320498D01*
X174607564Y-55365000D01*
X169944903Y-55365000D01*
X169823287Y-55182988D01*
X169317012Y-54676713D01*
X168721695Y-54278935D01*
X168060215Y-54004941D01*
X167357991Y-53865260D01*
X166642009Y-53865260D01*
X165939785Y-54004941D01*
X165278305Y-54278935D01*
X164682988Y-54676713D01*
X164176713Y-55182988D01*
X163778935Y-55778305D01*
X163504941Y-56439785D01*
X163365260Y-57142009D01*
X163365260Y-57857991D01*
X163504941Y-58560215D01*
X163778935Y-59221695D01*
X164176713Y-59817012D01*
X164682988Y-60323287D01*
X165278305Y-60721065D01*
X165625795Y-60865000D01*
X155500000Y-60865000D01*
X155376118Y-60877201D01*
X155256996Y-60913336D01*
X155147213Y-60972017D01*
X155050987Y-61050987D01*
X154972017Y-61147213D01*
X154913336Y-61256996D01*
X154877201Y-61376118D01*
X154865000Y-61500000D01*
X152627000Y-61500000D01*
X152627000Y-53506234D01*
X152644376Y-53329811D01*
X152694022Y-53166150D01*
X152774638Y-53015328D01*
X152883130Y-52883130D01*
X153015328Y-52774638D01*
X153166150Y-52694022D01*
X153329811Y-52644376D01*
X153506234Y-52627000D01*
X188993766Y-52627000D01*
X189170189Y-52644376D01*
G37*
X189170189Y-52644376D02*
X189315000Y-52688304D01*
X189315001Y-127311696D01*
X189170189Y-127355624D01*
X188993766Y-127373000D01*
X153506234Y-127373000D01*
X153329811Y-127355624D01*
X153166150Y-127305978D01*
X153015328Y-127225362D01*
X152883130Y-127116870D01*
X152774638Y-126984672D01*
X152694022Y-126833850D01*
X152644376Y-126670189D01*
X152627000Y-126493766D01*
X152627000Y-117332111D01*
X157515390Y-117332111D01*
X157576064Y-117526790D01*
X157813215Y-117581032D01*
X158056389Y-117587965D01*
X158296245Y-117547324D01*
X158363936Y-117526790D01*
X158424610Y-117332111D01*
X157970000Y-116877502D01*
X157515390Y-117332111D01*
X152627000Y-117332111D01*
X152627000Y-116436389D01*
X156732035Y-116436389D01*
X156772676Y-116676245D01*
X156793210Y-116743936D01*
X156987889Y-116804610D01*
X157442498Y-116350000D01*
X158497502Y-116350000D01*
X158952111Y-116804610D01*
X159146790Y-116743936D01*
X159172409Y-116631926D01*
X166395576Y-116631926D01*
X166483059Y-116846094D01*
X166755602Y-116921080D01*
X167037537Y-116941454D01*
X167318030Y-116906434D01*
X167516941Y-116846094D01*
X167604424Y-116631926D01*
X167000000Y-116027502D01*
X166395576Y-116631926D01*
X159172409Y-116631926D01*
X159201032Y-116506785D01*
X159207965Y-116263611D01*
X159167324Y-116023755D01*
X159146790Y-115956064D01*
X158952111Y-115895390D01*
X158497502Y-116350000D01*
X157442498Y-116350000D01*
X156987889Y-115895390D01*
X156793210Y-115956064D01*
X156738968Y-116193215D01*
X156732035Y-116436389D01*
X152627000Y-116436389D01*
X152627000Y-115367889D01*
X157515390Y-115367889D01*
X157970000Y-115822498D01*
X158424610Y-115367889D01*
X158363936Y-115173210D01*
X158126785Y-115118968D01*
X157883611Y-115112035D01*
X157643755Y-115152676D01*
X157576064Y-115173210D01*
X157515390Y-115367889D01*
X152627000Y-115367889D01*
X152627000Y-99500000D01*
X154865000Y-99500000D01*
X154865000Y-105000000D01*
X154877201Y-105123882D01*
X154913336Y-105243004D01*
X154972017Y-105352787D01*
X155050987Y-105449013D01*
X164550987Y-114949013D01*
X164647213Y-115027983D01*
X164756996Y-115086664D01*
X164876118Y-115122799D01*
X165000000Y-115135000D01*
X165612102Y-115135000D01*
X165578920Y-115255602D01*
X165558546Y-115537537D01*
X165593566Y-115818030D01*
X165653906Y-116016941D01*
X165868074Y-116104424D01*
X166472498Y-115500000D01*
X166458356Y-115485858D01*
X166809214Y-115135000D01*
X167190786Y-115135000D01*
X167541644Y-115485858D01*
X167527502Y-115500000D01*
X168131926Y-116104424D01*
X168346094Y-116016941D01*
X168421080Y-115744398D01*
X168441454Y-115462463D01*
X168406434Y-115181970D01*
X168392186Y-115135000D01*
X173365000Y-115135000D01*
X173365000Y-116500000D01*
X173377201Y-116623882D01*
X173413336Y-116743004D01*
X173472017Y-116852787D01*
X173550987Y-116949013D01*
X173647213Y-117027983D01*
X173756996Y-117086664D01*
X173876118Y-117122799D01*
X174000000Y-117135000D01*
X175295169Y-117135000D01*
X175295791Y-117141320D01*
X175336458Y-117275381D01*
X175402498Y-117398933D01*
X175491373Y-117507227D01*
X175581304Y-117581032D01*
X175599667Y-117596102D01*
X175723219Y-117662142D01*
X175857280Y-117702809D01*
X175996700Y-117716541D01*
X176031636Y-117713100D01*
X177968364Y-117713100D01*
X178003300Y-117716541D01*
X178038236Y-117713100D01*
X178142720Y-117702809D01*
X178276781Y-117662142D01*
X178327560Y-117635000D01*
X179500000Y-117635000D01*
X179623882Y-117622799D01*
X179743004Y-117586664D01*
X179852787Y-117527983D01*
X179949013Y-117449013D01*
X180027983Y-117352787D01*
X180086664Y-117243004D01*
X180122799Y-117123882D01*
X180135000Y-117000000D01*
X180135000Y-116751554D01*
X180142202Y-116738080D01*
X180174403Y-116631926D01*
X185895576Y-116631926D01*
X185983059Y-116846094D01*
X186255602Y-116921080D01*
X186537537Y-116941454D01*
X186818030Y-116906434D01*
X187016941Y-116846094D01*
X187104424Y-116631926D01*
X186500000Y-116027502D01*
X185895576Y-116631926D01*
X180174403Y-116631926D01*
X180178512Y-116618382D01*
X180190772Y-116493900D01*
X180190772Y-116135000D01*
X180500000Y-116135000D01*
X180623882Y-116122799D01*
X180743004Y-116086664D01*
X180852787Y-116027983D01*
X180949013Y-115949013D01*
X181763026Y-115135000D01*
X185112102Y-115135000D01*
X185078920Y-115255602D01*
X185058546Y-115537537D01*
X185093566Y-115818030D01*
X185153906Y-116016941D01*
X185368074Y-116104424D01*
X185972498Y-115500000D01*
X185958356Y-115485858D01*
X186309214Y-115135000D01*
X186690786Y-115135000D01*
X187041644Y-115485858D01*
X187027502Y-115500000D01*
X187631926Y-116104424D01*
X187846094Y-116016941D01*
X187921080Y-115744398D01*
X187941454Y-115462463D01*
X187906434Y-115181970D01*
X187858339Y-115023426D01*
X187949013Y-114949013D01*
X188027983Y-114852787D01*
X188086664Y-114743004D01*
X188122799Y-114623882D01*
X188135000Y-114500000D01*
X188135000Y-113000000D01*
X188122799Y-112876118D01*
X188086664Y-112756996D01*
X188027983Y-112647213D01*
X187949013Y-112550987D01*
X187905028Y-112507002D01*
X187889502Y-112455820D01*
X187830537Y-112345506D01*
X187751185Y-112248815D01*
X187654494Y-112169463D01*
X187544180Y-112110498D01*
X187492998Y-112094972D01*
X186135000Y-110736974D01*
X186135000Y-100500000D01*
X186122799Y-100376118D01*
X186086664Y-100256996D01*
X186027983Y-100147213D01*
X185949013Y-100050987D01*
X185852787Y-99972017D01*
X185743004Y-99913336D01*
X185623882Y-99877201D01*
X185500000Y-99865000D01*
X182000000Y-99865000D01*
X181876118Y-99877201D01*
X181756996Y-99913336D01*
X181647213Y-99972017D01*
X181550987Y-100050987D01*
X181472017Y-100147213D01*
X181413336Y-100256996D01*
X181377201Y-100376118D01*
X181365000Y-100500000D01*
X181365000Y-100542667D01*
X181354463Y-100555506D01*
X181295498Y-100665820D01*
X181259188Y-100785518D01*
X181246928Y-100910000D01*
X181246928Y-103855046D01*
X177135000Y-107966974D01*
X177135000Y-106500000D01*
X177122799Y-106376118D01*
X177086664Y-106256996D01*
X177027983Y-106147213D01*
X176949013Y-106050987D01*
X176852787Y-105972017D01*
X176743004Y-105913336D01*
X176623882Y-105877201D01*
X176500000Y-105865000D01*
X168374205Y-105865000D01*
X168721695Y-105721065D01*
X169317012Y-105323287D01*
X169823287Y-104817012D01*
X169944903Y-104635000D01*
X173607564Y-104635000D01*
X173690820Y-104679502D01*
X173810518Y-104715812D01*
X173935000Y-104728072D01*
X177115000Y-104728072D01*
X177239482Y-104715812D01*
X177359180Y-104679502D01*
X177469494Y-104620537D01*
X177566185Y-104541185D01*
X177645537Y-104444494D01*
X177704502Y-104334180D01*
X177740812Y-104214482D01*
X177753072Y-104090000D01*
X177753072Y-100910000D01*
X177740812Y-100785518D01*
X177704502Y-100665820D01*
X177645537Y-100555506D01*
X177566185Y-100458815D01*
X177469494Y-100379463D01*
X177359180Y-100320498D01*
X177239482Y-100284188D01*
X177115000Y-100271928D01*
X173935000Y-100271928D01*
X173810518Y-100284188D01*
X173690820Y-100320498D01*
X173607564Y-100365000D01*
X169944903Y-100365000D01*
X169823287Y-100182988D01*
X169317012Y-99676713D01*
X168721695Y-99278935D01*
X168060215Y-99004941D01*
X167357991Y-98865260D01*
X166642009Y-98865260D01*
X165939785Y-99004941D01*
X165278305Y-99278935D01*
X164682988Y-99676713D01*
X164176713Y-100182988D01*
X163778935Y-100778305D01*
X163504941Y-101439785D01*
X163365260Y-102142009D01*
X163365260Y-102857991D01*
X163504941Y-103560215D01*
X163537963Y-103639937D01*
X158949013Y-99050987D01*
X158852787Y-98972017D01*
X158743004Y-98913336D01*
X158623882Y-98877201D01*
X158500000Y-98865000D01*
X155500000Y-98865000D01*
X155376118Y-98877201D01*
X155256996Y-98913336D01*
X155147213Y-98972017D01*
X155050987Y-99050987D01*
X154972017Y-99147213D01*
X154913336Y-99256996D01*
X154877201Y-99376118D01*
X154865000Y-99500000D01*
X152627000Y-99500000D01*
X152627000Y-82500000D01*
X154865000Y-82500000D01*
X154865000Y-88000000D01*
X154877201Y-88123882D01*
X154913336Y-88243004D01*
X154972017Y-88352787D01*
X155050987Y-88449013D01*
X155147213Y-88527983D01*
X155256996Y-88586664D01*
X155376118Y-88622799D01*
X155500000Y-88635000D01*
X165625795Y-88635000D01*
X165278305Y-88778935D01*
X164682988Y-89176713D01*
X164176713Y-89682988D01*
X163778935Y-90278305D01*
X163504941Y-90939785D01*
X163365260Y-91642009D01*
X163365260Y-92357991D01*
X163504941Y-93060215D01*
X163778935Y-93721695D01*
X164176713Y-94317012D01*
X164682988Y-94823287D01*
X165278305Y-95221065D01*
X165939785Y-95495059D01*
X166642009Y-95634740D01*
X167357991Y-95634740D01*
X168060215Y-95495059D01*
X168721695Y-95221065D01*
X169317012Y-94823287D01*
X169823287Y-94317012D01*
X169944903Y-94135000D01*
X173607564Y-94135000D01*
X173690820Y-94179502D01*
X173810518Y-94215812D01*
X173935000Y-94228072D01*
X177115000Y-94228072D01*
X177239482Y-94215812D01*
X177359180Y-94179502D01*
X177469494Y-94120537D01*
X177566185Y-94041185D01*
X177645537Y-93944494D01*
X177704502Y-93834180D01*
X177740812Y-93714482D01*
X177753072Y-93590000D01*
X177753072Y-90410000D01*
X177740812Y-90285518D01*
X177704502Y-90165820D01*
X177645537Y-90055506D01*
X177566185Y-89958815D01*
X177469494Y-89879463D01*
X177359180Y-89820498D01*
X177239482Y-89784188D01*
X177115000Y-89771928D01*
X173935000Y-89771928D01*
X173810518Y-89784188D01*
X173690820Y-89820498D01*
X173607564Y-89865000D01*
X169944903Y-89865000D01*
X169823287Y-89682988D01*
X169317012Y-89176713D01*
X168721695Y-88778935D01*
X168374205Y-88635000D01*
X175091539Y-88635000D01*
X175156613Y-88688405D01*
X175310149Y-88770472D01*
X175476745Y-88821008D01*
X175649999Y-88838072D01*
X176300001Y-88838072D01*
X176473255Y-88821008D01*
X176639851Y-88770472D01*
X176793387Y-88688405D01*
X176889227Y-88609751D01*
X176965336Y-88586664D01*
X177044467Y-88544367D01*
X177072038Y-88577962D01*
X177206613Y-88688405D01*
X177360149Y-88770472D01*
X177526745Y-88821008D01*
X177699999Y-88838072D01*
X178350001Y-88838072D01*
X178523255Y-88821008D01*
X178689851Y-88770472D01*
X178843387Y-88688405D01*
X178908461Y-88635000D01*
X179736974Y-88635000D01*
X181289050Y-90187076D01*
X181259188Y-90285518D01*
X181246928Y-90410000D01*
X181246928Y-93590000D01*
X181259188Y-93714482D01*
X181295498Y-93834180D01*
X181354463Y-93944494D01*
X181433815Y-94041185D01*
X181530506Y-94120537D01*
X181640820Y-94179502D01*
X181760518Y-94215812D01*
X181885000Y-94228072D01*
X185065000Y-94228072D01*
X185189482Y-94215812D01*
X185309180Y-94179502D01*
X185419494Y-94120537D01*
X185516185Y-94041185D01*
X185595537Y-93944494D01*
X185654502Y-93834180D01*
X185690812Y-93714482D01*
X185702181Y-93599047D01*
X185743004Y-93586664D01*
X185852787Y-93527983D01*
X185949013Y-93449013D01*
X186027983Y-93352787D01*
X186086664Y-93243004D01*
X186122799Y-93123882D01*
X186135000Y-93000000D01*
X186135000Y-87263026D01*
X187949013Y-85449013D01*
X188027983Y-85352787D01*
X188086664Y-85243004D01*
X188122799Y-85123882D01*
X188135000Y-85000000D01*
X188135000Y-83000000D01*
X188122799Y-82876118D01*
X188086664Y-82756996D01*
X188027983Y-82647213D01*
X187949013Y-82550987D01*
X187899711Y-82510526D01*
X187925812Y-82424482D01*
X187938072Y-82300000D01*
X187935000Y-82031750D01*
X187776250Y-81873000D01*
X186873000Y-81873000D01*
X186873000Y-81893000D01*
X186127000Y-81893000D01*
X186127000Y-81873000D01*
X185223750Y-81873000D01*
X185065000Y-82031750D01*
X185061928Y-82300000D01*
X185068330Y-82365000D01*
X181763026Y-82365000D01*
X181135000Y-81736974D01*
X181135000Y-80700000D01*
X185061928Y-80700000D01*
X185065000Y-80968250D01*
X185223750Y-81127000D01*
X186127000Y-81127000D01*
X186127000Y-80223750D01*
X186873000Y-80223750D01*
X186873000Y-81127000D01*
X187776250Y-81127000D01*
X187935000Y-80968250D01*
X187938072Y-80700000D01*
X187925812Y-80575518D01*
X187889502Y-80455820D01*
X187830537Y-80345506D01*
X187751185Y-80248815D01*
X187654494Y-80169463D01*
X187544180Y-80110498D01*
X187424482Y-80074188D01*
X187300000Y-80061928D01*
X187031750Y-80065000D01*
X186873000Y-80223750D01*
X186127000Y-80223750D01*
X185968250Y-80065000D01*
X185700000Y-80061928D01*
X185575518Y-80074188D01*
X185455820Y-80110498D01*
X185345506Y-80169463D01*
X185248815Y-80248815D01*
X185169463Y-80345506D01*
X185110498Y-80455820D01*
X185074188Y-80575518D01*
X185061928Y-80700000D01*
X181135000Y-80700000D01*
X181135000Y-80000000D01*
X181122799Y-79876118D01*
X181086664Y-79756996D01*
X181027983Y-79647213D01*
X180949013Y-79550987D01*
X180852787Y-79472017D01*
X180743004Y-79413336D01*
X180623882Y-79377201D01*
X180500000Y-79365000D01*
X178327560Y-79365000D01*
X178276781Y-79337858D01*
X178142720Y-79297191D01*
X178038236Y-79286900D01*
X178003300Y-79283459D01*
X177968364Y-79286900D01*
X176031636Y-79286900D01*
X175996700Y-79283459D01*
X175961764Y-79286900D01*
X175857280Y-79297191D01*
X175723219Y-79337858D01*
X175672440Y-79365000D01*
X174000000Y-79365000D01*
X173876118Y-79377201D01*
X173756996Y-79413336D01*
X173647213Y-79472017D01*
X173550987Y-79550987D01*
X173472017Y-79647213D01*
X173413336Y-79756996D01*
X173377201Y-79876118D01*
X173365000Y-80000000D01*
X173365000Y-81607714D01*
X172850912Y-81865000D01*
X155500000Y-81865000D01*
X155376118Y-81877201D01*
X155256996Y-81913336D01*
X155147213Y-81972017D01*
X155050987Y-82050987D01*
X154972017Y-82147213D01*
X154913336Y-82256996D01*
X154877201Y-82376118D01*
X154865000Y-82500000D01*
X152627000Y-82500000D01*
X152627000Y-80700000D01*
X165561928Y-80700000D01*
X165565000Y-80968250D01*
X165723750Y-81127000D01*
X166627000Y-81127000D01*
X166627000Y-80223750D01*
X167373000Y-80223750D01*
X167373000Y-81127000D01*
X168276250Y-81127000D01*
X168435000Y-80968250D01*
X168438072Y-80700000D01*
X168425812Y-80575518D01*
X168389502Y-80455820D01*
X168330537Y-80345506D01*
X168251185Y-80248815D01*
X168154494Y-80169463D01*
X168044180Y-80110498D01*
X167924482Y-80074188D01*
X167800000Y-80061928D01*
X167531750Y-80065000D01*
X167373000Y-80223750D01*
X166627000Y-80223750D01*
X166468250Y-80065000D01*
X166200000Y-80061928D01*
X166075518Y-80074188D01*
X165955820Y-80110498D01*
X165845506Y-80169463D01*
X165748815Y-80248815D01*
X165669463Y-80345506D01*
X165610498Y-80455820D01*
X165574188Y-80575518D01*
X165561928Y-80700000D01*
X152627000Y-80700000D01*
X152627000Y-77219963D01*
X169807539Y-77219963D01*
X170166204Y-77658589D01*
X170817650Y-77955653D01*
X171514533Y-78119919D01*
X172230072Y-78145073D01*
X172936769Y-78030149D01*
X173607467Y-77779563D01*
X173833796Y-77658589D01*
X174192461Y-77219963D01*
X172000000Y-75027502D01*
X169807539Y-77219963D01*
X152627000Y-77219963D01*
X152627000Y-76221165D01*
X157126337Y-76221165D01*
X157236470Y-76452801D01*
X157539682Y-76545762D01*
X157855204Y-76577783D01*
X158170910Y-76547634D01*
X158474667Y-76456472D01*
X158483530Y-76452801D01*
X158593663Y-76221165D01*
X157860000Y-75487502D01*
X157126337Y-76221165D01*
X152627000Y-76221165D01*
X152627000Y-74955204D01*
X156242217Y-74955204D01*
X156272366Y-75270910D01*
X156363528Y-75574667D01*
X156367199Y-75583530D01*
X156598835Y-75693663D01*
X157332498Y-74960000D01*
X158387502Y-74960000D01*
X159121165Y-75693663D01*
X159352801Y-75583530D01*
X159445762Y-75280318D01*
X159477783Y-74964796D01*
X159455368Y-74730072D01*
X168354927Y-74730072D01*
X168469851Y-75436769D01*
X168720437Y-76107467D01*
X168841411Y-76333796D01*
X169280037Y-76692461D01*
X171472498Y-74500000D01*
X172527502Y-74500000D01*
X174719963Y-76692461D01*
X175158589Y-76333796D01*
X175455653Y-75682350D01*
X175619919Y-74985467D01*
X175645073Y-74269928D01*
X175530149Y-73563231D01*
X175279563Y-72892533D01*
X175158589Y-72666204D01*
X174719963Y-72307539D01*
X172527502Y-74500000D01*
X171472498Y-74500000D01*
X169280037Y-72307539D01*
X168841411Y-72666204D01*
X168544347Y-73317650D01*
X168380081Y-74014533D01*
X168354927Y-74730072D01*
X159455368Y-74730072D01*
X159447634Y-74649090D01*
X159356472Y-74345333D01*
X159352801Y-74336470D01*
X159121165Y-74226337D01*
X158387502Y-74960000D01*
X157332498Y-74960000D01*
X156598835Y-74226337D01*
X156367199Y-74336470D01*
X156274238Y-74639682D01*
X156242217Y-74955204D01*
X152627000Y-74955204D01*
X152627000Y-73698835D01*
X157126337Y-73698835D01*
X157860000Y-74432498D01*
X158593663Y-73698835D01*
X158483530Y-73467199D01*
X158180318Y-73374238D01*
X157864796Y-73342217D01*
X157549090Y-73372366D01*
X157245333Y-73463528D01*
X157236470Y-73467199D01*
X157126337Y-73698835D01*
X152627000Y-73698835D01*
X152627000Y-71780037D01*
X169807539Y-71780037D01*
X172000000Y-73972498D01*
X174192461Y-71780037D01*
X173833796Y-71341411D01*
X173182350Y-71044347D01*
X172485467Y-70880081D01*
X171769928Y-70854927D01*
X171063231Y-70969851D01*
X170392533Y-71220437D01*
X170166204Y-71341411D01*
X169807539Y-71780037D01*
X152627000Y-71780037D01*
X152627000Y-69631926D01*
X166395576Y-69631926D01*
X166483059Y-69846094D01*
X166755602Y-69921080D01*
X167037537Y-69941454D01*
X167318030Y-69906434D01*
X167516941Y-69846094D01*
X167604424Y-69631926D01*
X167000000Y-69027502D01*
X166395576Y-69631926D01*
X152627000Y-69631926D01*
X152627000Y-61500000D01*
X154865000Y-61500000D01*
X154865000Y-67000000D01*
X154877201Y-67123882D01*
X154913336Y-67243004D01*
X154972017Y-67352787D01*
X155050987Y-67449013D01*
X155147213Y-67527983D01*
X155256996Y-67586664D01*
X155376118Y-67622799D01*
X155500000Y-67635000D01*
X165659043Y-67635000D01*
X165669463Y-67654494D01*
X165731530Y-67730123D01*
X165717074Y-67744579D01*
X165868072Y-67895577D01*
X165653906Y-67983059D01*
X165578920Y-68255602D01*
X165558546Y-68537537D01*
X165593566Y-68818030D01*
X165653906Y-69016941D01*
X165868074Y-69104424D01*
X166472498Y-68500000D01*
X166458356Y-68485858D01*
X166985858Y-67958356D01*
X167000000Y-67972498D01*
X167014142Y-67958356D01*
X167541644Y-68485858D01*
X167527502Y-68500000D01*
X168131926Y-69104424D01*
X168346094Y-69016941D01*
X168421080Y-68744398D01*
X168441454Y-68462463D01*
X168406434Y-68181970D01*
X168346094Y-67983059D01*
X168131928Y-67895577D01*
X168282926Y-67744579D01*
X168268470Y-67730123D01*
X168330537Y-67654494D01*
X168340957Y-67635000D01*
X173809228Y-67635000D01*
X173809228Y-69493900D01*
X173821488Y-69618382D01*
X173857798Y-69738080D01*
X173916763Y-69848394D01*
X173996115Y-69945085D01*
X174092806Y-70024437D01*
X174203120Y-70083402D01*
X174322818Y-70119712D01*
X174447300Y-70131972D01*
X174469255Y-70131972D01*
X174500000Y-70135000D01*
X175295169Y-70135000D01*
X175295791Y-70141320D01*
X175336458Y-70275381D01*
X175402498Y-70398933D01*
X175491373Y-70507227D01*
X175599667Y-70596102D01*
X175723219Y-70662142D01*
X175857280Y-70702809D01*
X175996700Y-70716541D01*
X176031636Y-70713100D01*
X177968364Y-70713100D01*
X178003300Y-70716541D01*
X178038236Y-70713100D01*
X178142720Y-70702809D01*
X178276781Y-70662142D01*
X178400333Y-70596102D01*
X178508627Y-70507227D01*
X178597502Y-70398933D01*
X178663542Y-70275381D01*
X178704209Y-70141320D01*
X178704831Y-70135000D01*
X179500000Y-70135000D01*
X179530745Y-70131972D01*
X179552700Y-70131972D01*
X179677182Y-70119712D01*
X179796880Y-70083402D01*
X179907194Y-70024437D01*
X180003885Y-69945085D01*
X180083237Y-69848394D01*
X180142202Y-69738080D01*
X180174403Y-69631926D01*
X185895576Y-69631926D01*
X185983059Y-69846094D01*
X186255602Y-69921080D01*
X186537537Y-69941454D01*
X186818030Y-69906434D01*
X187016941Y-69846094D01*
X187104424Y-69631926D01*
X186500000Y-69027502D01*
X185895576Y-69631926D01*
X180174403Y-69631926D01*
X180178512Y-69618382D01*
X180190772Y-69493900D01*
X180190772Y-68635000D01*
X180544249Y-68635000D01*
X180600000Y-68640491D01*
X180655751Y-68635000D01*
X180655752Y-68635000D01*
X180822499Y-68618577D01*
X181036447Y-68553676D01*
X181233623Y-68448284D01*
X181406449Y-68306449D01*
X181441996Y-68263135D01*
X182070131Y-67635000D01*
X185159043Y-67635000D01*
X185169463Y-67654494D01*
X185231530Y-67730123D01*
X185217074Y-67744579D01*
X185368072Y-67895577D01*
X185153906Y-67983059D01*
X185078920Y-68255602D01*
X185058546Y-68537537D01*
X185093566Y-68818030D01*
X185153906Y-69016941D01*
X185368074Y-69104424D01*
X185972498Y-68500000D01*
X185958356Y-68485858D01*
X186485858Y-67958356D01*
X186500000Y-67972498D01*
X186514142Y-67958356D01*
X187041644Y-68485858D01*
X187027502Y-68500000D01*
X187631926Y-69104424D01*
X187846094Y-69016941D01*
X187921080Y-68744398D01*
X187941454Y-68462463D01*
X187906434Y-68181970D01*
X187846094Y-67983059D01*
X187631928Y-67895577D01*
X187782926Y-67744579D01*
X187768470Y-67730123D01*
X187830537Y-67654494D01*
X187889502Y-67544180D01*
X187908214Y-67482496D01*
X187949013Y-67449013D01*
X188027983Y-67352787D01*
X188086664Y-67243004D01*
X188122799Y-67123882D01*
X188135000Y-67000000D01*
X188135000Y-66555741D01*
X188140490Y-66499999D01*
X188135000Y-66444257D01*
X188135000Y-65500000D01*
X188122669Y-65375466D01*
X188086409Y-65256382D01*
X188027614Y-65146661D01*
X187948543Y-65050518D01*
X187852235Y-64971648D01*
X186635000Y-64160158D01*
X186635000Y-59370665D01*
X186654502Y-59334180D01*
X186690812Y-59214482D01*
X186703072Y-59090000D01*
X186703072Y-55910000D01*
X186690812Y-55785518D01*
X186654502Y-55665820D01*
X186595537Y-55555506D01*
X186516185Y-55458815D01*
X186419494Y-55379463D01*
X186309180Y-55320498D01*
X186189482Y-55284188D01*
X186065000Y-55271928D01*
X182885000Y-55271928D01*
X182760518Y-55284188D01*
X182640820Y-55320498D01*
X182530506Y-55379463D01*
X182433815Y-55458815D01*
X182354463Y-55555506D01*
X182295498Y-55665820D01*
X182259188Y-55785518D01*
X182246928Y-55910000D01*
X182246928Y-59090000D01*
X182259188Y-59214482D01*
X182289050Y-59312924D01*
X180736974Y-60865000D01*
X177500000Y-60865000D01*
X177376118Y-60877201D01*
X177256996Y-60913336D01*
X177147213Y-60972017D01*
X177050987Y-61050987D01*
X177000000Y-61113115D01*
X176949013Y-61050987D01*
X176852787Y-60972017D01*
X176743004Y-60913336D01*
X176623882Y-60877201D01*
X176500000Y-60865000D01*
X168374205Y-60865000D01*
X168721695Y-60721065D01*
X169317012Y-60323287D01*
X169823287Y-59817012D01*
X169944903Y-59635000D01*
X174607564Y-59635000D01*
X174690820Y-59679502D01*
X174810518Y-59715812D01*
X174935000Y-59728072D01*
X178115000Y-59728072D01*
X178239482Y-59715812D01*
X178359180Y-59679502D01*
X178469494Y-59620537D01*
X178566185Y-59541185D01*
X178645537Y-59444494D01*
X178704502Y-59334180D01*
X178740812Y-59214482D01*
X178753072Y-59090000D01*
X178753072Y-55910000D01*
X178740812Y-55785518D01*
X178704502Y-55665820D01*
X178645537Y-55555506D01*
X178566185Y-55458815D01*
X178469494Y-55379463D01*
X178359180Y-55320498D01*
X178239482Y-55284188D01*
X178115000Y-55271928D01*
X174935000Y-55271928D01*
X174810518Y-55284188D01*
X174690820Y-55320498D01*
X174607564Y-55365000D01*
X169944903Y-55365000D01*
X169823287Y-55182988D01*
X169317012Y-54676713D01*
X168721695Y-54278935D01*
X168060215Y-54004941D01*
X167357991Y-53865260D01*
X166642009Y-53865260D01*
X165939785Y-54004941D01*
X165278305Y-54278935D01*
X164682988Y-54676713D01*
X164176713Y-55182988D01*
X163778935Y-55778305D01*
X163504941Y-56439785D01*
X163365260Y-57142009D01*
X163365260Y-57857991D01*
X163504941Y-58560215D01*
X163778935Y-59221695D01*
X164176713Y-59817012D01*
X164682988Y-60323287D01*
X165278305Y-60721065D01*
X165625795Y-60865000D01*
X155500000Y-60865000D01*
X155376118Y-60877201D01*
X155256996Y-60913336D01*
X155147213Y-60972017D01*
X155050987Y-61050987D01*
X154972017Y-61147213D01*
X154913336Y-61256996D01*
X154877201Y-61376118D01*
X154865000Y-61500000D01*
X152627000Y-61500000D01*
X152627000Y-53506234D01*
X152644376Y-53329811D01*
X152694022Y-53166150D01*
X152774638Y-53015328D01*
X152883130Y-52883130D01*
X153015328Y-52774638D01*
X153166150Y-52694022D01*
X153329811Y-52644376D01*
X153506234Y-52627000D01*
X188993766Y-52627000D01*
X189170189Y-52644376D01*
G36*
X176373000Y-64286900D02*
G01*
X176031636Y-64286900D01*
X175996700Y-64283459D01*
X175961764Y-64286900D01*
X175857280Y-64297191D01*
X175723219Y-64337858D01*
X175599667Y-64403898D01*
X175491373Y-64492773D01*
X175402498Y-64601067D01*
X175336458Y-64724619D01*
X175295791Y-64858680D01*
X175282059Y-64998100D01*
X175285501Y-65033046D01*
X175285500Y-69373000D01*
X174627000Y-69373000D01*
X174627000Y-67000000D01*
X174624560Y-66975224D01*
X174617333Y-66951399D01*
X174605597Y-66929443D01*
X174589803Y-66910197D01*
X174570557Y-66894403D01*
X174548601Y-66882667D01*
X174524776Y-66875440D01*
X174500000Y-66873000D01*
X155627000Y-66873000D01*
X155627000Y-66061165D01*
X157126337Y-66061165D01*
X157236470Y-66292801D01*
X157539682Y-66385762D01*
X157855204Y-66417783D01*
X158170910Y-66387634D01*
X158474667Y-66296472D01*
X158483530Y-66292801D01*
X158593663Y-66061165D01*
X158232498Y-65700000D01*
X165561928Y-65700000D01*
X165565000Y-65968250D01*
X165723750Y-66127000D01*
X166627000Y-66127000D01*
X166627000Y-65223750D01*
X167373000Y-65223750D01*
X167373000Y-66127000D01*
X168276250Y-66127000D01*
X168435000Y-65968250D01*
X168438072Y-65700000D01*
X168425812Y-65575518D01*
X168389502Y-65455820D01*
X168330537Y-65345506D01*
X168251185Y-65248815D01*
X168154494Y-65169463D01*
X168044180Y-65110498D01*
X167924482Y-65074188D01*
X167800000Y-65061928D01*
X167531750Y-65065000D01*
X167373000Y-65223750D01*
X166627000Y-65223750D01*
X166468250Y-65065000D01*
X166200000Y-65061928D01*
X166075518Y-65074188D01*
X165955820Y-65110498D01*
X165845506Y-65169463D01*
X165748815Y-65248815D01*
X165669463Y-65345506D01*
X165610498Y-65455820D01*
X165574188Y-65575518D01*
X165561928Y-65700000D01*
X158232498Y-65700000D01*
X157860000Y-65327502D01*
X157126337Y-66061165D01*
X155627000Y-66061165D01*
X155627000Y-64795204D01*
X156242217Y-64795204D01*
X156272366Y-65110910D01*
X156363528Y-65414667D01*
X156367199Y-65423530D01*
X156598835Y-65533663D01*
X157332498Y-64800000D01*
X158387502Y-64800000D01*
X159121165Y-65533663D01*
X159352801Y-65423530D01*
X159445762Y-65120318D01*
X159477783Y-64804796D01*
X159447634Y-64489090D01*
X159356472Y-64185333D01*
X159352801Y-64176470D01*
X159121165Y-64066337D01*
X158387502Y-64800000D01*
X157332498Y-64800000D01*
X156598835Y-64066337D01*
X156367199Y-64176470D01*
X156274238Y-64479682D01*
X156242217Y-64795204D01*
X155627000Y-64795204D01*
X155627000Y-63538835D01*
X157126337Y-63538835D01*
X157860000Y-64272498D01*
X158593663Y-63538835D01*
X158483530Y-63307199D01*
X158180318Y-63214238D01*
X157864796Y-63182217D01*
X157549090Y-63212366D01*
X157245333Y-63303528D01*
X157236470Y-63307199D01*
X157126337Y-63538835D01*
X155627000Y-63538835D01*
X155627000Y-61627000D01*
X176373000Y-61627000D01*
X176373000Y-64286900D01*
G37*
X176373000Y-64286900D02*
X176031636Y-64286900D01*
X175996700Y-64283459D01*
X175961764Y-64286900D01*
X175857280Y-64297191D01*
X175723219Y-64337858D01*
X175599667Y-64403898D01*
X175491373Y-64492773D01*
X175402498Y-64601067D01*
X175336458Y-64724619D01*
X175295791Y-64858680D01*
X175282059Y-64998100D01*
X175285501Y-65033046D01*
X175285500Y-69373000D01*
X174627000Y-69373000D01*
X174627000Y-67000000D01*
X174624560Y-66975224D01*
X174617333Y-66951399D01*
X174605597Y-66929443D01*
X174589803Y-66910197D01*
X174570557Y-66894403D01*
X174548601Y-66882667D01*
X174524776Y-66875440D01*
X174500000Y-66873000D01*
X155627000Y-66873000D01*
X155627000Y-66061165D01*
X157126337Y-66061165D01*
X157236470Y-66292801D01*
X157539682Y-66385762D01*
X157855204Y-66417783D01*
X158170910Y-66387634D01*
X158474667Y-66296472D01*
X158483530Y-66292801D01*
X158593663Y-66061165D01*
X158232498Y-65700000D01*
X165561928Y-65700000D01*
X165565000Y-65968250D01*
X165723750Y-66127000D01*
X166627000Y-66127000D01*
X166627000Y-65223750D01*
X167373000Y-65223750D01*
X167373000Y-66127000D01*
X168276250Y-66127000D01*
X168435000Y-65968250D01*
X168438072Y-65700000D01*
X168425812Y-65575518D01*
X168389502Y-65455820D01*
X168330537Y-65345506D01*
X168251185Y-65248815D01*
X168154494Y-65169463D01*
X168044180Y-65110498D01*
X167924482Y-65074188D01*
X167800000Y-65061928D01*
X167531750Y-65065000D01*
X167373000Y-65223750D01*
X166627000Y-65223750D01*
X166468250Y-65065000D01*
X166200000Y-65061928D01*
X166075518Y-65074188D01*
X165955820Y-65110498D01*
X165845506Y-65169463D01*
X165748815Y-65248815D01*
X165669463Y-65345506D01*
X165610498Y-65455820D01*
X165574188Y-65575518D01*
X165561928Y-65700000D01*
X158232498Y-65700000D01*
X157860000Y-65327502D01*
X157126337Y-66061165D01*
X155627000Y-66061165D01*
X155627000Y-64795204D01*
X156242217Y-64795204D01*
X156272366Y-65110910D01*
X156363528Y-65414667D01*
X156367199Y-65423530D01*
X156598835Y-65533663D01*
X157332498Y-64800000D01*
X158387502Y-64800000D01*
X159121165Y-65533663D01*
X159352801Y-65423530D01*
X159445762Y-65120318D01*
X159477783Y-64804796D01*
X159447634Y-64489090D01*
X159356472Y-64185333D01*
X159352801Y-64176470D01*
X159121165Y-64066337D01*
X158387502Y-64800000D01*
X157332498Y-64800000D01*
X156598835Y-64066337D01*
X156367199Y-64176470D01*
X156274238Y-64479682D01*
X156242217Y-64795204D01*
X155627000Y-64795204D01*
X155627000Y-63538835D01*
X157126337Y-63538835D01*
X157860000Y-64272498D01*
X158593663Y-63538835D01*
X158483530Y-63307199D01*
X158180318Y-63214238D01*
X157864796Y-63182217D01*
X157549090Y-63212366D01*
X157245333Y-63303528D01*
X157236470Y-63307199D01*
X157126337Y-63538835D01*
X155627000Y-63538835D01*
X155627000Y-61627000D01*
X176373000Y-61627000D01*
X176373000Y-64286900D01*
G36*
X176873000Y-93373000D02*
G01*
X168627000Y-93373000D01*
X168627000Y-90627000D01*
X176873000Y-90627000D01*
X176873000Y-93373000D01*
G37*
X176873000Y-93373000D02*
X168627000Y-93373000D01*
X168627000Y-90627000D01*
X176873000Y-90627000D01*
X176873000Y-93373000D01*
G36*
X176886629Y-103873000D02*
G01*
X168640629Y-103873000D01*
X168640629Y-101127000D01*
X176886629Y-101127000D01*
X176886629Y-103873000D01*
G37*
X176886629Y-103873000D02*
X168640629Y-103873000D01*
X168640629Y-101127000D01*
X176886629Y-101127000D01*
X176886629Y-103873000D01*
G36*
X177515482Y-58873000D02*
G01*
X169269482Y-58873000D01*
X169269482Y-56127000D01*
X177515482Y-56127000D01*
X177515482Y-58873000D01*
G37*
X177515482Y-58873000D02*
X169269482Y-58873000D01*
X169269482Y-56127000D01*
X177515482Y-56127000D01*
X177515482Y-58873000D01*
M02*
