G04 #@! TF.GenerationSoftware,KiCad,Pcbnew,(5.1.5)-3*
G04 #@! TF.CreationDate,2020-06-27T22:24:07+10:00*
G04 #@! TF.ProjectId,external_psu,65787465-726e-4616-9c5f-7073752e6b69,1.0.0*
G04 #@! TF.SameCoordinates,Original*
G04 #@! TF.FileFunction,Legend,Bot*
G04 #@! TF.FilePolarity,Positive*
%FSLAX46Y46*%
G04 Gerber Fmt 4.6, Leading zero omitted, Abs format (unit mm)*
G04 Created by KiCad (PCBNEW (5.1.5)-3) date 2020-06-27 22:24:07*
%MOMM*%
%LPD*%
G04 APERTURE LIST*
%ADD10C,0.120000*%
%ADD11C,1.000000*%
%ADD12C,0.300000*%
%ADD13C,0.500000*%
%ADD14C,0.700000*%
G04 APERTURE END LIST*
D10*
X100000000Y-125000000D02*
X95000000Y-120000000D01*
X125000000Y-125000000D02*
X120000000Y-120000000D01*
X130000000Y-125000000D02*
X125000000Y-120000000D01*
X95000000Y-100000000D02*
X100000000Y-105000000D01*
X95000000Y-95000000D02*
X105000000Y-105000000D01*
X100000000Y-95000000D02*
X110000000Y-105000000D01*
X115000000Y-105000000D02*
X105000000Y-95000000D01*
X135000000Y-125000000D02*
X125000000Y-115000000D01*
X95000000Y-80000000D02*
X140000000Y-125000000D01*
X140000000Y-120000000D02*
X95000000Y-75000000D01*
X95000000Y-70000000D02*
X140000000Y-115000000D01*
X140000000Y-110000000D02*
X95000000Y-65000000D01*
X100000000Y-65000000D02*
X140000000Y-105000000D01*
X105000000Y-65000000D02*
X140000000Y-100000000D01*
X140000000Y-95000000D02*
X110000000Y-65000000D01*
X115000000Y-65000000D02*
X140000000Y-90000000D01*
X110000000Y-55000000D02*
X140000000Y-85000000D01*
X115000000Y-55000000D02*
X140000000Y-80000000D01*
X120000000Y-55000000D02*
X140000000Y-75000000D01*
X125000000Y-55000000D02*
X140000000Y-70000000D01*
X130000000Y-55000000D02*
X140000000Y-65000000D01*
X135000000Y-55000000D02*
X140000000Y-60000000D01*
D11*
X145000000Y-128000000D02*
X145000000Y-52500000D01*
X90500000Y-52500000D02*
X90500000Y-128000000D01*
X145000000Y-52500000D02*
X90500000Y-52500000D01*
X90500000Y-128000000D02*
X145000000Y-128000000D01*
D12*
X93178571Y-81035714D02*
X93250000Y-81178571D01*
X93321428Y-81250000D01*
X93464285Y-81321428D01*
X93535714Y-81321428D01*
X93678571Y-81250000D01*
X93750000Y-81178571D01*
X93821428Y-81035714D01*
X93821428Y-80750000D01*
X93750000Y-80607142D01*
X93678571Y-80535714D01*
X93535714Y-80464285D01*
X93464285Y-80464285D01*
X93321428Y-80535714D01*
X93250000Y-80607142D01*
X93178571Y-80750000D01*
X93178571Y-81035714D01*
X93107142Y-81178571D01*
X93035714Y-81250000D01*
X92892857Y-81321428D01*
X92607142Y-81321428D01*
X92464285Y-81250000D01*
X92392857Y-81178571D01*
X92321428Y-81035714D01*
X92321428Y-80750000D01*
X92392857Y-80607142D01*
X92464285Y-80535714D01*
X92607142Y-80464285D01*
X92892857Y-80464285D01*
X93035714Y-80535714D01*
X93107142Y-80607142D01*
X93178571Y-80750000D01*
X93821428Y-79107142D02*
X93821428Y-79821428D01*
X93107142Y-79892857D01*
X93178571Y-79821428D01*
X93250000Y-79678571D01*
X93250000Y-79321428D01*
X93178571Y-79178571D01*
X93107142Y-79107142D01*
X92964285Y-79035714D01*
X92607142Y-79035714D01*
X92464285Y-79107142D01*
X92392857Y-79178571D01*
X92321428Y-79321428D01*
X92321428Y-79678571D01*
X92392857Y-79821428D01*
X92464285Y-79892857D01*
X92892857Y-78392857D02*
X92892857Y-77250000D01*
X93678571Y-76607142D02*
X93750000Y-76535714D01*
X93821428Y-76392857D01*
X93821428Y-76035714D01*
X93750000Y-75892857D01*
X93678571Y-75821428D01*
X93535714Y-75750000D01*
X93392857Y-75750000D01*
X93178571Y-75821428D01*
X92321428Y-76678571D01*
X92321428Y-75750000D01*
X93821428Y-74464285D02*
X93821428Y-74750000D01*
X93750000Y-74892857D01*
X93678571Y-74964285D01*
X93464285Y-75107142D01*
X93178571Y-75178571D01*
X92607142Y-75178571D01*
X92464285Y-75107142D01*
X92392857Y-75035714D01*
X92321428Y-74892857D01*
X92321428Y-74607142D01*
X92392857Y-74464285D01*
X92464285Y-74392857D01*
X92607142Y-74321428D01*
X92964285Y-74321428D01*
X93107142Y-74392857D01*
X93178571Y-74464285D01*
X93250000Y-74607142D01*
X93250000Y-74892857D01*
X93178571Y-75035714D01*
X93107142Y-75107142D01*
X92964285Y-75178571D01*
X93321428Y-73035714D02*
X92321428Y-73035714D01*
X93892857Y-73392857D02*
X92821428Y-73750000D01*
X92821428Y-72821428D01*
X93821428Y-71321428D02*
X92321428Y-70821428D01*
X93821428Y-70321428D01*
X92750000Y-69892857D02*
X92750000Y-69178571D01*
X92321428Y-70035714D02*
X93821428Y-69535714D01*
X92321428Y-69035714D01*
X92464285Y-67678571D02*
X92392857Y-67750000D01*
X92321428Y-67964285D01*
X92321428Y-68107142D01*
X92392857Y-68321428D01*
X92535714Y-68464285D01*
X92678571Y-68535714D01*
X92964285Y-68607142D01*
X93178571Y-68607142D01*
X93464285Y-68535714D01*
X93607142Y-68464285D01*
X93750000Y-68321428D01*
X93821428Y-68107142D01*
X93821428Y-67964285D01*
X93750000Y-67750000D01*
X93678571Y-67678571D01*
D13*
X109928571Y-60357142D02*
X109928571Y-57357142D01*
X108214285Y-60357142D01*
X108214285Y-57357142D01*
X106785714Y-58785714D02*
X105785714Y-58785714D01*
X105357142Y-60357142D02*
X106785714Y-60357142D01*
X106785714Y-57357142D01*
X105357142Y-57357142D01*
X104071428Y-57357142D02*
X104071428Y-59785714D01*
X103928571Y-60071428D01*
X103785714Y-60214285D01*
X103500000Y-60357142D01*
X102928571Y-60357142D01*
X102642857Y-60214285D01*
X102500000Y-60071428D01*
X102357142Y-59785714D01*
X102357142Y-57357142D01*
X101357142Y-57357142D02*
X99642857Y-57357142D01*
X100500000Y-60357142D02*
X100500000Y-57357142D01*
X96928571Y-60357142D02*
X97928571Y-58928571D01*
X98642857Y-60357142D02*
X98642857Y-57357142D01*
X97500000Y-57357142D01*
X97214285Y-57500000D01*
X97071428Y-57642857D01*
X96928571Y-57928571D01*
X96928571Y-58357142D01*
X97071428Y-58642857D01*
X97214285Y-58785714D01*
X97500000Y-58928571D01*
X98642857Y-58928571D01*
X95785714Y-59500000D02*
X94357142Y-59500000D01*
X96071428Y-60357142D02*
X95071428Y-57357142D01*
X94071428Y-60357142D01*
X91642857Y-60357142D02*
X93071428Y-60357142D01*
X93071428Y-57357142D01*
X100428571Y-93357142D02*
X101857142Y-93357142D01*
X101857142Y-90357142D01*
X99428571Y-93357142D02*
X99428571Y-90357142D01*
X98428571Y-90357142D02*
X97428571Y-93357142D01*
X96428571Y-90357142D01*
X95428571Y-91785714D02*
X94428571Y-91785714D01*
X94000000Y-93357142D02*
X95428571Y-93357142D01*
X95428571Y-90357142D01*
X94000000Y-90357142D01*
D14*
X117214285Y-110257142D02*
X117214285Y-107257142D01*
X116500000Y-107257142D01*
X116071428Y-107400000D01*
X115785714Y-107685714D01*
X115642857Y-107971428D01*
X115500000Y-108542857D01*
X115500000Y-108971428D01*
X115642857Y-109542857D01*
X115785714Y-109828571D01*
X116071428Y-110114285D01*
X116500000Y-110257142D01*
X117214285Y-110257142D01*
X114357142Y-109400000D02*
X112928571Y-109400000D01*
X114642857Y-110257142D02*
X113642857Y-107257142D01*
X112642857Y-110257142D01*
X111642857Y-110257142D02*
X111642857Y-107257142D01*
X109928571Y-110257142D01*
X109928571Y-107257142D01*
X106928571Y-107400000D02*
X107214285Y-107257142D01*
X107642857Y-107257142D01*
X108071428Y-107400000D01*
X108357142Y-107685714D01*
X108500000Y-107971428D01*
X108642857Y-108542857D01*
X108642857Y-108971428D01*
X108500000Y-109542857D01*
X108357142Y-109828571D01*
X108071428Y-110114285D01*
X107642857Y-110257142D01*
X107357142Y-110257142D01*
X106928571Y-110114285D01*
X106785714Y-109971428D01*
X106785714Y-108971428D01*
X107357142Y-108971428D01*
X105500000Y-108685714D02*
X104500000Y-108685714D01*
X104071428Y-110257142D02*
X105500000Y-110257142D01*
X105500000Y-107257142D01*
X104071428Y-107257142D01*
X101071428Y-110257142D02*
X102071428Y-108828571D01*
X102785714Y-110257142D02*
X102785714Y-107257142D01*
X101642857Y-107257142D01*
X101357142Y-107400000D01*
X101214285Y-107542857D01*
X101071428Y-107828571D01*
X101071428Y-108257142D01*
X101214285Y-108542857D01*
X101357142Y-108685714D01*
X101642857Y-108828571D01*
X102785714Y-108828571D01*
X99785714Y-109971428D02*
X99642857Y-110114285D01*
X99785714Y-110257142D01*
X99928571Y-110114285D01*
X99785714Y-109971428D01*
X99785714Y-110257142D01*
X99785714Y-108400000D02*
X99642857Y-108542857D01*
X99785714Y-108685714D01*
X99928571Y-108542857D01*
X99785714Y-108400000D01*
X99785714Y-108685714D01*
X123642857Y-115457142D02*
X123642857Y-112457142D01*
X123642857Y-113885714D02*
X121928571Y-113885714D01*
X121928571Y-115457142D02*
X121928571Y-112457142D01*
X120500000Y-115457142D02*
X120500000Y-112457142D01*
X117500000Y-112600000D02*
X117785714Y-112457142D01*
X118214285Y-112457142D01*
X118642857Y-112600000D01*
X118928571Y-112885714D01*
X119071428Y-113171428D01*
X119214285Y-113742857D01*
X119214285Y-114171428D01*
X119071428Y-114742857D01*
X118928571Y-115028571D01*
X118642857Y-115314285D01*
X118214285Y-115457142D01*
X117928571Y-115457142D01*
X117500000Y-115314285D01*
X117357142Y-115171428D01*
X117357142Y-114171428D01*
X117928571Y-114171428D01*
X116071428Y-115457142D02*
X116071428Y-112457142D01*
X116071428Y-113885714D02*
X114357142Y-113885714D01*
X114357142Y-115457142D02*
X114357142Y-112457142D01*
X111071428Y-112457142D02*
X110071428Y-115457142D01*
X109071428Y-112457142D01*
X107500000Y-112457142D02*
X106928571Y-112457142D01*
X106642857Y-112600000D01*
X106357142Y-112885714D01*
X106214285Y-113457142D01*
X106214285Y-114457142D01*
X106357142Y-115028571D01*
X106642857Y-115314285D01*
X106928571Y-115457142D01*
X107500000Y-115457142D01*
X107785714Y-115314285D01*
X108071428Y-115028571D01*
X108214285Y-114457142D01*
X108214285Y-113457142D01*
X108071428Y-112885714D01*
X107785714Y-112600000D01*
X107500000Y-112457142D01*
X103500000Y-115457142D02*
X104928571Y-115457142D01*
X104928571Y-112457142D01*
X102928571Y-112457142D02*
X101214285Y-112457142D01*
X102071428Y-115457142D02*
X102071428Y-112457142D01*
X100357142Y-114600000D02*
X98928571Y-114600000D01*
X100642857Y-115457142D02*
X99642857Y-112457142D01*
X98642857Y-115457142D01*
X96071428Y-112600000D02*
X96357142Y-112457142D01*
X96785714Y-112457142D01*
X97214285Y-112600000D01*
X97500000Y-112885714D01*
X97642857Y-113171428D01*
X97785714Y-113742857D01*
X97785714Y-114171428D01*
X97642857Y-114742857D01*
X97500000Y-115028571D01*
X97214285Y-115314285D01*
X96785714Y-115457142D01*
X96500000Y-115457142D01*
X96071428Y-115314285D01*
X95928571Y-115171428D01*
X95928571Y-114171428D01*
X96500000Y-114171428D01*
X94642857Y-113885714D02*
X93642857Y-113885714D01*
X93214285Y-115457142D02*
X94642857Y-115457142D01*
X94642857Y-112457142D01*
X93214285Y-112457142D01*
M02*
