G04 #@! TF.GenerationSoftware,KiCad,Pcbnew,(5.1.5)-3*
G04 #@! TF.CreationDate,2020-06-27T22:24:07+10:00*
G04 #@! TF.ProjectId,external_psu,65787465-726e-4616-9c5f-7073752e6b69,1.0.0*
G04 #@! TF.SameCoordinates,Original*
G04 #@! TF.FileFunction,Soldermask,Bot*
G04 #@! TF.FilePolarity,Negative*
%FSLAX46Y46*%
G04 Gerber Fmt 4.6, Leading zero omitted, Abs format (unit mm)*
G04 Created by KiCad (PCBNEW (5.1.5)-3) date 2020-06-27 22:24:07*
%MOMM*%
%LPD*%
G04 APERTURE LIST*
%ADD10C,0.100000*%
G04 APERTURE END LIST*
D10*
G36*
X184375256Y-132391298D02*
G01*
X184481579Y-132412447D01*
X184782042Y-132536903D01*
X185052451Y-132717585D01*
X185282415Y-132947549D01*
X185463097Y-133217958D01*
X185587553Y-133518421D01*
X185651000Y-133837391D01*
X185651000Y-134162609D01*
X185587553Y-134481579D01*
X185463097Y-134782042D01*
X185282415Y-135052451D01*
X185052451Y-135282415D01*
X184782042Y-135463097D01*
X184481579Y-135587553D01*
X184375256Y-135608702D01*
X184162611Y-135651000D01*
X183837389Y-135651000D01*
X183624744Y-135608702D01*
X183518421Y-135587553D01*
X183217958Y-135463097D01*
X182947549Y-135282415D01*
X182717585Y-135052451D01*
X182536903Y-134782042D01*
X182412447Y-134481579D01*
X182349000Y-134162609D01*
X182349000Y-133837391D01*
X182412447Y-133518421D01*
X182536903Y-133217958D01*
X182717585Y-132947549D01*
X182947549Y-132717585D01*
X183217958Y-132536903D01*
X183518421Y-132412447D01*
X183624744Y-132391298D01*
X183837389Y-132349000D01*
X184162611Y-132349000D01*
X184375256Y-132391298D01*
G37*
G36*
X96375256Y-132391298D02*
G01*
X96481579Y-132412447D01*
X96782042Y-132536903D01*
X97052451Y-132717585D01*
X97282415Y-132947549D01*
X97463097Y-133217958D01*
X97587553Y-133518421D01*
X97651000Y-133837391D01*
X97651000Y-134162609D01*
X97587553Y-134481579D01*
X97463097Y-134782042D01*
X97282415Y-135052451D01*
X97052451Y-135282415D01*
X96782042Y-135463097D01*
X96481579Y-135587553D01*
X96375256Y-135608702D01*
X96162611Y-135651000D01*
X95837389Y-135651000D01*
X95624744Y-135608702D01*
X95518421Y-135587553D01*
X95217958Y-135463097D01*
X94947549Y-135282415D01*
X94717585Y-135052451D01*
X94536903Y-134782042D01*
X94412447Y-134481579D01*
X94349000Y-134162609D01*
X94349000Y-133837391D01*
X94412447Y-133518421D01*
X94536903Y-133217958D01*
X94717585Y-132947549D01*
X94947549Y-132717585D01*
X95217958Y-132536903D01*
X95518421Y-132412447D01*
X95624744Y-132391298D01*
X95837389Y-132349000D01*
X96162611Y-132349000D01*
X96375256Y-132391298D01*
G37*
G36*
X135761000Y-119541000D02*
G01*
X134459000Y-119541000D01*
X134459000Y-118239000D01*
X135761000Y-118239000D01*
X135761000Y-119541000D01*
G37*
G36*
X158159890Y-115724017D02*
G01*
X158218343Y-115748229D01*
X158278364Y-115773091D01*
X158384988Y-115844335D01*
X158475665Y-115935012D01*
X158546909Y-116041636D01*
X158595983Y-116160110D01*
X158621000Y-116285882D01*
X158621000Y-116414118D01*
X158595983Y-116539890D01*
X158546909Y-116658364D01*
X158475665Y-116764988D01*
X158384988Y-116855665D01*
X158278364Y-116926909D01*
X158278363Y-116926910D01*
X158278362Y-116926910D01*
X158159890Y-116975983D01*
X158034119Y-117001000D01*
X157905881Y-117001000D01*
X157780110Y-116975983D01*
X157661638Y-116926910D01*
X157661637Y-116926910D01*
X157661636Y-116926909D01*
X157555012Y-116855665D01*
X157464335Y-116764988D01*
X157393091Y-116658364D01*
X157344017Y-116539890D01*
X157319000Y-116414118D01*
X157319000Y-116285882D01*
X157344017Y-116160110D01*
X157393091Y-116041636D01*
X157464335Y-115935012D01*
X157555012Y-115844335D01*
X157661636Y-115773091D01*
X157721658Y-115748229D01*
X157780110Y-115724017D01*
X157905881Y-115699000D01*
X158034119Y-115699000D01*
X158159890Y-115724017D01*
G37*
G36*
X186748228Y-114681703D02*
G01*
X186903100Y-114745853D01*
X187042481Y-114838985D01*
X187161015Y-114957519D01*
X187254147Y-115096900D01*
X187318297Y-115251772D01*
X187351000Y-115416184D01*
X187351000Y-115583816D01*
X187318297Y-115748228D01*
X187254147Y-115903100D01*
X187161015Y-116042481D01*
X187042481Y-116161015D01*
X186903100Y-116254147D01*
X186748228Y-116318297D01*
X186583816Y-116351000D01*
X186416184Y-116351000D01*
X186251772Y-116318297D01*
X186096900Y-116254147D01*
X185957519Y-116161015D01*
X185838985Y-116042481D01*
X185745853Y-115903100D01*
X185681703Y-115748228D01*
X185649000Y-115583816D01*
X185649000Y-115416184D01*
X185681703Y-115251772D01*
X185745853Y-115096900D01*
X185838985Y-114957519D01*
X185957519Y-114838985D01*
X186096900Y-114745853D01*
X186251772Y-114681703D01*
X186416184Y-114649000D01*
X186583816Y-114649000D01*
X186748228Y-114681703D01*
G37*
G36*
X167248228Y-114681703D02*
G01*
X167403100Y-114745853D01*
X167542481Y-114838985D01*
X167661015Y-114957519D01*
X167754147Y-115096900D01*
X167818297Y-115251772D01*
X167851000Y-115416184D01*
X167851000Y-115583816D01*
X167818297Y-115748228D01*
X167754147Y-115903100D01*
X167661015Y-116042481D01*
X167542481Y-116161015D01*
X167403100Y-116254147D01*
X167248228Y-116318297D01*
X167083816Y-116351000D01*
X166916184Y-116351000D01*
X166751772Y-116318297D01*
X166596900Y-116254147D01*
X166457519Y-116161015D01*
X166338985Y-116042481D01*
X166245853Y-115903100D01*
X166181703Y-115748228D01*
X166149000Y-115583816D01*
X166149000Y-115416184D01*
X166181703Y-115251772D01*
X166245853Y-115096900D01*
X166338985Y-114957519D01*
X166457519Y-114838985D01*
X166596900Y-114745853D01*
X166751772Y-114681703D01*
X166916184Y-114649000D01*
X167083816Y-114649000D01*
X167248228Y-114681703D01*
G37*
G36*
X187351000Y-114351000D02*
G01*
X185649000Y-114351000D01*
X185649000Y-112649000D01*
X187351000Y-112649000D01*
X187351000Y-114351000D01*
G37*
G36*
X167851000Y-114351000D02*
G01*
X166149000Y-114351000D01*
X166149000Y-112649000D01*
X167851000Y-112649000D01*
X167851000Y-114351000D01*
G37*
G36*
X167595170Y-99507879D02*
G01*
X167889868Y-99566498D01*
X168445067Y-99796469D01*
X168730867Y-99987435D01*
X168944733Y-100130335D01*
X169369665Y-100555267D01*
X169463039Y-100695012D01*
X169703531Y-101054933D01*
X169933502Y-101610132D01*
X170050740Y-102199528D01*
X170050740Y-102800472D01*
X169933502Y-103389868D01*
X169703531Y-103945067D01*
X169512565Y-104230867D01*
X169369665Y-104444733D01*
X168944733Y-104869665D01*
X168730867Y-105012565D01*
X168445067Y-105203531D01*
X167889868Y-105433502D01*
X167595170Y-105492121D01*
X167300473Y-105550740D01*
X166699527Y-105550740D01*
X166404830Y-105492121D01*
X166110132Y-105433502D01*
X165554933Y-105203531D01*
X165269133Y-105012565D01*
X165055267Y-104869665D01*
X164630335Y-104444733D01*
X164487435Y-104230867D01*
X164296469Y-103945067D01*
X164066498Y-103389868D01*
X163949260Y-102800472D01*
X163949260Y-102199528D01*
X164066498Y-101610132D01*
X164296469Y-101054933D01*
X164536961Y-100695012D01*
X164630335Y-100555267D01*
X165055267Y-100130335D01*
X165269133Y-99987435D01*
X165554933Y-99796469D01*
X166110132Y-99566498D01*
X166404830Y-99507879D01*
X166699527Y-99449260D01*
X167300473Y-99449260D01*
X167595170Y-99507879D01*
G37*
G36*
X135299890Y-100484017D02*
G01*
X135418364Y-100533091D01*
X135524988Y-100604335D01*
X135615665Y-100695012D01*
X135686909Y-100801636D01*
X135735983Y-100920110D01*
X135761000Y-101045882D01*
X135761000Y-101174118D01*
X135735983Y-101299890D01*
X135686909Y-101418364D01*
X135615665Y-101524988D01*
X135524988Y-101615665D01*
X135418364Y-101686909D01*
X135418363Y-101686910D01*
X135418362Y-101686910D01*
X135299890Y-101735983D01*
X135174119Y-101761000D01*
X135045881Y-101761000D01*
X134920110Y-101735983D01*
X134801638Y-101686910D01*
X134801637Y-101686910D01*
X134801636Y-101686909D01*
X134695012Y-101615665D01*
X134604335Y-101524988D01*
X134533091Y-101418364D01*
X134484017Y-101299890D01*
X134459000Y-101174118D01*
X134459000Y-101045882D01*
X134484017Y-100920110D01*
X134533091Y-100801636D01*
X134604335Y-100695012D01*
X134695012Y-100604335D01*
X134801636Y-100533091D01*
X134920110Y-100484017D01*
X135045881Y-100459000D01*
X135174119Y-100459000D01*
X135299890Y-100484017D01*
G37*
G36*
X158159890Y-100484017D02*
G01*
X158278364Y-100533091D01*
X158384988Y-100604335D01*
X158475665Y-100695012D01*
X158546909Y-100801636D01*
X158595983Y-100920110D01*
X158621000Y-101045882D01*
X158621000Y-101174118D01*
X158595983Y-101299890D01*
X158546909Y-101418364D01*
X158475665Y-101524988D01*
X158384988Y-101615665D01*
X158278364Y-101686909D01*
X158278363Y-101686910D01*
X158278362Y-101686910D01*
X158159890Y-101735983D01*
X158034119Y-101761000D01*
X157905881Y-101761000D01*
X157780110Y-101735983D01*
X157661638Y-101686910D01*
X157661637Y-101686910D01*
X157661636Y-101686909D01*
X157555012Y-101615665D01*
X157464335Y-101524988D01*
X157393091Y-101418364D01*
X157344017Y-101299890D01*
X157319000Y-101174118D01*
X157319000Y-101045882D01*
X157344017Y-100920110D01*
X157393091Y-100801636D01*
X157464335Y-100695012D01*
X157555012Y-100604335D01*
X157661636Y-100533091D01*
X157780110Y-100484017D01*
X157905881Y-100459000D01*
X158034119Y-100459000D01*
X158159890Y-100484017D01*
G37*
G36*
X167595170Y-89007879D02*
G01*
X167889868Y-89066498D01*
X168445067Y-89296469D01*
X168730867Y-89487435D01*
X168944733Y-89630335D01*
X169369665Y-90055267D01*
X169512565Y-90269133D01*
X169703531Y-90554933D01*
X169933502Y-91110132D01*
X170050740Y-91699528D01*
X170050740Y-92300472D01*
X169933502Y-92889868D01*
X169703531Y-93445067D01*
X169512565Y-93730867D01*
X169369665Y-93944733D01*
X168944733Y-94369665D01*
X168730867Y-94512565D01*
X168445067Y-94703531D01*
X167889868Y-94933502D01*
X167595170Y-94992121D01*
X167300473Y-95050740D01*
X166699527Y-95050740D01*
X166404830Y-94992121D01*
X166110132Y-94933502D01*
X165554933Y-94703531D01*
X165269133Y-94512565D01*
X165055267Y-94369665D01*
X164630335Y-93944733D01*
X164487435Y-93730867D01*
X164296469Y-93445067D01*
X164066498Y-92889868D01*
X163949260Y-92300472D01*
X163949260Y-91699528D01*
X164066498Y-91110132D01*
X164296469Y-90554933D01*
X164487435Y-90269133D01*
X164630335Y-90055267D01*
X165055267Y-89630335D01*
X165269133Y-89487435D01*
X165554933Y-89296469D01*
X166110132Y-89066498D01*
X166404830Y-89007879D01*
X166699527Y-88949260D01*
X167300473Y-88949260D01*
X167595170Y-89007879D01*
G37*
G36*
X98595170Y-82007879D02*
G01*
X98889868Y-82066498D01*
X99445067Y-82296469D01*
X99730867Y-82487435D01*
X99944733Y-82630335D01*
X100369665Y-83055267D01*
X100500964Y-83251771D01*
X100703531Y-83554933D01*
X100933502Y-84110132D01*
X100975855Y-84323054D01*
X101037708Y-84634009D01*
X101050740Y-84699528D01*
X101050740Y-85300472D01*
X100933502Y-85889868D01*
X100703531Y-86445067D01*
X100512565Y-86730867D01*
X100369665Y-86944733D01*
X99944733Y-87369665D01*
X99730867Y-87512565D01*
X99445067Y-87703531D01*
X98889868Y-87933502D01*
X98595170Y-87992121D01*
X98300473Y-88050740D01*
X97699527Y-88050740D01*
X97404830Y-87992121D01*
X97110132Y-87933502D01*
X96554933Y-87703531D01*
X96269133Y-87512565D01*
X96055267Y-87369665D01*
X95630335Y-86944733D01*
X95487435Y-86730867D01*
X95296469Y-86445067D01*
X95066498Y-85889868D01*
X94949260Y-85300472D01*
X94949260Y-84699528D01*
X94962293Y-84634009D01*
X95024145Y-84323054D01*
X95066498Y-84110132D01*
X95296469Y-83554933D01*
X95499036Y-83251771D01*
X95630335Y-83055267D01*
X96055267Y-82630335D01*
X96269133Y-82487435D01*
X96554933Y-82296469D01*
X97110132Y-82066498D01*
X97404830Y-82007879D01*
X97699527Y-81949260D01*
X98300473Y-81949260D01*
X98595170Y-82007879D01*
G37*
G36*
X158159272Y-84133428D02*
G01*
X158345991Y-84210770D01*
X158345993Y-84210771D01*
X158514037Y-84323054D01*
X158656946Y-84465963D01*
X158769229Y-84634007D01*
X158769230Y-84634009D01*
X158846572Y-84820728D01*
X158886000Y-85018947D01*
X158886000Y-85221053D01*
X158846572Y-85419272D01*
X158769230Y-85605991D01*
X158769229Y-85605993D01*
X158656946Y-85774037D01*
X158514037Y-85916946D01*
X158345993Y-86029229D01*
X158345992Y-86029230D01*
X158345991Y-86029230D01*
X158159272Y-86106572D01*
X157961053Y-86146000D01*
X157758947Y-86146000D01*
X157560728Y-86106572D01*
X157374009Y-86029230D01*
X157374008Y-86029230D01*
X157374007Y-86029229D01*
X157205963Y-85916946D01*
X157063054Y-85774037D01*
X156950771Y-85605993D01*
X156950770Y-85605991D01*
X156873428Y-85419272D01*
X156834000Y-85221053D01*
X156834000Y-85018947D01*
X156873428Y-84820728D01*
X156950770Y-84634009D01*
X156950771Y-84634007D01*
X157063054Y-84465963D01*
X157205963Y-84323054D01*
X157374007Y-84210771D01*
X157374009Y-84210770D01*
X157560728Y-84133428D01*
X157758947Y-84094000D01*
X157961053Y-84094000D01*
X158159272Y-84133428D01*
G37*
G36*
X112439272Y-84133428D02*
G01*
X112625991Y-84210770D01*
X112625993Y-84210771D01*
X112794037Y-84323054D01*
X112936946Y-84465963D01*
X113049229Y-84634007D01*
X113049230Y-84634009D01*
X113126572Y-84820728D01*
X113166000Y-85018947D01*
X113166000Y-85221053D01*
X113126572Y-85419272D01*
X113049230Y-85605991D01*
X113049229Y-85605993D01*
X112936946Y-85774037D01*
X112794037Y-85916946D01*
X112625993Y-86029229D01*
X112625992Y-86029230D01*
X112625991Y-86029230D01*
X112439272Y-86106572D01*
X112241053Y-86146000D01*
X112038947Y-86146000D01*
X111840728Y-86106572D01*
X111654009Y-86029230D01*
X111654008Y-86029230D01*
X111654007Y-86029229D01*
X111485963Y-85916946D01*
X111343054Y-85774037D01*
X111230771Y-85605993D01*
X111230770Y-85605991D01*
X111153428Y-85419272D01*
X111114000Y-85221053D01*
X111114000Y-85018947D01*
X111153428Y-84820728D01*
X111230770Y-84634009D01*
X111230771Y-84634007D01*
X111343054Y-84465963D01*
X111485963Y-84323054D01*
X111654007Y-84210771D01*
X111654009Y-84210770D01*
X111840728Y-84133428D01*
X112038947Y-84094000D01*
X112241053Y-84094000D01*
X112439272Y-84133428D01*
G37*
G36*
X186748228Y-82681703D02*
G01*
X186903100Y-82745853D01*
X187042481Y-82838985D01*
X187161015Y-82957519D01*
X187254147Y-83096900D01*
X187318297Y-83251772D01*
X187351000Y-83416184D01*
X187351000Y-83583816D01*
X187318297Y-83748228D01*
X187254147Y-83903100D01*
X187161015Y-84042481D01*
X187042481Y-84161015D01*
X186903100Y-84254147D01*
X186748228Y-84318297D01*
X186583816Y-84351000D01*
X186416184Y-84351000D01*
X186251772Y-84318297D01*
X186096900Y-84254147D01*
X185957519Y-84161015D01*
X185838985Y-84042481D01*
X185745853Y-83903100D01*
X185681703Y-83748228D01*
X185649000Y-83583816D01*
X185649000Y-83416184D01*
X185681703Y-83251772D01*
X185745853Y-83096900D01*
X185838985Y-82957519D01*
X185957519Y-82838985D01*
X186096900Y-82745853D01*
X186251772Y-82681703D01*
X186416184Y-82649000D01*
X186583816Y-82649000D01*
X186748228Y-82681703D01*
G37*
G36*
X167248228Y-82681703D02*
G01*
X167403100Y-82745853D01*
X167542481Y-82838985D01*
X167661015Y-82957519D01*
X167754147Y-83096900D01*
X167818297Y-83251772D01*
X167851000Y-83416184D01*
X167851000Y-83583816D01*
X167818297Y-83748228D01*
X167754147Y-83903100D01*
X167661015Y-84042481D01*
X167542481Y-84161015D01*
X167403100Y-84254147D01*
X167248228Y-84318297D01*
X167083816Y-84351000D01*
X166916184Y-84351000D01*
X166751772Y-84318297D01*
X166596900Y-84254147D01*
X166457519Y-84161015D01*
X166338985Y-84042481D01*
X166245853Y-83903100D01*
X166181703Y-83748228D01*
X166149000Y-83583816D01*
X166149000Y-83416184D01*
X166181703Y-83251772D01*
X166245853Y-83096900D01*
X166338985Y-82957519D01*
X166457519Y-82838985D01*
X166596900Y-82745853D01*
X166751772Y-82681703D01*
X166916184Y-82649000D01*
X167083816Y-82649000D01*
X167248228Y-82681703D01*
G37*
G36*
X187351000Y-82351000D02*
G01*
X185649000Y-82351000D01*
X185649000Y-80649000D01*
X187351000Y-80649000D01*
X187351000Y-82351000D01*
G37*
G36*
X167851000Y-82351000D02*
G01*
X166149000Y-82351000D01*
X166149000Y-80649000D01*
X167851000Y-80649000D01*
X167851000Y-82351000D01*
G37*
G36*
X172595170Y-71507879D02*
G01*
X172889868Y-71566498D01*
X173445067Y-71796469D01*
X173730867Y-71987435D01*
X173944733Y-72130335D01*
X174369665Y-72555267D01*
X174512565Y-72769133D01*
X174703531Y-73054933D01*
X174933502Y-73610132D01*
X174933502Y-73610133D01*
X175050740Y-74199527D01*
X175050740Y-74800473D01*
X174998907Y-75061053D01*
X174933502Y-75389868D01*
X174703531Y-75945067D01*
X174512565Y-76230867D01*
X174369665Y-76444733D01*
X173944733Y-76869665D01*
X173730867Y-77012565D01*
X173445067Y-77203531D01*
X172889868Y-77433502D01*
X172595170Y-77492121D01*
X172300473Y-77550740D01*
X171699527Y-77550740D01*
X171404830Y-77492121D01*
X171110132Y-77433502D01*
X170554933Y-77203531D01*
X170269133Y-77012565D01*
X170055267Y-76869665D01*
X169630335Y-76444733D01*
X169487435Y-76230867D01*
X169296469Y-75945067D01*
X169066498Y-75389868D01*
X169001093Y-75061053D01*
X168949260Y-74800473D01*
X168949260Y-74199527D01*
X169066498Y-73610133D01*
X169066498Y-73610132D01*
X169296469Y-73054933D01*
X169487435Y-72769133D01*
X169630335Y-72555267D01*
X170055267Y-72130335D01*
X170269133Y-71987435D01*
X170554933Y-71796469D01*
X171110132Y-71566498D01*
X171404830Y-71507879D01*
X171699527Y-71449260D01*
X172300473Y-71449260D01*
X172595170Y-71507879D01*
G37*
G36*
X158159272Y-73973428D02*
G01*
X158345991Y-74050770D01*
X158345993Y-74050771D01*
X158514037Y-74163054D01*
X158656946Y-74305963D01*
X158769229Y-74474007D01*
X158769230Y-74474009D01*
X158846572Y-74660728D01*
X158886000Y-74858947D01*
X158886000Y-75061053D01*
X158846572Y-75259272D01*
X158792477Y-75389867D01*
X158769229Y-75445993D01*
X158656946Y-75614037D01*
X158514037Y-75756946D01*
X158345993Y-75869229D01*
X158345992Y-75869230D01*
X158345991Y-75869230D01*
X158159272Y-75946572D01*
X157961053Y-75986000D01*
X157758947Y-75986000D01*
X157560728Y-75946572D01*
X157374009Y-75869230D01*
X157374008Y-75869230D01*
X157374007Y-75869229D01*
X157205963Y-75756946D01*
X157063054Y-75614037D01*
X156950771Y-75445993D01*
X156927523Y-75389867D01*
X156873428Y-75259272D01*
X156834000Y-75061053D01*
X156834000Y-74858947D01*
X156873428Y-74660728D01*
X156950770Y-74474009D01*
X156950771Y-74474007D01*
X157063054Y-74305963D01*
X157205963Y-74163054D01*
X157374007Y-74050771D01*
X157374009Y-74050770D01*
X157560728Y-73973428D01*
X157758947Y-73934000D01*
X157961053Y-73934000D01*
X158159272Y-73973428D01*
G37*
G36*
X167248228Y-67681703D02*
G01*
X167403100Y-67745853D01*
X167542481Y-67838985D01*
X167661015Y-67957519D01*
X167754147Y-68096900D01*
X167818297Y-68251772D01*
X167851000Y-68416184D01*
X167851000Y-68583816D01*
X167818297Y-68748228D01*
X167754147Y-68903100D01*
X167661015Y-69042481D01*
X167542481Y-69161015D01*
X167403100Y-69254147D01*
X167248228Y-69318297D01*
X167083816Y-69351000D01*
X166916184Y-69351000D01*
X166751772Y-69318297D01*
X166596900Y-69254147D01*
X166457519Y-69161015D01*
X166338985Y-69042481D01*
X166245853Y-68903100D01*
X166181703Y-68748228D01*
X166149000Y-68583816D01*
X166149000Y-68416184D01*
X166181703Y-68251772D01*
X166245853Y-68096900D01*
X166338985Y-67957519D01*
X166457519Y-67838985D01*
X166596900Y-67745853D01*
X166751772Y-67681703D01*
X166916184Y-67649000D01*
X167083816Y-67649000D01*
X167248228Y-67681703D01*
G37*
G36*
X186748228Y-67681703D02*
G01*
X186903100Y-67745853D01*
X187042481Y-67838985D01*
X187161015Y-67957519D01*
X187254147Y-68096900D01*
X187318297Y-68251772D01*
X187351000Y-68416184D01*
X187351000Y-68583816D01*
X187318297Y-68748228D01*
X187254147Y-68903100D01*
X187161015Y-69042481D01*
X187042481Y-69161015D01*
X186903100Y-69254147D01*
X186748228Y-69318297D01*
X186583816Y-69351000D01*
X186416184Y-69351000D01*
X186251772Y-69318297D01*
X186096900Y-69254147D01*
X185957519Y-69161015D01*
X185838985Y-69042481D01*
X185745853Y-68903100D01*
X185681703Y-68748228D01*
X185649000Y-68583816D01*
X185649000Y-68416184D01*
X185681703Y-68251772D01*
X185745853Y-68096900D01*
X185838985Y-67957519D01*
X185957519Y-67838985D01*
X186096900Y-67745853D01*
X186251772Y-67681703D01*
X186416184Y-67649000D01*
X186583816Y-67649000D01*
X186748228Y-67681703D01*
G37*
G36*
X98595170Y-61507879D02*
G01*
X98889868Y-61566498D01*
X99445067Y-61796469D01*
X99730867Y-61987435D01*
X99944733Y-62130335D01*
X100369665Y-62555267D01*
X100512565Y-62769133D01*
X100703531Y-63054933D01*
X100933502Y-63610132D01*
X100933502Y-63610133D01*
X101050740Y-64199527D01*
X101050740Y-64800473D01*
X101030733Y-64901053D01*
X100933502Y-65389868D01*
X100703531Y-65945067D01*
X100512565Y-66230867D01*
X100369665Y-66444733D01*
X99944733Y-66869665D01*
X99730867Y-67012565D01*
X99445067Y-67203531D01*
X98889868Y-67433502D01*
X98595170Y-67492121D01*
X98300473Y-67550740D01*
X97699527Y-67550740D01*
X97404830Y-67492121D01*
X97110132Y-67433502D01*
X96554933Y-67203531D01*
X96269133Y-67012565D01*
X96055267Y-66869665D01*
X95630335Y-66444733D01*
X95487435Y-66230867D01*
X95296469Y-65945067D01*
X95066498Y-65389868D01*
X94969267Y-64901053D01*
X94949260Y-64800473D01*
X94949260Y-64199527D01*
X95066498Y-63610133D01*
X95066498Y-63610132D01*
X95296469Y-63054933D01*
X95487435Y-62769133D01*
X95630335Y-62555267D01*
X96055267Y-62130335D01*
X96269133Y-61987435D01*
X96554933Y-61796469D01*
X97110132Y-61566498D01*
X97404830Y-61507879D01*
X97699527Y-61449260D01*
X98300473Y-61449260D01*
X98595170Y-61507879D01*
G37*
G36*
X187351000Y-67351000D02*
G01*
X185649000Y-67351000D01*
X185649000Y-65649000D01*
X187351000Y-65649000D01*
X187351000Y-67351000D01*
G37*
G36*
X167851000Y-67351000D02*
G01*
X166149000Y-67351000D01*
X166149000Y-65649000D01*
X167851000Y-65649000D01*
X167851000Y-67351000D01*
G37*
G36*
X158159272Y-63813428D02*
G01*
X158345991Y-63890770D01*
X158345993Y-63890771D01*
X158514037Y-64003054D01*
X158656946Y-64145963D01*
X158769229Y-64314007D01*
X158769230Y-64314009D01*
X158846572Y-64500728D01*
X158886000Y-64698947D01*
X158886000Y-64901053D01*
X158846572Y-65099272D01*
X158769230Y-65285991D01*
X158769229Y-65285993D01*
X158656946Y-65454037D01*
X158514037Y-65596946D01*
X158345993Y-65709229D01*
X158345992Y-65709230D01*
X158345991Y-65709230D01*
X158159272Y-65786572D01*
X157961053Y-65826000D01*
X157758947Y-65826000D01*
X157560728Y-65786572D01*
X157374009Y-65709230D01*
X157374008Y-65709230D01*
X157374007Y-65709229D01*
X157205963Y-65596946D01*
X157063054Y-65454037D01*
X156950771Y-65285993D01*
X156950770Y-65285991D01*
X156873428Y-65099272D01*
X156834000Y-64901053D01*
X156834000Y-64698947D01*
X156873428Y-64500728D01*
X156950770Y-64314009D01*
X156950771Y-64314007D01*
X157063054Y-64145963D01*
X157205963Y-64003054D01*
X157374007Y-63890771D01*
X157374009Y-63890770D01*
X157560728Y-63813428D01*
X157758947Y-63774000D01*
X157961053Y-63774000D01*
X158159272Y-63813428D01*
G37*
G36*
X113166000Y-65826000D02*
G01*
X111114000Y-65826000D01*
X111114000Y-63774000D01*
X113166000Y-63774000D01*
X113166000Y-65826000D01*
G37*
G36*
X167595170Y-54507879D02*
G01*
X167889868Y-54566498D01*
X168445067Y-54796469D01*
X168730867Y-54987435D01*
X168944733Y-55130335D01*
X169369665Y-55555267D01*
X169512565Y-55769133D01*
X169703531Y-56054933D01*
X169933502Y-56610132D01*
X170050740Y-57199528D01*
X170050740Y-57800472D01*
X169933502Y-58389868D01*
X169703531Y-58945067D01*
X169512565Y-59230867D01*
X169369665Y-59444733D01*
X168944733Y-59869665D01*
X168730867Y-60012565D01*
X168445067Y-60203531D01*
X167889868Y-60433502D01*
X167595170Y-60492121D01*
X167300473Y-60550740D01*
X166699527Y-60550740D01*
X166404830Y-60492121D01*
X166110132Y-60433502D01*
X165554933Y-60203531D01*
X165269133Y-60012565D01*
X165055267Y-59869665D01*
X164630335Y-59444733D01*
X164487435Y-59230867D01*
X164296469Y-58945067D01*
X164066498Y-58389868D01*
X163949260Y-57800472D01*
X163949260Y-57199528D01*
X164066498Y-56610132D01*
X164296469Y-56054933D01*
X164487435Y-55769133D01*
X164630335Y-55555267D01*
X165055267Y-55130335D01*
X165269133Y-54987435D01*
X165554933Y-54796469D01*
X166110132Y-54566498D01*
X166404830Y-54507879D01*
X166699527Y-54449260D01*
X167300473Y-54449260D01*
X167595170Y-54507879D01*
G37*
G36*
X184375256Y-44391298D02*
G01*
X184481579Y-44412447D01*
X184782042Y-44536903D01*
X185052451Y-44717585D01*
X185282415Y-44947549D01*
X185463097Y-45217958D01*
X185587553Y-45518421D01*
X185651000Y-45837391D01*
X185651000Y-46162609D01*
X185587553Y-46481579D01*
X185463097Y-46782042D01*
X185282415Y-47052451D01*
X185052451Y-47282415D01*
X184782042Y-47463097D01*
X184481579Y-47587553D01*
X184375256Y-47608702D01*
X184162611Y-47651000D01*
X183837389Y-47651000D01*
X183624744Y-47608702D01*
X183518421Y-47587553D01*
X183217958Y-47463097D01*
X182947549Y-47282415D01*
X182717585Y-47052451D01*
X182536903Y-46782042D01*
X182412447Y-46481579D01*
X182349000Y-46162609D01*
X182349000Y-45837391D01*
X182412447Y-45518421D01*
X182536903Y-45217958D01*
X182717585Y-44947549D01*
X182947549Y-44717585D01*
X183217958Y-44536903D01*
X183518421Y-44412447D01*
X183624744Y-44391298D01*
X183837389Y-44349000D01*
X184162611Y-44349000D01*
X184375256Y-44391298D01*
G37*
G36*
X96375256Y-44391298D02*
G01*
X96481579Y-44412447D01*
X96782042Y-44536903D01*
X97052451Y-44717585D01*
X97282415Y-44947549D01*
X97463097Y-45217958D01*
X97587553Y-45518421D01*
X97651000Y-45837391D01*
X97651000Y-46162609D01*
X97587553Y-46481579D01*
X97463097Y-46782042D01*
X97282415Y-47052451D01*
X97052451Y-47282415D01*
X96782042Y-47463097D01*
X96481579Y-47587553D01*
X96375256Y-47608702D01*
X96162611Y-47651000D01*
X95837389Y-47651000D01*
X95624744Y-47608702D01*
X95518421Y-47587553D01*
X95217958Y-47463097D01*
X94947549Y-47282415D01*
X94717585Y-47052451D01*
X94536903Y-46782042D01*
X94412447Y-46481579D01*
X94349000Y-46162609D01*
X94349000Y-45837391D01*
X94412447Y-45518421D01*
X94536903Y-45217958D01*
X94717585Y-44947549D01*
X94947549Y-44717585D01*
X95217958Y-44536903D01*
X95518421Y-44412447D01*
X95624744Y-44391298D01*
X95837389Y-44349000D01*
X96162611Y-44349000D01*
X96375256Y-44391298D01*
G37*
M02*
