G04 #@! TF.GenerationSoftware,KiCad,Pcbnew,(5.1.5)-3*
G04 #@! TF.CreationDate,2020-06-27T22:24:07+10:00*
G04 #@! TF.ProjectId,external_psu,65787465-726e-4616-9c5f-7073752e6b69,1.0.0*
G04 #@! TF.SameCoordinates,Original*
G04 #@! TF.FileFunction,Paste,Top*
G04 #@! TF.FilePolarity,Positive*
%FSLAX46Y46*%
G04 Gerber Fmt 4.6, Leading zero omitted, Abs format (unit mm)*
G04 Created by KiCad (PCBNEW (5.1.5)-3) date 2020-06-27 22:24:07*
%MOMM*%
%LPD*%
G04 APERTURE LIST*
%ADD10C,0.100000*%
%ADD11R,3.180000X3.180000*%
%ADD12R,2.590000X3.180000*%
%ADD13R,1.498600X3.987800*%
G04 APERTURE END LIST*
D10*
G36*
X172649504Y-68276204D02*
G01*
X172673773Y-68279804D01*
X172697571Y-68285765D01*
X172720671Y-68294030D01*
X172742849Y-68304520D01*
X172763893Y-68317133D01*
X172783598Y-68331747D01*
X172801777Y-68348223D01*
X172818253Y-68366402D01*
X172832867Y-68386107D01*
X172845480Y-68407151D01*
X172855970Y-68429329D01*
X172864235Y-68452429D01*
X172870196Y-68476227D01*
X172873796Y-68500496D01*
X172875000Y-68525000D01*
X172875000Y-69275000D01*
X172873796Y-69299504D01*
X172870196Y-69323773D01*
X172864235Y-69347571D01*
X172855970Y-69370671D01*
X172845480Y-69392849D01*
X172832867Y-69413893D01*
X172818253Y-69433598D01*
X172801777Y-69451777D01*
X172783598Y-69468253D01*
X172763893Y-69482867D01*
X172742849Y-69495480D01*
X172720671Y-69505970D01*
X172697571Y-69514235D01*
X172673773Y-69520196D01*
X172649504Y-69523796D01*
X172625000Y-69525000D01*
X171375000Y-69525000D01*
X171350496Y-69523796D01*
X171326227Y-69520196D01*
X171302429Y-69514235D01*
X171279329Y-69505970D01*
X171257151Y-69495480D01*
X171236107Y-69482867D01*
X171216402Y-69468253D01*
X171198223Y-69451777D01*
X171181747Y-69433598D01*
X171167133Y-69413893D01*
X171154520Y-69392849D01*
X171144030Y-69370671D01*
X171135765Y-69347571D01*
X171129804Y-69323773D01*
X171126204Y-69299504D01*
X171125000Y-69275000D01*
X171125000Y-68525000D01*
X171126204Y-68500496D01*
X171129804Y-68476227D01*
X171135765Y-68452429D01*
X171144030Y-68429329D01*
X171154520Y-68407151D01*
X171167133Y-68386107D01*
X171181747Y-68366402D01*
X171198223Y-68348223D01*
X171216402Y-68331747D01*
X171236107Y-68317133D01*
X171257151Y-68304520D01*
X171279329Y-68294030D01*
X171302429Y-68285765D01*
X171326227Y-68279804D01*
X171350496Y-68276204D01*
X171375000Y-68275000D01*
X172625000Y-68275000D01*
X172649504Y-68276204D01*
G37*
G36*
X172649504Y-65476204D02*
G01*
X172673773Y-65479804D01*
X172697571Y-65485765D01*
X172720671Y-65494030D01*
X172742849Y-65504520D01*
X172763893Y-65517133D01*
X172783598Y-65531747D01*
X172801777Y-65548223D01*
X172818253Y-65566402D01*
X172832867Y-65586107D01*
X172845480Y-65607151D01*
X172855970Y-65629329D01*
X172864235Y-65652429D01*
X172870196Y-65676227D01*
X172873796Y-65700496D01*
X172875000Y-65725000D01*
X172875000Y-66475000D01*
X172873796Y-66499504D01*
X172870196Y-66523773D01*
X172864235Y-66547571D01*
X172855970Y-66570671D01*
X172845480Y-66592849D01*
X172832867Y-66613893D01*
X172818253Y-66633598D01*
X172801777Y-66651777D01*
X172783598Y-66668253D01*
X172763893Y-66682867D01*
X172742849Y-66695480D01*
X172720671Y-66705970D01*
X172697571Y-66714235D01*
X172673773Y-66720196D01*
X172649504Y-66723796D01*
X172625000Y-66725000D01*
X171375000Y-66725000D01*
X171350496Y-66723796D01*
X171326227Y-66720196D01*
X171302429Y-66714235D01*
X171279329Y-66705970D01*
X171257151Y-66695480D01*
X171236107Y-66682867D01*
X171216402Y-66668253D01*
X171198223Y-66651777D01*
X171181747Y-66633598D01*
X171167133Y-66613893D01*
X171154520Y-66592849D01*
X171144030Y-66570671D01*
X171135765Y-66547571D01*
X171129804Y-66523773D01*
X171126204Y-66499504D01*
X171125000Y-66475000D01*
X171125000Y-65725000D01*
X171126204Y-65700496D01*
X171129804Y-65676227D01*
X171135765Y-65652429D01*
X171144030Y-65629329D01*
X171154520Y-65607151D01*
X171167133Y-65586107D01*
X171181747Y-65566402D01*
X171198223Y-65548223D01*
X171216402Y-65531747D01*
X171236107Y-65517133D01*
X171257151Y-65504520D01*
X171279329Y-65494030D01*
X171302429Y-65485765D01*
X171326227Y-65479804D01*
X171350496Y-65476204D01*
X171375000Y-65475000D01*
X172625000Y-65475000D01*
X172649504Y-65476204D01*
G37*
G36*
X172649504Y-83276204D02*
G01*
X172673773Y-83279804D01*
X172697571Y-83285765D01*
X172720671Y-83294030D01*
X172742849Y-83304520D01*
X172763893Y-83317133D01*
X172783598Y-83331747D01*
X172801777Y-83348223D01*
X172818253Y-83366402D01*
X172832867Y-83386107D01*
X172845480Y-83407151D01*
X172855970Y-83429329D01*
X172864235Y-83452429D01*
X172870196Y-83476227D01*
X172873796Y-83500496D01*
X172875000Y-83525000D01*
X172875000Y-84275000D01*
X172873796Y-84299504D01*
X172870196Y-84323773D01*
X172864235Y-84347571D01*
X172855970Y-84370671D01*
X172845480Y-84392849D01*
X172832867Y-84413893D01*
X172818253Y-84433598D01*
X172801777Y-84451777D01*
X172783598Y-84468253D01*
X172763893Y-84482867D01*
X172742849Y-84495480D01*
X172720671Y-84505970D01*
X172697571Y-84514235D01*
X172673773Y-84520196D01*
X172649504Y-84523796D01*
X172625000Y-84525000D01*
X171375000Y-84525000D01*
X171350496Y-84523796D01*
X171326227Y-84520196D01*
X171302429Y-84514235D01*
X171279329Y-84505970D01*
X171257151Y-84495480D01*
X171236107Y-84482867D01*
X171216402Y-84468253D01*
X171198223Y-84451777D01*
X171181747Y-84433598D01*
X171167133Y-84413893D01*
X171154520Y-84392849D01*
X171144030Y-84370671D01*
X171135765Y-84347571D01*
X171129804Y-84323773D01*
X171126204Y-84299504D01*
X171125000Y-84275000D01*
X171125000Y-83525000D01*
X171126204Y-83500496D01*
X171129804Y-83476227D01*
X171135765Y-83452429D01*
X171144030Y-83429329D01*
X171154520Y-83407151D01*
X171167133Y-83386107D01*
X171181747Y-83366402D01*
X171198223Y-83348223D01*
X171216402Y-83331747D01*
X171236107Y-83317133D01*
X171257151Y-83304520D01*
X171279329Y-83294030D01*
X171302429Y-83285765D01*
X171326227Y-83279804D01*
X171350496Y-83276204D01*
X171375000Y-83275000D01*
X172625000Y-83275000D01*
X172649504Y-83276204D01*
G37*
G36*
X172649504Y-80476204D02*
G01*
X172673773Y-80479804D01*
X172697571Y-80485765D01*
X172720671Y-80494030D01*
X172742849Y-80504520D01*
X172763893Y-80517133D01*
X172783598Y-80531747D01*
X172801777Y-80548223D01*
X172818253Y-80566402D01*
X172832867Y-80586107D01*
X172845480Y-80607151D01*
X172855970Y-80629329D01*
X172864235Y-80652429D01*
X172870196Y-80676227D01*
X172873796Y-80700496D01*
X172875000Y-80725000D01*
X172875000Y-81475000D01*
X172873796Y-81499504D01*
X172870196Y-81523773D01*
X172864235Y-81547571D01*
X172855970Y-81570671D01*
X172845480Y-81592849D01*
X172832867Y-81613893D01*
X172818253Y-81633598D01*
X172801777Y-81651777D01*
X172783598Y-81668253D01*
X172763893Y-81682867D01*
X172742849Y-81695480D01*
X172720671Y-81705970D01*
X172697571Y-81714235D01*
X172673773Y-81720196D01*
X172649504Y-81723796D01*
X172625000Y-81725000D01*
X171375000Y-81725000D01*
X171350496Y-81723796D01*
X171326227Y-81720196D01*
X171302429Y-81714235D01*
X171279329Y-81705970D01*
X171257151Y-81695480D01*
X171236107Y-81682867D01*
X171216402Y-81668253D01*
X171198223Y-81651777D01*
X171181747Y-81633598D01*
X171167133Y-81613893D01*
X171154520Y-81592849D01*
X171144030Y-81570671D01*
X171135765Y-81547571D01*
X171129804Y-81523773D01*
X171126204Y-81499504D01*
X171125000Y-81475000D01*
X171125000Y-80725000D01*
X171126204Y-80700496D01*
X171129804Y-80676227D01*
X171135765Y-80652429D01*
X171144030Y-80629329D01*
X171154520Y-80607151D01*
X171167133Y-80586107D01*
X171181747Y-80566402D01*
X171198223Y-80548223D01*
X171216402Y-80531747D01*
X171236107Y-80517133D01*
X171257151Y-80504520D01*
X171279329Y-80494030D01*
X171302429Y-80485765D01*
X171326227Y-80479804D01*
X171350496Y-80476204D01*
X171375000Y-80475000D01*
X172625000Y-80475000D01*
X172649504Y-80476204D01*
G37*
G36*
X172649504Y-115276204D02*
G01*
X172673773Y-115279804D01*
X172697571Y-115285765D01*
X172720671Y-115294030D01*
X172742849Y-115304520D01*
X172763893Y-115317133D01*
X172783598Y-115331747D01*
X172801777Y-115348223D01*
X172818253Y-115366402D01*
X172832867Y-115386107D01*
X172845480Y-115407151D01*
X172855970Y-115429329D01*
X172864235Y-115452429D01*
X172870196Y-115476227D01*
X172873796Y-115500496D01*
X172875000Y-115525000D01*
X172875000Y-116275000D01*
X172873796Y-116299504D01*
X172870196Y-116323773D01*
X172864235Y-116347571D01*
X172855970Y-116370671D01*
X172845480Y-116392849D01*
X172832867Y-116413893D01*
X172818253Y-116433598D01*
X172801777Y-116451777D01*
X172783598Y-116468253D01*
X172763893Y-116482867D01*
X172742849Y-116495480D01*
X172720671Y-116505970D01*
X172697571Y-116514235D01*
X172673773Y-116520196D01*
X172649504Y-116523796D01*
X172625000Y-116525000D01*
X171375000Y-116525000D01*
X171350496Y-116523796D01*
X171326227Y-116520196D01*
X171302429Y-116514235D01*
X171279329Y-116505970D01*
X171257151Y-116495480D01*
X171236107Y-116482867D01*
X171216402Y-116468253D01*
X171198223Y-116451777D01*
X171181747Y-116433598D01*
X171167133Y-116413893D01*
X171154520Y-116392849D01*
X171144030Y-116370671D01*
X171135765Y-116347571D01*
X171129804Y-116323773D01*
X171126204Y-116299504D01*
X171125000Y-116275000D01*
X171125000Y-115525000D01*
X171126204Y-115500496D01*
X171129804Y-115476227D01*
X171135765Y-115452429D01*
X171144030Y-115429329D01*
X171154520Y-115407151D01*
X171167133Y-115386107D01*
X171181747Y-115366402D01*
X171198223Y-115348223D01*
X171216402Y-115331747D01*
X171236107Y-115317133D01*
X171257151Y-115304520D01*
X171279329Y-115294030D01*
X171302429Y-115285765D01*
X171326227Y-115279804D01*
X171350496Y-115276204D01*
X171375000Y-115275000D01*
X172625000Y-115275000D01*
X172649504Y-115276204D01*
G37*
G36*
X172649504Y-112476204D02*
G01*
X172673773Y-112479804D01*
X172697571Y-112485765D01*
X172720671Y-112494030D01*
X172742849Y-112504520D01*
X172763893Y-112517133D01*
X172783598Y-112531747D01*
X172801777Y-112548223D01*
X172818253Y-112566402D01*
X172832867Y-112586107D01*
X172845480Y-112607151D01*
X172855970Y-112629329D01*
X172864235Y-112652429D01*
X172870196Y-112676227D01*
X172873796Y-112700496D01*
X172875000Y-112725000D01*
X172875000Y-113475000D01*
X172873796Y-113499504D01*
X172870196Y-113523773D01*
X172864235Y-113547571D01*
X172855970Y-113570671D01*
X172845480Y-113592849D01*
X172832867Y-113613893D01*
X172818253Y-113633598D01*
X172801777Y-113651777D01*
X172783598Y-113668253D01*
X172763893Y-113682867D01*
X172742849Y-113695480D01*
X172720671Y-113705970D01*
X172697571Y-113714235D01*
X172673773Y-113720196D01*
X172649504Y-113723796D01*
X172625000Y-113725000D01*
X171375000Y-113725000D01*
X171350496Y-113723796D01*
X171326227Y-113720196D01*
X171302429Y-113714235D01*
X171279329Y-113705970D01*
X171257151Y-113695480D01*
X171236107Y-113682867D01*
X171216402Y-113668253D01*
X171198223Y-113651777D01*
X171181747Y-113633598D01*
X171167133Y-113613893D01*
X171154520Y-113592849D01*
X171144030Y-113570671D01*
X171135765Y-113547571D01*
X171129804Y-113523773D01*
X171126204Y-113499504D01*
X171125000Y-113475000D01*
X171125000Y-112725000D01*
X171126204Y-112700496D01*
X171129804Y-112676227D01*
X171135765Y-112652429D01*
X171144030Y-112629329D01*
X171154520Y-112607151D01*
X171167133Y-112586107D01*
X171181747Y-112566402D01*
X171198223Y-112548223D01*
X171216402Y-112531747D01*
X171236107Y-112517133D01*
X171257151Y-112504520D01*
X171279329Y-112494030D01*
X171302429Y-112485765D01*
X171326227Y-112479804D01*
X171350496Y-112476204D01*
X171375000Y-112475000D01*
X172625000Y-112475000D01*
X172649504Y-112476204D01*
G37*
G36*
X178374505Y-61801204D02*
G01*
X178398773Y-61804804D01*
X178422572Y-61810765D01*
X178445671Y-61819030D01*
X178467850Y-61829520D01*
X178488893Y-61842132D01*
X178508599Y-61856747D01*
X178526777Y-61873223D01*
X178543253Y-61891401D01*
X178557868Y-61911107D01*
X178570480Y-61932150D01*
X178580970Y-61954329D01*
X178589235Y-61977428D01*
X178595196Y-62001227D01*
X178598796Y-62025495D01*
X178600000Y-62049999D01*
X178600000Y-62950001D01*
X178598796Y-62974505D01*
X178595196Y-62998773D01*
X178589235Y-63022572D01*
X178580970Y-63045671D01*
X178570480Y-63067850D01*
X178557868Y-63088893D01*
X178543253Y-63108599D01*
X178526777Y-63126777D01*
X178508599Y-63143253D01*
X178488893Y-63157868D01*
X178467850Y-63170480D01*
X178445671Y-63180970D01*
X178422572Y-63189235D01*
X178398773Y-63195196D01*
X178374505Y-63198796D01*
X178350001Y-63200000D01*
X177699999Y-63200000D01*
X177675495Y-63198796D01*
X177651227Y-63195196D01*
X177627428Y-63189235D01*
X177604329Y-63180970D01*
X177582150Y-63170480D01*
X177561107Y-63157868D01*
X177541401Y-63143253D01*
X177523223Y-63126777D01*
X177506747Y-63108599D01*
X177492132Y-63088893D01*
X177479520Y-63067850D01*
X177469030Y-63045671D01*
X177460765Y-63022572D01*
X177454804Y-62998773D01*
X177451204Y-62974505D01*
X177450000Y-62950001D01*
X177450000Y-62049999D01*
X177451204Y-62025495D01*
X177454804Y-62001227D01*
X177460765Y-61977428D01*
X177469030Y-61954329D01*
X177479520Y-61932150D01*
X177492132Y-61911107D01*
X177506747Y-61891401D01*
X177523223Y-61873223D01*
X177541401Y-61856747D01*
X177561107Y-61842132D01*
X177582150Y-61829520D01*
X177604329Y-61819030D01*
X177627428Y-61810765D01*
X177651227Y-61804804D01*
X177675495Y-61801204D01*
X177699999Y-61800000D01*
X178350001Y-61800000D01*
X178374505Y-61801204D01*
G37*
G36*
X176324505Y-61801204D02*
G01*
X176348773Y-61804804D01*
X176372572Y-61810765D01*
X176395671Y-61819030D01*
X176417850Y-61829520D01*
X176438893Y-61842132D01*
X176458599Y-61856747D01*
X176476777Y-61873223D01*
X176493253Y-61891401D01*
X176507868Y-61911107D01*
X176520480Y-61932150D01*
X176530970Y-61954329D01*
X176539235Y-61977428D01*
X176545196Y-62001227D01*
X176548796Y-62025495D01*
X176550000Y-62049999D01*
X176550000Y-62950001D01*
X176548796Y-62974505D01*
X176545196Y-62998773D01*
X176539235Y-63022572D01*
X176530970Y-63045671D01*
X176520480Y-63067850D01*
X176507868Y-63088893D01*
X176493253Y-63108599D01*
X176476777Y-63126777D01*
X176458599Y-63143253D01*
X176438893Y-63157868D01*
X176417850Y-63170480D01*
X176395671Y-63180970D01*
X176372572Y-63189235D01*
X176348773Y-63195196D01*
X176324505Y-63198796D01*
X176300001Y-63200000D01*
X175649999Y-63200000D01*
X175625495Y-63198796D01*
X175601227Y-63195196D01*
X175577428Y-63189235D01*
X175554329Y-63180970D01*
X175532150Y-63170480D01*
X175511107Y-63157868D01*
X175491401Y-63143253D01*
X175473223Y-63126777D01*
X175456747Y-63108599D01*
X175442132Y-63088893D01*
X175429520Y-63067850D01*
X175419030Y-63045671D01*
X175410765Y-63022572D01*
X175404804Y-62998773D01*
X175401204Y-62974505D01*
X175400000Y-62950001D01*
X175400000Y-62049999D01*
X175401204Y-62025495D01*
X175404804Y-62001227D01*
X175410765Y-61977428D01*
X175419030Y-61954329D01*
X175429520Y-61932150D01*
X175442132Y-61911107D01*
X175456747Y-61891401D01*
X175473223Y-61873223D01*
X175491401Y-61856747D01*
X175511107Y-61842132D01*
X175532150Y-61829520D01*
X175554329Y-61819030D01*
X175577428Y-61810765D01*
X175601227Y-61804804D01*
X175625495Y-61801204D01*
X175649999Y-61800000D01*
X176300001Y-61800000D01*
X176324505Y-61801204D01*
G37*
G36*
X176324505Y-86801204D02*
G01*
X176348773Y-86804804D01*
X176372572Y-86810765D01*
X176395671Y-86819030D01*
X176417850Y-86829520D01*
X176438893Y-86842132D01*
X176458599Y-86856747D01*
X176476777Y-86873223D01*
X176493253Y-86891401D01*
X176507868Y-86911107D01*
X176520480Y-86932150D01*
X176530970Y-86954329D01*
X176539235Y-86977428D01*
X176545196Y-87001227D01*
X176548796Y-87025495D01*
X176550000Y-87049999D01*
X176550000Y-87950001D01*
X176548796Y-87974505D01*
X176545196Y-87998773D01*
X176539235Y-88022572D01*
X176530970Y-88045671D01*
X176520480Y-88067850D01*
X176507868Y-88088893D01*
X176493253Y-88108599D01*
X176476777Y-88126777D01*
X176458599Y-88143253D01*
X176438893Y-88157868D01*
X176417850Y-88170480D01*
X176395671Y-88180970D01*
X176372572Y-88189235D01*
X176348773Y-88195196D01*
X176324505Y-88198796D01*
X176300001Y-88200000D01*
X175649999Y-88200000D01*
X175625495Y-88198796D01*
X175601227Y-88195196D01*
X175577428Y-88189235D01*
X175554329Y-88180970D01*
X175532150Y-88170480D01*
X175511107Y-88157868D01*
X175491401Y-88143253D01*
X175473223Y-88126777D01*
X175456747Y-88108599D01*
X175442132Y-88088893D01*
X175429520Y-88067850D01*
X175419030Y-88045671D01*
X175410765Y-88022572D01*
X175404804Y-87998773D01*
X175401204Y-87974505D01*
X175400000Y-87950001D01*
X175400000Y-87049999D01*
X175401204Y-87025495D01*
X175404804Y-87001227D01*
X175410765Y-86977428D01*
X175419030Y-86954329D01*
X175429520Y-86932150D01*
X175442132Y-86911107D01*
X175456747Y-86891401D01*
X175473223Y-86873223D01*
X175491401Y-86856747D01*
X175511107Y-86842132D01*
X175532150Y-86829520D01*
X175554329Y-86819030D01*
X175577428Y-86810765D01*
X175601227Y-86804804D01*
X175625495Y-86801204D01*
X175649999Y-86800000D01*
X176300001Y-86800000D01*
X176324505Y-86801204D01*
G37*
G36*
X178374505Y-86801204D02*
G01*
X178398773Y-86804804D01*
X178422572Y-86810765D01*
X178445671Y-86819030D01*
X178467850Y-86829520D01*
X178488893Y-86842132D01*
X178508599Y-86856747D01*
X178526777Y-86873223D01*
X178543253Y-86891401D01*
X178557868Y-86911107D01*
X178570480Y-86932150D01*
X178580970Y-86954329D01*
X178589235Y-86977428D01*
X178595196Y-87001227D01*
X178598796Y-87025495D01*
X178600000Y-87049999D01*
X178600000Y-87950001D01*
X178598796Y-87974505D01*
X178595196Y-87998773D01*
X178589235Y-88022572D01*
X178580970Y-88045671D01*
X178570480Y-88067850D01*
X178557868Y-88088893D01*
X178543253Y-88108599D01*
X178526777Y-88126777D01*
X178508599Y-88143253D01*
X178488893Y-88157868D01*
X178467850Y-88170480D01*
X178445671Y-88180970D01*
X178422572Y-88189235D01*
X178398773Y-88195196D01*
X178374505Y-88198796D01*
X178350001Y-88200000D01*
X177699999Y-88200000D01*
X177675495Y-88198796D01*
X177651227Y-88195196D01*
X177627428Y-88189235D01*
X177604329Y-88180970D01*
X177582150Y-88170480D01*
X177561107Y-88157868D01*
X177541401Y-88143253D01*
X177523223Y-88126777D01*
X177506747Y-88108599D01*
X177492132Y-88088893D01*
X177479520Y-88067850D01*
X177469030Y-88045671D01*
X177460765Y-88022572D01*
X177454804Y-87998773D01*
X177451204Y-87974505D01*
X177450000Y-87950001D01*
X177450000Y-87049999D01*
X177451204Y-87025495D01*
X177454804Y-87001227D01*
X177460765Y-86977428D01*
X177469030Y-86954329D01*
X177479520Y-86932150D01*
X177492132Y-86911107D01*
X177506747Y-86891401D01*
X177523223Y-86873223D01*
X177541401Y-86856747D01*
X177561107Y-86842132D01*
X177582150Y-86829520D01*
X177604329Y-86819030D01*
X177627428Y-86810765D01*
X177651227Y-86804804D01*
X177675495Y-86801204D01*
X177699999Y-86800000D01*
X178350001Y-86800000D01*
X178374505Y-86801204D01*
G37*
G36*
X176299505Y-108801204D02*
G01*
X176323773Y-108804804D01*
X176347572Y-108810765D01*
X176370671Y-108819030D01*
X176392850Y-108829520D01*
X176413893Y-108842132D01*
X176433599Y-108856747D01*
X176451777Y-108873223D01*
X176468253Y-108891401D01*
X176482868Y-108911107D01*
X176495480Y-108932150D01*
X176505970Y-108954329D01*
X176514235Y-108977428D01*
X176520196Y-109001227D01*
X176523796Y-109025495D01*
X176525000Y-109049999D01*
X176525000Y-109950001D01*
X176523796Y-109974505D01*
X176520196Y-109998773D01*
X176514235Y-110022572D01*
X176505970Y-110045671D01*
X176495480Y-110067850D01*
X176482868Y-110088893D01*
X176468253Y-110108599D01*
X176451777Y-110126777D01*
X176433599Y-110143253D01*
X176413893Y-110157868D01*
X176392850Y-110170480D01*
X176370671Y-110180970D01*
X176347572Y-110189235D01*
X176323773Y-110195196D01*
X176299505Y-110198796D01*
X176275001Y-110200000D01*
X175624999Y-110200000D01*
X175600495Y-110198796D01*
X175576227Y-110195196D01*
X175552428Y-110189235D01*
X175529329Y-110180970D01*
X175507150Y-110170480D01*
X175486107Y-110157868D01*
X175466401Y-110143253D01*
X175448223Y-110126777D01*
X175431747Y-110108599D01*
X175417132Y-110088893D01*
X175404520Y-110067850D01*
X175394030Y-110045671D01*
X175385765Y-110022572D01*
X175379804Y-109998773D01*
X175376204Y-109974505D01*
X175375000Y-109950001D01*
X175375000Y-109049999D01*
X175376204Y-109025495D01*
X175379804Y-109001227D01*
X175385765Y-108977428D01*
X175394030Y-108954329D01*
X175404520Y-108932150D01*
X175417132Y-108911107D01*
X175431747Y-108891401D01*
X175448223Y-108873223D01*
X175466401Y-108856747D01*
X175486107Y-108842132D01*
X175507150Y-108829520D01*
X175529329Y-108819030D01*
X175552428Y-108810765D01*
X175576227Y-108804804D01*
X175600495Y-108801204D01*
X175624999Y-108800000D01*
X176275001Y-108800000D01*
X176299505Y-108801204D01*
G37*
G36*
X178349505Y-108801204D02*
G01*
X178373773Y-108804804D01*
X178397572Y-108810765D01*
X178420671Y-108819030D01*
X178442850Y-108829520D01*
X178463893Y-108842132D01*
X178483599Y-108856747D01*
X178501777Y-108873223D01*
X178518253Y-108891401D01*
X178532868Y-108911107D01*
X178545480Y-108932150D01*
X178555970Y-108954329D01*
X178564235Y-108977428D01*
X178570196Y-109001227D01*
X178573796Y-109025495D01*
X178575000Y-109049999D01*
X178575000Y-109950001D01*
X178573796Y-109974505D01*
X178570196Y-109998773D01*
X178564235Y-110022572D01*
X178555970Y-110045671D01*
X178545480Y-110067850D01*
X178532868Y-110088893D01*
X178518253Y-110108599D01*
X178501777Y-110126777D01*
X178483599Y-110143253D01*
X178463893Y-110157868D01*
X178442850Y-110170480D01*
X178420671Y-110180970D01*
X178397572Y-110189235D01*
X178373773Y-110195196D01*
X178349505Y-110198796D01*
X178325001Y-110200000D01*
X177674999Y-110200000D01*
X177650495Y-110198796D01*
X177626227Y-110195196D01*
X177602428Y-110189235D01*
X177579329Y-110180970D01*
X177557150Y-110170480D01*
X177536107Y-110157868D01*
X177516401Y-110143253D01*
X177498223Y-110126777D01*
X177481747Y-110108599D01*
X177467132Y-110088893D01*
X177454520Y-110067850D01*
X177444030Y-110045671D01*
X177435765Y-110022572D01*
X177429804Y-109998773D01*
X177426204Y-109974505D01*
X177425000Y-109950001D01*
X177425000Y-109049999D01*
X177426204Y-109025495D01*
X177429804Y-109001227D01*
X177435765Y-108977428D01*
X177444030Y-108954329D01*
X177454520Y-108932150D01*
X177467132Y-108911107D01*
X177481747Y-108891401D01*
X177498223Y-108873223D01*
X177516401Y-108856747D01*
X177536107Y-108842132D01*
X177557150Y-108829520D01*
X177579329Y-108819030D01*
X177602428Y-108810765D01*
X177626227Y-108804804D01*
X177650495Y-108801204D01*
X177674999Y-108800000D01*
X178325001Y-108800000D01*
X178349505Y-108801204D01*
G37*
G36*
X182649504Y-68276204D02*
G01*
X182673773Y-68279804D01*
X182697571Y-68285765D01*
X182720671Y-68294030D01*
X182742849Y-68304520D01*
X182763893Y-68317133D01*
X182783598Y-68331747D01*
X182801777Y-68348223D01*
X182818253Y-68366402D01*
X182832867Y-68386107D01*
X182845480Y-68407151D01*
X182855970Y-68429329D01*
X182864235Y-68452429D01*
X182870196Y-68476227D01*
X182873796Y-68500496D01*
X182875000Y-68525000D01*
X182875000Y-69275000D01*
X182873796Y-69299504D01*
X182870196Y-69323773D01*
X182864235Y-69347571D01*
X182855970Y-69370671D01*
X182845480Y-69392849D01*
X182832867Y-69413893D01*
X182818253Y-69433598D01*
X182801777Y-69451777D01*
X182783598Y-69468253D01*
X182763893Y-69482867D01*
X182742849Y-69495480D01*
X182720671Y-69505970D01*
X182697571Y-69514235D01*
X182673773Y-69520196D01*
X182649504Y-69523796D01*
X182625000Y-69525000D01*
X181375000Y-69525000D01*
X181350496Y-69523796D01*
X181326227Y-69520196D01*
X181302429Y-69514235D01*
X181279329Y-69505970D01*
X181257151Y-69495480D01*
X181236107Y-69482867D01*
X181216402Y-69468253D01*
X181198223Y-69451777D01*
X181181747Y-69433598D01*
X181167133Y-69413893D01*
X181154520Y-69392849D01*
X181144030Y-69370671D01*
X181135765Y-69347571D01*
X181129804Y-69323773D01*
X181126204Y-69299504D01*
X181125000Y-69275000D01*
X181125000Y-68525000D01*
X181126204Y-68500496D01*
X181129804Y-68476227D01*
X181135765Y-68452429D01*
X181144030Y-68429329D01*
X181154520Y-68407151D01*
X181167133Y-68386107D01*
X181181747Y-68366402D01*
X181198223Y-68348223D01*
X181216402Y-68331747D01*
X181236107Y-68317133D01*
X181257151Y-68304520D01*
X181279329Y-68294030D01*
X181302429Y-68285765D01*
X181326227Y-68279804D01*
X181350496Y-68276204D01*
X181375000Y-68275000D01*
X182625000Y-68275000D01*
X182649504Y-68276204D01*
G37*
G36*
X182649504Y-65476204D02*
G01*
X182673773Y-65479804D01*
X182697571Y-65485765D01*
X182720671Y-65494030D01*
X182742849Y-65504520D01*
X182763893Y-65517133D01*
X182783598Y-65531747D01*
X182801777Y-65548223D01*
X182818253Y-65566402D01*
X182832867Y-65586107D01*
X182845480Y-65607151D01*
X182855970Y-65629329D01*
X182864235Y-65652429D01*
X182870196Y-65676227D01*
X182873796Y-65700496D01*
X182875000Y-65725000D01*
X182875000Y-66475000D01*
X182873796Y-66499504D01*
X182870196Y-66523773D01*
X182864235Y-66547571D01*
X182855970Y-66570671D01*
X182845480Y-66592849D01*
X182832867Y-66613893D01*
X182818253Y-66633598D01*
X182801777Y-66651777D01*
X182783598Y-66668253D01*
X182763893Y-66682867D01*
X182742849Y-66695480D01*
X182720671Y-66705970D01*
X182697571Y-66714235D01*
X182673773Y-66720196D01*
X182649504Y-66723796D01*
X182625000Y-66725000D01*
X181375000Y-66725000D01*
X181350496Y-66723796D01*
X181326227Y-66720196D01*
X181302429Y-66714235D01*
X181279329Y-66705970D01*
X181257151Y-66695480D01*
X181236107Y-66682867D01*
X181216402Y-66668253D01*
X181198223Y-66651777D01*
X181181747Y-66633598D01*
X181167133Y-66613893D01*
X181154520Y-66592849D01*
X181144030Y-66570671D01*
X181135765Y-66547571D01*
X181129804Y-66523773D01*
X181126204Y-66499504D01*
X181125000Y-66475000D01*
X181125000Y-65725000D01*
X181126204Y-65700496D01*
X181129804Y-65676227D01*
X181135765Y-65652429D01*
X181144030Y-65629329D01*
X181154520Y-65607151D01*
X181167133Y-65586107D01*
X181181747Y-65566402D01*
X181198223Y-65548223D01*
X181216402Y-65531747D01*
X181236107Y-65517133D01*
X181257151Y-65504520D01*
X181279329Y-65494030D01*
X181302429Y-65485765D01*
X181326227Y-65479804D01*
X181350496Y-65476204D01*
X181375000Y-65475000D01*
X182625000Y-65475000D01*
X182649504Y-65476204D01*
G37*
G36*
X182649504Y-83276204D02*
G01*
X182673773Y-83279804D01*
X182697571Y-83285765D01*
X182720671Y-83294030D01*
X182742849Y-83304520D01*
X182763893Y-83317133D01*
X182783598Y-83331747D01*
X182801777Y-83348223D01*
X182818253Y-83366402D01*
X182832867Y-83386107D01*
X182845480Y-83407151D01*
X182855970Y-83429329D01*
X182864235Y-83452429D01*
X182870196Y-83476227D01*
X182873796Y-83500496D01*
X182875000Y-83525000D01*
X182875000Y-84275000D01*
X182873796Y-84299504D01*
X182870196Y-84323773D01*
X182864235Y-84347571D01*
X182855970Y-84370671D01*
X182845480Y-84392849D01*
X182832867Y-84413893D01*
X182818253Y-84433598D01*
X182801777Y-84451777D01*
X182783598Y-84468253D01*
X182763893Y-84482867D01*
X182742849Y-84495480D01*
X182720671Y-84505970D01*
X182697571Y-84514235D01*
X182673773Y-84520196D01*
X182649504Y-84523796D01*
X182625000Y-84525000D01*
X181375000Y-84525000D01*
X181350496Y-84523796D01*
X181326227Y-84520196D01*
X181302429Y-84514235D01*
X181279329Y-84505970D01*
X181257151Y-84495480D01*
X181236107Y-84482867D01*
X181216402Y-84468253D01*
X181198223Y-84451777D01*
X181181747Y-84433598D01*
X181167133Y-84413893D01*
X181154520Y-84392849D01*
X181144030Y-84370671D01*
X181135765Y-84347571D01*
X181129804Y-84323773D01*
X181126204Y-84299504D01*
X181125000Y-84275000D01*
X181125000Y-83525000D01*
X181126204Y-83500496D01*
X181129804Y-83476227D01*
X181135765Y-83452429D01*
X181144030Y-83429329D01*
X181154520Y-83407151D01*
X181167133Y-83386107D01*
X181181747Y-83366402D01*
X181198223Y-83348223D01*
X181216402Y-83331747D01*
X181236107Y-83317133D01*
X181257151Y-83304520D01*
X181279329Y-83294030D01*
X181302429Y-83285765D01*
X181326227Y-83279804D01*
X181350496Y-83276204D01*
X181375000Y-83275000D01*
X182625000Y-83275000D01*
X182649504Y-83276204D01*
G37*
G36*
X182649504Y-80476204D02*
G01*
X182673773Y-80479804D01*
X182697571Y-80485765D01*
X182720671Y-80494030D01*
X182742849Y-80504520D01*
X182763893Y-80517133D01*
X182783598Y-80531747D01*
X182801777Y-80548223D01*
X182818253Y-80566402D01*
X182832867Y-80586107D01*
X182845480Y-80607151D01*
X182855970Y-80629329D01*
X182864235Y-80652429D01*
X182870196Y-80676227D01*
X182873796Y-80700496D01*
X182875000Y-80725000D01*
X182875000Y-81475000D01*
X182873796Y-81499504D01*
X182870196Y-81523773D01*
X182864235Y-81547571D01*
X182855970Y-81570671D01*
X182845480Y-81592849D01*
X182832867Y-81613893D01*
X182818253Y-81633598D01*
X182801777Y-81651777D01*
X182783598Y-81668253D01*
X182763893Y-81682867D01*
X182742849Y-81695480D01*
X182720671Y-81705970D01*
X182697571Y-81714235D01*
X182673773Y-81720196D01*
X182649504Y-81723796D01*
X182625000Y-81725000D01*
X181375000Y-81725000D01*
X181350496Y-81723796D01*
X181326227Y-81720196D01*
X181302429Y-81714235D01*
X181279329Y-81705970D01*
X181257151Y-81695480D01*
X181236107Y-81682867D01*
X181216402Y-81668253D01*
X181198223Y-81651777D01*
X181181747Y-81633598D01*
X181167133Y-81613893D01*
X181154520Y-81592849D01*
X181144030Y-81570671D01*
X181135765Y-81547571D01*
X181129804Y-81523773D01*
X181126204Y-81499504D01*
X181125000Y-81475000D01*
X181125000Y-80725000D01*
X181126204Y-80700496D01*
X181129804Y-80676227D01*
X181135765Y-80652429D01*
X181144030Y-80629329D01*
X181154520Y-80607151D01*
X181167133Y-80586107D01*
X181181747Y-80566402D01*
X181198223Y-80548223D01*
X181216402Y-80531747D01*
X181236107Y-80517133D01*
X181257151Y-80504520D01*
X181279329Y-80494030D01*
X181302429Y-80485765D01*
X181326227Y-80479804D01*
X181350496Y-80476204D01*
X181375000Y-80475000D01*
X182625000Y-80475000D01*
X182649504Y-80476204D01*
G37*
G36*
X182649504Y-112476204D02*
G01*
X182673773Y-112479804D01*
X182697571Y-112485765D01*
X182720671Y-112494030D01*
X182742849Y-112504520D01*
X182763893Y-112517133D01*
X182783598Y-112531747D01*
X182801777Y-112548223D01*
X182818253Y-112566402D01*
X182832867Y-112586107D01*
X182845480Y-112607151D01*
X182855970Y-112629329D01*
X182864235Y-112652429D01*
X182870196Y-112676227D01*
X182873796Y-112700496D01*
X182875000Y-112725000D01*
X182875000Y-113475000D01*
X182873796Y-113499504D01*
X182870196Y-113523773D01*
X182864235Y-113547571D01*
X182855970Y-113570671D01*
X182845480Y-113592849D01*
X182832867Y-113613893D01*
X182818253Y-113633598D01*
X182801777Y-113651777D01*
X182783598Y-113668253D01*
X182763893Y-113682867D01*
X182742849Y-113695480D01*
X182720671Y-113705970D01*
X182697571Y-113714235D01*
X182673773Y-113720196D01*
X182649504Y-113723796D01*
X182625000Y-113725000D01*
X181375000Y-113725000D01*
X181350496Y-113723796D01*
X181326227Y-113720196D01*
X181302429Y-113714235D01*
X181279329Y-113705970D01*
X181257151Y-113695480D01*
X181236107Y-113682867D01*
X181216402Y-113668253D01*
X181198223Y-113651777D01*
X181181747Y-113633598D01*
X181167133Y-113613893D01*
X181154520Y-113592849D01*
X181144030Y-113570671D01*
X181135765Y-113547571D01*
X181129804Y-113523773D01*
X181126204Y-113499504D01*
X181125000Y-113475000D01*
X181125000Y-112725000D01*
X181126204Y-112700496D01*
X181129804Y-112676227D01*
X181135765Y-112652429D01*
X181144030Y-112629329D01*
X181154520Y-112607151D01*
X181167133Y-112586107D01*
X181181747Y-112566402D01*
X181198223Y-112548223D01*
X181216402Y-112531747D01*
X181236107Y-112517133D01*
X181257151Y-112504520D01*
X181279329Y-112494030D01*
X181302429Y-112485765D01*
X181326227Y-112479804D01*
X181350496Y-112476204D01*
X181375000Y-112475000D01*
X182625000Y-112475000D01*
X182649504Y-112476204D01*
G37*
G36*
X182649504Y-115276204D02*
G01*
X182673773Y-115279804D01*
X182697571Y-115285765D01*
X182720671Y-115294030D01*
X182742849Y-115304520D01*
X182763893Y-115317133D01*
X182783598Y-115331747D01*
X182801777Y-115348223D01*
X182818253Y-115366402D01*
X182832867Y-115386107D01*
X182845480Y-115407151D01*
X182855970Y-115429329D01*
X182864235Y-115452429D01*
X182870196Y-115476227D01*
X182873796Y-115500496D01*
X182875000Y-115525000D01*
X182875000Y-116275000D01*
X182873796Y-116299504D01*
X182870196Y-116323773D01*
X182864235Y-116347571D01*
X182855970Y-116370671D01*
X182845480Y-116392849D01*
X182832867Y-116413893D01*
X182818253Y-116433598D01*
X182801777Y-116451777D01*
X182783598Y-116468253D01*
X182763893Y-116482867D01*
X182742849Y-116495480D01*
X182720671Y-116505970D01*
X182697571Y-116514235D01*
X182673773Y-116520196D01*
X182649504Y-116523796D01*
X182625000Y-116525000D01*
X181375000Y-116525000D01*
X181350496Y-116523796D01*
X181326227Y-116520196D01*
X181302429Y-116514235D01*
X181279329Y-116505970D01*
X181257151Y-116495480D01*
X181236107Y-116482867D01*
X181216402Y-116468253D01*
X181198223Y-116451777D01*
X181181747Y-116433598D01*
X181167133Y-116413893D01*
X181154520Y-116392849D01*
X181144030Y-116370671D01*
X181135765Y-116347571D01*
X181129804Y-116323773D01*
X181126204Y-116299504D01*
X181125000Y-116275000D01*
X181125000Y-115525000D01*
X181126204Y-115500496D01*
X181129804Y-115476227D01*
X181135765Y-115452429D01*
X181144030Y-115429329D01*
X181154520Y-115407151D01*
X181167133Y-115386107D01*
X181181747Y-115366402D01*
X181198223Y-115348223D01*
X181216402Y-115331747D01*
X181236107Y-115317133D01*
X181257151Y-115304520D01*
X181279329Y-115294030D01*
X181302429Y-115285765D01*
X181326227Y-115279804D01*
X181350496Y-115276204D01*
X181375000Y-115275000D01*
X182625000Y-115275000D01*
X182649504Y-115276204D01*
G37*
D11*
X176525000Y-57500000D03*
D12*
X180500000Y-57500000D03*
D11*
X184475000Y-57500000D03*
X183475000Y-92000000D03*
D12*
X179500000Y-92000000D03*
D11*
X175525000Y-92000000D03*
X183475000Y-102500000D03*
D12*
X179500000Y-102500000D03*
D11*
X175525000Y-102500000D03*
D13*
X178803400Y-67500000D03*
X175196600Y-67500000D03*
X178803400Y-82500000D03*
X175196600Y-82500000D03*
X175196600Y-114500000D03*
X178803400Y-114500000D03*
M02*
